<svg data-v-0dd9719b="" version="1.0" xmlns="http://www.w3.org/2000/svg" xmlns:xlink="http://www.w3.org/1999/xlink" width="100%" height="100%" viewBox="0 70 200.000000 110.000000" preserveAspectRatio="xMidYMid meet" color-interpolation-filters="sRGB" style="margin: auto;" fill="#ffffff"> <rect data-v-0dd9719b="" x="0" y="0" width="100%" height="100%" fill="transparent" fill-opacity="1" class="background"></rect> <rect data-v-0dd9719b="" x="0" y="0" width="100%" height="100%" fill="transparent" fill-opacity="1" class="watermarklayer"></rect> <g data-v-0dd9719b="" fill="#757D80" class="icon-text-wrapper icon-svg-group iconsvg" transform="translate(78.88999938964844,92.63700103759766)"><g class="iconsvg-imagesvg" transform="translate(0,1.9219074249267578)"><g><rect fill="#757D80" fill-opacity="0" stroke-width="2" x="0" y="0" width="60" height="60.88218282919504" class="image-rect"></rect> <svg filter="url(#colors8169548551)" x="0" y="0" width="60" height="60.88218282919504" filtersec="colorsf7339061121" class="image-svg-svg primary" style="overflow: visible;"><svg xmlns="http://www.w3.org/2000/svg" xmlns:xlink="http://www.w3.org/1999/xlink" version="1.1" x="0px" y="0px" viewBox="17.97100257873535 17.5 64.05799865722656 65" xml:space="preserve"><path d="M79.618,26.377l-26.96-7.525v16.279l21.262,2.82l8.107,1.074V27.049L79.618,26.377z M52.659,64.869v16.279l29.369-8.196  V60.976l-20.795,2.754L52.659,64.869z M52.659,41.393v17.213l11.574-0.967l17.796-1.492V43.852l-10.574-0.885L52.659,41.393z   M50.262,38.02l0.549-0.066l-0.123-1.015l-0.426,0.051V17.5l-10.827,3.026V18.93l-1.023,0.286v1.595l-5.807,1.617v-1.586  l-1.022,0.287v1.585l-5.879,1.646v-1.596l-1.023,0.286v1.595l-5.838,1.626V40.78l-0.872,0.105l0.123,1.015l0.75-0.09v17.073  l-0.584-0.071l-0.123,1.015l0.707,0.085v13.815l5.7,1.587l0.138,0.039v1.596l0.511,0.143h0.511v-1.452l5.74,1.608l0.138,0.038v1.585  l1.023,0.286v-1.587l5.669,1.578l0.138,0.038v1.596l1.023,0.286v-1.596L50.262,82.5V63.706l0.591,0.071l0.123-1.015l-0.714-0.086  V38.02z M24.682,71.644v1.596l-3.793-1.063V60.16l3.793,0.458V71.644z M24.682,59.588l-3.793-0.458V41.564l3.793-0.458V59.588z   M24.682,28.356v11.717v0.003l-3.793,0.458v-12.71l3.793-1.063V28.356z M31.583,75.161l-5.745-1.608l-0.133-0.036V71.93V60.742  l5.879,0.709L31.583,75.161L31.583,75.161z M31.583,60.421l-5.879-0.709V40.983l0,0l5.879-0.709V60.421z M31.583,39.243  l-5.879,0.709V39.95V28.07v-1.587l0.137-0.037l5.741-1.608L31.583,39.243L31.583,39.243z M38.413,77.065l-5.669-1.579l-0.137-0.038  V61.574l5.807,0.701L38.413,77.065L38.413,77.065z M38.413,61.245l-5.807-0.701V40.15l5.807-0.701V61.245z M38.413,38.419  l-5.807,0.701V24.553l5.807-1.617V38.419z M48.218,79.804l-8.644-2.416l-0.138-0.038V62.398l8.782,1.06V79.804z M48.218,62.428  l-8.782-1.06V39.326l8.782-1.06V62.428z M48.218,37.236l-8.782,1.059V22.651l8.782-2.454V37.236z"></path></svg></svg> <defs><filter id="colors8169548551"><feColorMatrix type="matrix" values="0 0 0 0 0.953125  0 0 0 0 0.453125  0 0 0 0 0.14453125  0 0 0 1 0" class="icon-fecolormatrix"></feColorMatrix></filter> <filter id="colorsf7339061121"><feColorMatrix type="matrix" values="0 0 0 0 0.99609375  0 0 0 0 0.99609375  0 0 0 0 0.99609375  0 0 0 1 0" class="icon-fecolormatrix"></feColorMatrix></filter> <filter id="colorsb5376547441"><feColorMatrix type="matrix" values="0 0 0 0 0  0 0 0 0 0  0 0 0 0 0  0 0 0 1 0" class="icon-fecolormatrix"></feColorMatrix></filter></defs></g></g> <g transform="translate(66,0)"><g data-gra="path-name" fill-rule="" class="tp-name iconsvg-namesvg" transform="translate(0,0)"><g transform="scale(1)"><g><path d="M18.72 0.78C28.41 0.78 36.79-4.81 36.79-13.59 36.79-29.19 11.38-28.8 11.38-36.08 11.38-39.13 15.21-41.02 18.72-41.02 22.88-41.02 26.39-38.55 26.39-35.55L35.95-35.55C35.95-45.18 27.11-49.27 18.72-49.27 8.91-49.27 1.89-43.88 1.89-36.34 1.89-20.35 27.3-22.23 27.3-13.59 27.3-10.27 24.31-8.13 19.37-8.13 13.65-8.13 10.92-12.09 10.92-15.73L1.3-15.73C1.3-6.04 8.91 0.78 18.72 0.78ZM43.62 0L52.52 0 52.52-48.75 43.62-48.75ZM52.52-24.31C67.73-5.4 83.92 1.3 97.05 1.3 106.6 1.3 113.82-0.98 117.52-4.03L113.23-11.25C108.81-8.64 105.17-6.89 97.05-6.89 87.17-6.89 76.57-10.27 63.18-24.31L82.09-48.75 71.57-48.75ZM117.13-48.75L107.45-48.75 100.75-34.71 93.41-48.75 83.72-48.75 96.66-25.68 96.66-14.43 104.85-14.43 104.85-25.68Z" transform="translate(-1.2999999523162842, 49.27000045776367)"></path></g> <!----> <!----> <!----> <!----> <!----> <!----> <!----></g></g> <g data-gra="path-slogan" fill-rule="" class="tp-slogan iconsvg-slogansvg" fill="#757D80" transform="translate(5,56.56999969482422)"><rect x="0" height="1" y="3.580000400543213" width="29.00999641418457"></rect> <rect height="1" y="3.580000400543213" width="29.00999641418457" x="77.20999717712402"></rect> <g transform="translate(32.00999641418457,0)"><g transform="scale(1)"><path d="M0.62-3.94C0.62-3.30 0.71-2.72 0.89-2.21C1.06-1.71 1.31-1.28 1.62-0.93C1.93-0.58 2.30-0.32 2.74-0.13C3.17 0.05 3.64 0.14 4.16 0.14C4.69 0.14 5.17 0.06 5.59-0.11C6.01-0.29 6.34-0.50 6.60-0.77L6.60-4.08L4.02-4.08L4.02-3.25L5.69-3.25L5.69-1.20C5.53-1.06 5.32-0.94 5.07-0.86C4.82-0.77 4.55-0.73 4.27-0.73C3.85-0.73 3.47-0.81 3.15-0.96C2.83-1.11 2.55-1.33 2.33-1.61C2.11-1.89 1.95-2.23 1.83-2.62C1.71-3.02 1.66-3.46 1.66-3.96C1.66-4.45 1.72-4.89 1.84-5.28C1.97-5.67 2.14-6.01 2.36-6.28C2.59-6.56 2.86-6.77 3.18-6.92C3.50-7.07 3.86-7.14 4.26-7.14C4.66-7.14 4.99-7.07 5.25-6.93C5.51-6.79 5.74-6.62 5.94-6.41L6.50-7.04C6.27-7.28 5.97-7.51 5.61-7.71C5.25-7.91 4.79-8.02 4.25-8.02C3.72-8.02 3.24-7.92 2.80-7.73C2.36-7.55 1.97-7.28 1.65-6.92C1.33-6.57 1.07-6.14 0.89-5.64C0.71-5.14 0.62-4.57 0.62-3.94ZM9.48-4.14L9.48-7.07L10.80-7.07C11.42-7.07 11.89-6.96 12.22-6.76C12.54-6.55 12.71-6.18 12.71-5.66C12.71-5.15 12.54-4.77 12.22-4.52C11.89-4.27 11.42-4.14 10.80-4.14ZM12.80 0L13.93 0L11.94-3.43C12.48-3.57 12.90-3.82 13.22-4.19C13.54-4.56 13.70-5.05 13.70-5.66C13.70-6.07 13.64-6.42 13.50-6.70C13.36-6.98 13.17-7.20 12.93-7.38C12.69-7.56 12.39-7.68 12.05-7.76C11.71-7.83 11.34-7.87 10.94-7.87L8.48-7.87L8.48 0L9.48 0L9.48-3.32L10.91-3.32ZM18.36 0.14C18.86 0.14 19.31 0.05 19.72-0.14C20.13-0.34 20.49-0.61 20.79-0.97C21.09-1.32 21.32-1.75 21.49-2.26C21.65-2.77 21.73-3.34 21.73-3.97C21.73-4.60 21.65-5.16 21.49-5.66C21.32-6.16 21.09-6.58 20.79-6.93C20.49-7.28 20.13-7.55 19.72-7.73C19.31-7.92 18.86-8.02 18.36-8.02C17.86-8.02 17.41-7.92 17.00-7.74C16.59-7.56 16.23-7.29 15.94-6.94C15.64-6.59 15.41-6.17 15.25-5.67C15.08-5.17 15.00-4.60 15.00-3.97C15.00-3.34 15.08-2.77 15.25-2.26C15.41-1.75 15.64-1.32 15.94-0.97C16.23-0.61 16.59-0.34 17.00-0.14C17.41 0.05 17.86 0.14 18.36 0.14ZM18.36-0.73C18.01-0.73 17.69-0.81 17.41-0.96C17.12-1.11 16.88-1.33 16.67-1.61C16.47-1.90 16.31-2.24 16.20-2.63C16.09-3.03 16.03-3.48 16.03-3.97C16.03-4.46 16.09-4.90 16.20-5.29C16.31-5.68 16.47-6.02 16.67-6.29C16.88-6.56 17.12-6.77 17.41-6.92C17.69-7.07 18.01-7.14 18.36-7.14C18.71-7.14 19.03-7.07 19.31-6.92C19.60-6.77 19.84-6.56 20.05-6.29C20.25-6.02 20.41-5.68 20.52-5.29C20.63-4.90 20.69-4.46 20.69-3.97C20.69-3.48 20.63-3.03 20.52-2.63C20.41-2.24 20.25-1.90 20.05-1.61C19.84-1.33 19.60-1.11 19.31-0.96C19.03-0.81 18.71-0.73 18.36-0.73ZM23.39-7.87L23.39-3.25C23.39-2.62 23.46-2.09 23.60-1.66C23.75-1.22 23.95-0.87 24.20-0.61C24.45-0.34 24.75-0.15 25.10-0.03C25.45 0.09 25.82 0.14 26.22 0.14C26.62 0.14 26.99 0.09 27.34-0.03C27.68-0.15 27.98-0.34 28.23-0.61C28.48-0.87 28.68-1.22 28.82-1.66C28.97-2.09 29.04-2.62 29.04-3.25L29.04-7.87L28.08-7.87L28.08-3.23C28.08-2.76 28.03-2.36 27.94-2.04C27.84-1.72 27.71-1.46 27.54-1.27C27.37-1.08 27.18-0.94 26.95-0.86C26.73-0.77 26.48-0.73 26.22-0.73C25.96-0.73 25.72-0.77 25.50-0.86C25.28-0.94 25.08-1.08 24.92-1.27C24.75-1.46 24.62-1.72 24.53-2.04C24.43-2.36 24.38-2.76 24.38-3.23L24.38-7.87ZM31.16-7.87L31.16 0L32.16 0L32.16-3.12L33.58-3.12C34.01-3.12 34.40-3.17 34.76-3.27C35.11-3.37 35.42-3.52 35.68-3.72C35.93-3.92 36.13-4.17 36.27-4.48C36.41-4.78 36.48-5.14 36.48-5.56C36.48-5.99 36.41-6.35 36.27-6.65C36.13-6.94 35.93-7.18 35.68-7.36C35.43-7.54 35.12-7.67 34.76-7.75C34.40-7.83 34.01-7.87 33.58-7.87ZM33.46-3.94L32.16-3.94L32.16-7.07L33.46-7.07C34.14-7.07 34.64-6.96 34.98-6.74C35.32-6.52 35.48-6.12 35.48-5.56C35.48-5.00 35.32-4.59 34.99-4.33C34.65-4.07 34.14-3.94 33.46-3.94ZM37.98-1.72L37.38-1.02C37.72-0.66 38.13-0.38 38.60-0.17C39.08 0.04 39.59 0.14 40.14 0.14C40.56 0.14 40.93 0.09 41.26-0.03C41.58-0.15 41.86-0.31 42.10-0.51C42.33-0.71 42.51-0.95 42.63-1.22C42.75-1.50 42.82-1.79 42.82-2.10C42.82-2.39 42.77-2.64 42.69-2.86C42.61-3.08 42.49-3.27 42.35-3.44C42.20-3.60 42.03-3.75 41.83-3.87C41.63-3.99 41.42-4.10 41.20-4.20L40.08-4.68C39.92-4.74 39.76-4.81 39.61-4.89C39.46-4.97 39.32-5.05 39.19-5.15C39.06-5.25 38.96-5.37 38.89-5.50C38.81-5.63 38.77-5.80 38.77-5.99C38.77-6.35 38.91-6.63 39.17-6.83C39.44-7.04 39.80-7.14 40.24-7.14C40.60-7.14 40.93-7.07 41.23-6.94C41.52-6.81 41.78-6.63 42.02-6.40L42.56-7.04C42.28-7.33 41.94-7.57 41.54-7.75C41.14-7.93 40.71-8.02 40.24-8.02C39.88-8.02 39.55-7.96 39.25-7.86C38.95-7.76 38.69-7.61 38.47-7.42C38.25-7.23 38.07-7.01 37.95-6.76C37.83-6.50 37.76-6.22 37.76-5.93C37.76-5.64 37.81-5.39 37.91-5.17C38.00-4.95 38.13-4.76 38.28-4.60C38.43-4.44 38.60-4.30 38.80-4.19C38.99-4.08 39.18-3.98 39.36-3.90L40.49-3.41C40.67-3.32 40.84-3.24 41.00-3.16C41.16-3.08 41.30-2.99 41.42-2.89C41.53-2.79 41.63-2.67 41.69-2.53C41.76-2.39 41.80-2.22 41.80-2.02C41.80-1.63 41.65-1.32 41.36-1.09C41.08-0.85 40.67-0.73 40.15-0.73C39.74-0.73 39.35-0.82 38.97-1.00C38.59-1.18 38.26-1.42 37.98-1.72Z" transform="translate(-0.624, 8.016)"></path></g></g></g></g></g><defs v-gra="od"></defs></svg>