<svg  version="1.0" xmlns="http://www.w3.org/2000/svg" xmlns:xlink="http://www.w3.org/1999/xlink" width="100%" height="100%" viewBox="0 0 340.000000 250.000000"  style="margin: auto;"> <rect data-v-0dd9719b="" x="0" y="0" width="100%" height="100%" fill="transparent" fill-opacity="1" class="background"></rect> <rect data-v-0dd9719b="" x="0" y="0" width="100%" height="100%" fill="transparent" fill-opacity="1" class="watermarklayer"></rect> <g data-v-0dd9719b="" fill="#333" class="icon-text-wrapper icon-svg-group iconsvg" transform="translate(61.65840148925781,96.27031707763672)"><g class="iconsvg-imagesvg" transform="translate(0,0)" mask="url(#f65b6189-c08b-4311-aeeb-81c2f811cb98)"><g><rect fill="#333" fill-opacity="0" stroke-width="2" x="0" y="0" width="88.80000000000003" height="57.45936432342894" class="image-rect"></rect> <svg x="0" y="0" width="88.80000000000003" height="57.45936432342894" filtersec="colorsb7160809336" class="image-svg-svg primary" style="overflow: visible;">
<svg xmlns="http://www.w3.org/2000/svg" viewBox="-0.96028 -0.8700000000000001 210.75299 137.78246"><g stroke-width="2" fill="none" stroke-linecap="butt"><path stroke="#44483a" d="M101.61 1.13Q105.96 2.57 110.39 1.15M121.8 30.56 121.69 71.48M121.77 71.98Q120.74 72.34 122 72.77 123.56 73.3 127.65 72.29M130.44 77.31Q130.79 77.78 131.16 77.77 131.69 77.76 131.68 77.23L131.2 51.14M131.1 50.36 138.93 50.38M145.51 54.46Q147.32 54.84 147.86 54.06" data-c-stroke="44483a"></path><path stroke="#2e2f2e" d="M148.2 53.68Q150.03 53.84 150.8 53.06M177.51 44.28Q178.91 44.86 180.24 44.77 180.74 44.74 180.68 44.05M181.53 43.33Q183.92 44.38 184.57 43.14M185.51 42.26Q188.18 43.24 189.7 41.73" data-c-stroke="2e2f2e"></path><path stroke="#44483a" d="M 189.70 41.73 Q 190.91 41.52 192.25 41.54 Q 193.32 41.56 193.47 41.10" data-c-stroke="44483a"></path><path stroke="#2e2f2e" d="M194.25 40.54Q196.77 40.96 197.6 40.24M176.59 53.74Q176 53.06 173.24 54.08 172.31 54.43 172.08 53.46L171.79 52.17" data-c-stroke="2e2f2e"></path><path stroke="#44483a" d="M 171.79 52.17 Q 169.36 51.35 168.32 53.44 Q 168.04 53.98 168.65 53.94 L 170.23 53.85" data-c-stroke="44483a"></path><path stroke="#2e2f2e" d="M 170.23 53.85 Q 171.17 54.00 171.69 54.92" data-c-stroke="2e2f2e"></path><path stroke="#44483a" d="M170.8 55.47Q169.33 54.72 168.3 55.91M164.38 57.79Q163.37 57.1 162.09 57.84 160.21 58.91 159.3 57.17M157.79 56.39Q156.1 54.55 154.43 55.54M150.91 56.18Q148.84 56.17 148.26 58A.71.7-83.3 0 0 148.98 58.92C150.46 58.82 152.99 59.06 154.25 58.45Q155.4 57.9 154.84 57.21" data-c-stroke="44483a"></path><path stroke="#44483a" d="M155.38 56.26Q156.01 55.95 156.54 56.06 157.15 56.17 157.03 56.78 156.99 57 157.02 57.22 157.1 57.78 157.67 57.81 159.37 57.88 160.02 58.87M158.74 59.63Q156.81 58.66 155.81 60.18M152.62 61.7Q150.7 60.65 150.14 61.97M145.83 76.78Q144.28 77.98 148.26 77.58A1.15 1.14-3.8 0 1 149.52 78.68L149.74 84.85M150.14 86.46Q153.06 86.56 152.15 89.89A.59.58 10.7 0 1 151.51 90.32L149.7 90.09A.52.52 0 0 0 149.15 90.79Q149.49 91.74 149.69 91.11" data-c-stroke="44483a"></path><path stroke="#2e2f2e" d="M149.65 91.63 149.71 98.84M149.64 100.96Q149.38 100.94 149.33 101.25 149.24 101.79 149.79 101.78L151.85 101.73Q152.48 101.72 152.42 102.35L152.37 103.04Q152.33 103.41 151.96 103.4L137.82 103.2Q137.3 103.2 137.3 103.72L137.64 126.68M158.67 130.05Q160.4 131.21 162.87 130.25M167.25 131.09Q173.05 132.36 178.65 131.16M181.76 130.32Q185.26 130.84 186.5 130.81 187.22 130.79 187.55 130.1M188.54 129.34Q191.52 130.13 192.6 129.16M195.37 128.23Q198.74 129.12 201.08 128.17M198.5 131.78Q196.73 131.16 195.77 131.93M188.15 133.69Q185.53 132.66 183.47 133.9M162.24 133.96Q160.99 132.77 158.74 133.75M133.47 131.81 127.5 131.78" data-c-stroke="2e2f2e"></path><path stroke="#44483a" d="M118.01 133.71Q116.26 133.03 115.41 133.8M111.51 134.74 95.28 134.62M93.86 133.86Q91.44 132.92 88.51 133.7M87.69 132.9Q86.47 132.13 84.17 132.81" data-c-stroke="44483a"></path><path stroke="#2e2f2e" d="M81.79 131.8Q69.61 130.82 57.72 131.7M56.52 132.73Q54.16 132.29 52.31 132.87M50.22 133.71Q47.98 133.1 46.42 133.81M22.14 130.14Q23.26 130.79 24.85 130.24M30.35 131.05Q32.31 131.86 34.5 131.84 38.64 131.81 41.6 131.24M45.58 130.21Q48.14 131.14 49.87 130.14M58.35 128.22Q61.21 129.5 63.73 128.06M70.93 127.03Q70.91 127.47 71.35 127.59 71.68 127.68 71.68 127.34L71.64 104.21" data-c-stroke="2e2f2e"></path><path stroke="#44483a" d="M71.64 104.21 71.69 103.85Q71.79 103.3 71.22 103.33 65.11 103.6 59 103.52 58.47 103.51 58.18 103.98M56.37 101.05 58.99 101.66Q59.54 101.78 59.53 101.22L59.34 92.03M41.31 79Q41.37 78.4 41.57 78.01 41.78 77.59 42.25 77.58L64.73 77.42M65.9 80.27 65.25 86.13Q65.19 86.75 65.81 86.77L71.05 86.93A.65.65 0 0 0 71.72 86.23L71.23 79.72M72.28 77.27 83.21 77.7Q83.76 77.72 83.84 77.17 83.91 76.63 83.45 76.2M84.97 72.13Q88.87 73.67 90.66 72.26" data-c-stroke="44483a"></path><path stroke="#666b5c" stroke-opacity=".996" d="M71.64 104.21Q71.16 104.27 71.4 104.02M171.79 52.17Q172.14 53.49 171.24 53.78 170.76 53.94 170.23 53.85M189.7 41.73Q189.63 41.92 189.26 41.71" data-c-stroke="666b5c" data-o-stroke=".996"></path><path stroke="#44483a" d="M102.77 6.68Q102.93 6.15 103.39 6.01 104.16 5.77 103.5 5.3 103.29 5.16 103.02 5.17 102.41 5.2 102.27 5.8 102.1 6.52 102.33 7.26A.37.36 55.3 0 0 102.97 7.38Q103.14 7.16 102.92 7.04 102.69 6.92 102.77 6.68M111.64 12.23Q111.23 12.11 110.9 12.31 109.98 12.84 111.04 12.86 111.8 12.87 112.22 13.48A.23.23 0 0 0 112.63 13.32Q112.55 12.48 111.64 12.23M104.37 34.06Q106.31 35.33 107.82 34.08M117.85 39.45Q117.19 40.45 118.12 40.73A.49.49 0 0 0 118.75 40.23L118.39 33.96A1.69 1.63 56.5 0 1 118.53 33.2Q118.93 32.31 118.53 31.44A.54.52 83.5 0 0 118.18 31.15Q117.28 30.95 117.56 32.07M94.78 34.4 94.01 39.49Q93.77 41.02 95.09 40.2 96.16 39.54 95.65 39.31M102.16 36.19Q102.17 36.57 102.75 36.53 103.53 36.49 103.64 35.86 103.73 35.27 103.14 35.31 102.74 35.34 102.3 35.56M107.52 37.96Q105.69 36.63 104.5 37.96M117.88 52.06Q117.41 52.31 117.84 52.63A.43.43 0 0 0 118.53 52.29L118.62 44.68Q118.62 44.08 118.03 44.14 117.03 44.26 117.21 44.69M188.7817 44.671A1.96 1.14-27.3 0 0 186.5171 44.557 1.96 1.14-27.3 0 0 185.2983 46.469 1.96 1.14-27.3 0 0 187.5629 46.583 1.96 1.14-27.3 0 0 188.7817 44.671M94.67 47.04Q94.5 49.65 94.3 52.25 94.28 52.51 94.42 52.64 94.7 52.93 94.86 52.56 95.17 51.83 95.77 51.27M183.22 45.21Q182.28 44.95 181.35 45.07 180.66 45.16 181.23 45.54 182.25 46.23 183.26 45.82 184.17 45.46 183.22 45.21" data-c-stroke="44483a"></path><path stroke="#2e2f2e" d="M 173.12 51.08 Q 174.75 52.30 176.57 51.14" data-c-stroke="2e2f2e"></path><path stroke="#44483a" d="M179.67 48.03Q180.07 48.37 180.3 48.26 181.84 47.48 180.15 47.16 176.8 46.54 174.17 47.77M182.88 47.6 182.46 48.08Q181.78 48.85 182.82 48.86 183.23 48.87 183.6 48.7 183.93 48.56 183.83 48.21L183.7 47.77Q183.45 46.95 182.88 47.6M167.68 50.01C167.36 50.61 166.75 50.98 166 50.99Q163.72 50.99 162.27 51.84M160.88 53.67Q160.79 53.49 160.19 53.68A.41.41 0 0 0 160.1 54.42Q161.57 55.28 162.24 54.22" data-c-stroke="44483a"></path><path stroke="#2e2f2e" d="M 162.85 54.77 Q 163.11 55.58 164.01 55.62 Q 164.88 55.67 164.77 54.97" data-c-stroke="2e2f2e"></path>
<path stroke="#44483a" d="M166.17 53.37Q167.36 53.33 167.9 51.41 168.04 50.93 168.55 50.93 169.58 50.93 170.24 50.28 170.55 49.97 170.82 50.31 171.17 50.75 171.71 50.67 172.09 50.61 171.85 50.31 171.68 50.09 171.43 50.11 170.73 50.17 170.92 49.47 171.03 49.06 170.91 48.69A.77.77 0 0 0 169.92 48.2Q169.2 48.45 169.51 49.01M158.85 52.95Q159.4 53 159.62 52.85A.31.31 0 0 0 159.59 52.32Q158.74 51.88 157.65 52.06 157.22 52.12 157.24 52.55 157.24 52.75 157.47 52.84M118.24 66.52 118.63 56.62Q118.65 56 118.05 56.1 117.2 56.25 117.37 57.08M143.28 60.21Q143.65 60.39 143.76 59.88A.46.46 0 0 0 143.29 59.32L138.87 59.55M145.43 60.95Q144.9 61.05 144.87 61.07 143.97 61.67 145.04 61.81 146.4 61.98 146.53 61.25M94.55 72.32Q106.39 73.3 118.19 72.69 118.71 72.66 118.78 72.14 118.88 71.41 118.19 71.03M94.44 86.29Q94.76 86.67 95.06 86.74A.43.43 0 0 0 95.59 86.31L95.39 77.68A.47.47 0 0 0 94.93 77.22L93 77.18Q92.46 77.17 92.22 77.67 91.96 78.23 92.72 78.31M116.71 86.09Q116.82 87.22 119.17 86.65 119.65 86.53 119.61 86.04L119.31 81.54" data-c-stroke="44483a"></path><path stroke="#2e2f2e" d="M 119.50 77.65 Q 115.96 76.62 116.68 77.98" data-c-stroke="2e2f2e"></path><path stroke="#44483a" d="M55.18 87.1Q55.03 87.97 56.34 87.86A.6.59 79.1 0 0 56.86 87.09Q56.69 86.57 56.27 86.44M49.62 81.85Q48.32 81.17 46.66 81.12A.38.37 70 0 0 46.37 81.75Q47.05 82.48 47.7 82.1M59.2 86.05Q59.74 87.35 61.42 86.84 61.78 86.73 61.89 86.37 62 86 61.86 85.64A.63.62-13.3 0 0 61.21 85.24L60.19 85.34M56.14 82.38Q56.5 80.82 54.01 81.1 52.07 81.33 53.74 82.34 53.99 82.49 54.7 82.34M62.46 83.98Q62.21 84.53 62.88 84.82A.61.61 0 0 0 63.73 84.22L63.6 82.06Q63.55 81.31 62.8 81.24 61.4 81.12 60.02 81.09 58.65 81.07 59.65 82 59.77 82.11 60.39 82.12M97.46 131.11Q104.23 132.55 110.85 131.21M115.98 130.24Q115.25 131.43 117 130.64 117.27 130.52 117.2 130.23 117.16 130.06 117.05 129.93 116.76 129.61 116.76 129.17L116.69 104.17Q116.69 103.7 116.22 103.7L92.67 103.78" data-c-stroke="44483a"></path></g><path fill="#EB6F24" d="M 101.61 1.13 Q 105.96 2.57 110.39 1.15 Q 111.67 2.02 112.60 3.57 Q 112.86 4.00 112.81 4.51 Q 112.70 5.57 113.50 6.30 A 1.03 1.03 0.0 0 1 113.81 7.30 Q 113.56 8.30 114.32 9.01 A 1.42 1.40 24.7 0 1 114.75 10.15 Q 114.63 11.44 115.59 12.34 A 0.92 0.89 -63.2 0 1 115.85 13.18 Q 115.58 14.41 116.60 15.26 Q 116.98 15.57 116.89 16.05 Q 116.74 16.86 117.44 17.32 A 0.93 0.93 0.0 0 1 117.84 18.29 Q 117.59 19.44 118.48 20.27 Q 118.97 20.71 118.83 21.35 Q 118.61 22.32 119.33 23.03 Q 119.79 23.49 119.76 24.14 Q 119.70 25.35 120.43 26.26 Q 120.77 26.67 120.90 27.17 L 121.80 30.56 L 121.69 71.48 Q 121.65 71.55 121.77 71.98 Q 120.74 72.34 122.00 72.77 Q 123.56 73.30 127.65 72.29 L 128.48 73.06 Q 128.85 73.40 128.84 73.90 L 128.77 76.58 Q 128.75 77.19 129.37 77.24 L 130.44 77.31 Q 130.79 77.78 131.16 77.77 Q 131.69 77.76 131.68 77.23 L 131.20 51.14 Q 131.03 51.52 131.10 50.36 L 138.93 50.38 L 138.85 55.56 A 0.78 0.78 0.0 0 0 139.87 56.32 L 145.51 54.46 Q 147.32 54.84 147.86 54.06 Q 147.61 53.94 148.20 53.68 Q 150.03 53.84 150.80 53.06 Q 151.42 51.97 153.00 52.08 Q 153.73 52.13 154.26 51.53 Q 154.70 51.02 155.36 51.12 Q 156.57 51.30 157.46 50.45 A 1.34 1.33 -63.2 0 1 158.55 50.09 Q 160.20 50.31 161.43 49.41 Q 161.98 49.00 162.67 49.08 Q 163.57 49.18 164.15 48.50 Q 164.69 47.87 165.51 48.02 Q 166.59 48.23 167.26 47.40 A 1.11 1.09 25.3 0 1 168.38 47.01 Q 169.54 47.27 170.30 46.40 A 1.15 1.14 24.6 0 1 171.33 46.02 Q 172.52 46.19 173.49 45.46 A 1.43 1.38 -61.0 0 1 174.45 45.17 Q 176.32 45.28 177.51 44.28 Q 178.91 44.86 180.24 44.77 Q 180.74 44.74 180.68 44.05 Q 181.04 43.57 181.53 43.33 Q 183.92 44.38 184.57 43.14 L 185.51 42.26 Q 188.18 43.24 189.70 41.73 Q 190.91 41.52 192.25 41.54 Q 193.32 41.56 193.47 41.10 L 194.25 40.54 Q 196.77 40.96 197.60 40.24 Q 198.03 39.41 198.70 39.11 A 0.92 0.92 0.0 0 1 199.97 40.21 Q 199.55 41.62 200.75 42.52 A 0.52 0.51 29.2 0 1 200.93 43.13 Q 200.62 43.97 199.73 43.84 Q 198.63 43.68 197.84 44.48 Q 197.45 44.87 196.92 45.02 Q 194.79 45.62 193.38 46.72 Q 193.00 47.01 192.54 46.86 Q 191.78 46.62 191.23 47.16 Q 190.98 47.40 190.67 47.55 L 185.85 49.77 A 0.54 0.51 34.0 0 1 185.55 49.82 Q 184.73 49.74 184.12 50.25 Q 183.84 50.48 183.51 50.63 L 179.07 52.73 A 1.21 1.06 30.3 0 1 178.55 52.83 Q 177.23 52.75 176.59 53.74 Q 176.00 53.06 173.24 54.08 Q 172.31 54.43 172.08 53.46 L 171.79 52.17 Q 169.36 51.35 168.32 53.44 Q 168.04 53.98 168.65 53.94 L 170.23 53.85 Q 171.17 54.00 171.69 54.92 Q 171.21 55.03 170.80 55.47 Q 169.33 54.72 168.30 55.91 C 167.05 57.83 165.60 56.13 164.38 57.79 Q 163.37 57.10 162.09 57.84 Q 160.21 58.91 159.30 57.17 Q 161.46 55.70 157.79 56.39 Q 156.10 54.55 154.43 55.54 Q 152.28 54.07 150.91 56.18 Q 148.84 56.17 148.26 58.00 A 0.71 0.70 -83.3 0 0 148.98 58.92 C 150.46 58.82 152.99 59.06 154.25 58.45 Q 155.40 57.90 154.84 57.21 Q 155.18 56.81 155.38 56.26 Q 156.01 55.95 156.54 56.06 Q 157.15 56.17 157.03 56.78 Q 156.99 57.00 157.02 57.22 Q 157.10 57.78 157.67 57.81 Q 159.37 57.88 160.02 58.87 Q 159.15 58.93 158.74 59.63 Q 156.81 58.66 155.81 60.18 Q 155.63 60.66 155.36 60.87 Q 155.15 61.03 154.62 60.92 Q 153.33 60.67 152.62 61.70 Q 150.70 60.65 150.14 61.97 Q 149.42 62.97 147.98 62.95 Q 147.42 62.94 146.98 63.30 Q 146.27 63.89 145.35 63.96 Q 144.89 64.00 144.45 64.15 L 139.50 65.84 Q 138.92 66.04 138.89 66.66 L 138.81 68.26 Q 138.78 69.00 139.51 69.00 L 145.31 68.99 Q 145.93 68.99 145.93 69.61 L 145.83 76.78 Q 144.28 77.98 148.26 77.58 A 1.15 1.14 -3.8 0 1 149.52 78.68 L 149.74 84.85 Q 149.55 86.20 150.14 86.46 Q 153.06 86.56 152.15 89.89 A 0.59 0.58 10.7 0 1 151.51 90.32 L 149.70 90.09 A 0.52 0.52 0.0 0 0 149.15 90.79 Q 149.49 91.74 149.69 91.11 L 149.65 91.63 L 149.71 98.84 L 149.64 100.96 Q 149.38 100.94 149.33 101.25 Q 149.24 101.79 149.79 101.78 L 151.85 101.73 Q 152.48 101.72 152.42 102.35 L 152.37 103.04 Q 152.33 103.41 151.96 103.40 L 137.82 103.20 Q 137.30 103.20 137.30 103.72 L 137.64 126.68 Q 137.57 127.32 139.48 127.79 Q 140.33 128.01 141.54 128.00 Q 146.24 127.97 150.90 128.26 A 1.64 1.61 65.2 0 1 151.80 128.60 Q 152.43 129.10 153.24 129.07 Q 156.41 128.94 158.67 130.05 Q 160.40 131.21 162.87 130.25 L 167.25 131.09 Q 173.05 132.36 178.65 131.16 L 181.76 130.32 Q 185.26 130.84 186.50 130.81 Q 187.22 130.79 187.55 130.10 Q 187.89 129.63 188.54 129.34 Q 191.52 130.13 192.60 129.16 Q 193.75 128.11 195.37 128.23 Q 198.74 129.12 201.08 128.17 L 206.71 127.98 Q 207.91 127.95 207.78 129.13 Q 207.69 129.99 207.43 130.74 Q 207.05 131.85 205.89 131.84 L 198.50 131.78 Q 196.73 131.16 195.77 131.93 Q 194.51 131.79 193.80 132.44 Q 193.44 132.77 192.95 132.76 Q 190.18 132.69 188.15 133.69 Q 185.53 132.66 183.47 133.90 Q 182.53 133.93 181.77 134.41 A 1.97 1.94 -62.3 0 1 180.86 134.70 Q 174.05 135.06 167.25 134.81 Q 164.60 134.71 162.24 133.96 Q 160.99 132.77 158.74 133.75 Q 155.28 133.05 151.75 132.45 Q 148.39 131.89 144.69 131.85 Q 139.07 131.80 133.47 131.81 L 127.50 131.78 Q 124.39 132.98 120.82 133.02 A 1.30 1.28 -65.5 0 0 119.96 133.35 Q 119.09 134.12 118.01 133.71 Q 116.26 133.03 115.41 133.80 Q 113.34 134.72 111.51 134.74 L 95.28 134.62 Q 94.71 134.01 93.86 133.86 Q 91.44 132.92 88.51 133.70 Q 88.05 133.52 87.69 132.90 Q 86.47 132.13 84.17 132.81 L 81.79 131.80 Q 69.61 130.82 57.72 131.70 L 56.52 132.73 Q 54.16 132.29 52.31 132.87 Q 51.53 134.21 50.22 133.71 Q 47.98 133.10 46.42 133.81 Q 45.49 133.97 44.66 134.44 Q 44.25 134.68 43.77 134.71 Q 32.91 135.39 21.42 133.73 C 19.47 133.45 17.79 132.70 15.84 132.79 C 14.58 132.84 13.83 132.04 12.65 131.97 Q 7.70 131.68 1.95 131.88 A 0.81 0.81 0.0 0 1 1.11 131.10 L 1.04 128.71 A 0.74 0.74 0.0 0 1 1.80 127.95 L 13.80 128.17 A 1.03 0.97 61.5 0 1 14.32 128.34 Q 14.64 128.57 14.98 128.77 Q 15.17 128.88 15.38 128.90 Q 18.88 129.21 22.14 130.14 Q 23.26 130.79 24.85 130.24 L 30.35 131.05 Q 32.31 131.86 34.50 131.84 Q 38.64 131.81 41.60 131.24 L 45.58 130.21 Q 48.14 131.14 49.87 130.14 Q 52.13 128.99 54.98 128.98 Q 55.47 128.98 55.90 128.73 Q 57.11 128.02 58.35 128.22 Q 61.21 129.50 63.73 128.06 C 65.68 128.01 69.58 128.56 70.93 127.03 Q 70.91 127.47 71.35 127.59 Q 71.68 127.68 71.68 127.34 L 71.64 104.21 L 71.69 103.85 Q 71.79 103.30 71.22 103.33 Q 65.11 103.60 59.00 103.52 Q 58.47 103.51 58.18 103.98 L 56.81 103.98 Q 56.28 103.99 56.10 103.49 Q 55.65 102.25 56.37 101.05 L 58.99 101.66 Q 59.54 101.78 59.53 101.22 L 59.34 92.03 Q 59.45 91.68 59.30 91.37 Q 59.15 91.06 58.81 91.01 Q 58.27 90.93 58.03 91.43 Q 57.75 92.03 57.32 91.52 Q 56.80 90.91 56.03 90.79 Q 55.46 90.70 55.06 90.28 C 54.53 89.70 54.15 89.17 53.35 88.93 C 51.95 88.51 51.21 87.41 49.90 86.73 Q 46.17 84.80 42.57 81.96 Q 42.29 81.75 41.83 81.76 Q 41.29 81.77 41.20 81.23 Q 41.00 80.06 41.31 79.00 Q 41.37 78.40 41.57 78.01 Q 41.78 77.59 42.25 77.58 L 64.73 77.42 Q 66.48 78.39 65.90 80.27 L 65.25 86.13 Q 65.19 86.75 65.81 86.77 L 71.05 86.93 A 0.65 0.65 0.0 0 0 71.72 86.23 L 71.23 79.72 Q 70.73 78.75 72.28 77.27 L 83.21 77.70 Q 83.76 77.72 83.84 77.17 Q 83.91 76.63 83.45 76.20 Q 82.70 72.66 84.97 72.13 Q 88.87 73.67 90.66 72.26 Q 90.05 66.23 90.51 61.00 C 90.57 60.30 91.00 59.79 91.00 58.93 Q 91.00 43.31 91.00 28.44 Q 91.00 27.94 91.34 27.56 Q 92.22 26.58 92.21 25.17 Q 92.21 24.53 92.63 24.05 Q 93.25 23.34 93.06 22.36 A 0.96 0.94 64.3 0 1 93.37 21.45 Q 94.31 20.63 94.07 19.36 Q 93.97 18.82 94.37 18.45 Q 95.24 17.66 95.23 16.48 Q 95.23 16.00 95.47 15.57 Q 96.79 13.24 97.26 10.94 A 1.91 1.85 70.7 0 1 97.64 10.12 Q 98.29 9.27 98.05 8.25 A 0.85 0.85 0.0 0 1 98.33 7.42 Q 99.31 6.61 99.15 5.27 Q 99.08 4.72 99.52 4.40 Q 100.10 3.97 100.12 3.25 Q 100.14 2.75 100.42 2.33 Q 100.96 1.54 101.61 1.13 Z M 102.77 6.68 Q 102.93 6.15 103.39 6.01 Q 104.16 5.77 103.50 5.30 Q 103.29 5.16 103.02 5.17 Q 102.41 5.20 102.27 5.80 Q 102.10 6.52 102.33 7.26 A 0.37 0.36 55.3 0 0 102.97 7.38 Q 103.14 7.16 102.92 7.04 Q 102.69 6.92 102.77 6.68 Z M 108.73 5.99 A 0.60 0.60 0.0 0 0 108.76 6.89 Q 109.69 7.63 109.89 6.43 A 0.55 0.54 -66.7 0 0 109.70 5.94 Q 109.22 5.53 108.73 5.99 Z M 108.24 11.03 Q 108.77 11.14 109.27 11.03 Q 111.17 10.61 109.32 10.00 Q 107.80 9.50 106.88 8.19 A 0.97 0.97 0.0 0 0 105.43 8.03 L 102.87 10.37 Q 102.10 11.07 103.13 10.96 Q 105.13 10.76 106.24 11.77 A 0.47 0.47 0.0 0 0 106.90 11.73 L 107.23 11.37 A 1.08 1.07 -63.4 0 1 108.24 11.03 Z M 111.64 12.23 Q 111.23 12.11 110.90 12.31 Q 109.98 12.84 111.04 12.86 Q 111.80 12.87 112.22 13.48 A 0.23 0.23 0.0 0 0 112.63 13.32 Q 112.55 12.48 111.64 12.23 Z M 101.5842 13.3739 A 0.76 0.55 7.1 0 0 100.8980 12.7342 A 0.76 0.55 7.1 0 0 100.0758 13.1861 A 0.76 0.55 7.1 0 0 100.7620 13.8258 A 0.76 0.55 7.1 0 0 101.5842 13.3739 Z M 109.16 15.53 C 107.97 14.50 105.27 14.47 103.86 15.33 Q 102.79 15.98 101.25 15.91 Q 100.99 15.89 100.82 16.09 Q 100.36 16.64 101.05 16.86 L 102.25 17.23 A 1.72 1.68 79.4 0 1 103.09 17.82 C 104.22 19.29 106.64 19.93 108.18 18.60 Q 109.58 17.38 111.35 16.69 Q 112.08 16.40 111.38 16.04 Q 110.79 15.74 110.09 15.82 Q 109.56 15.88 109.16 15.53 Z M 97.63 21.51 L 97.30 21.91 Q 96.96 22.32 96.91 22.85 Q 96.76 24.37 95.86 25.64 Q 95.25 26.48 96.21 26.08 Q 97.12 25.69 97.77 24.89 Q 98.18 24.39 98.80 24.20 Q 100.17 23.78 101.12 22.61 Q 101.43 22.24 101.92 22.18 Q 102.48 22.11 103.01 21.87 Q 103.86 21.48 103.06 21.00 L 99.04 18.56 Q 98.41 18.18 98.13 18.87 Q 97.78 19.75 97.89 20.63 Q 97.95 21.13 97.63 21.51 Z M 113.82 18.63 A 0.35 0.35 0.0 0 0 113.31 18.45 L 108.97 21.04 A 0.35 0.35 0.0 0 0 108.98 21.65 L 115.69 25.41 A 0.35 0.35 0.0 0 0 116.19 24.98 L 113.82 18.63 Z M 104.37 34.06 Q 106.31 35.33 107.82 34.08 L 116.44 29.74 Q 117.05 29.43 116.47 29.08 L 106.58 23.02 Q 106.19 22.78 105.81 23.02 L 95.87 29.18 Q 95.38 29.49 95.90 29.75 L 104.37 34.06 Z M 117.56 32.07 L 111.07 35.17 A 0.90 0.89 -47.1 0 0 111.13 36.81 L 117.85 39.45 Q 117.19 40.45 118.12 40.73 A 0.49 0.49 0.0 0 0 118.75 40.23 L 118.39 33.96 A 1.69 1.63 56.5 0 1 118.53 33.20 Q 118.93 32.31 118.53 31.44 A 0.54 0.52 83.5 0 0 118.18 31.15 Q 117.28 30.95 117.56 32.07 Z M 94.78 34.40 L 94.01 39.49 Q 93.77 41.02 95.09 40.20 Q 96.16 39.54 95.65 39.31 L 102.16 36.19 Q 102.17 36.57 102.75 36.53 Q 103.53 36.49 103.64 35.86 Q 103.73 35.27 103.14 35.31 Q 102.74 35.34 102.30 35.56 L 95.03 32.13 Q 94.39 31.83 94.50 32.53 L 94.78 34.40 Z M 104.50 37.96 L 96.99 41.62 Q 95.84 42.18 96.98 42.74 Q 100.20 44.32 103.62 45.66 C 105.20 46.28 107.05 46.59 108.66 45.80 Q 111.02 44.64 113.40 43.42 Q 113.96 43.14 114.59 43.08 L 115.71 42.97 Q 116.50 42.90 116.01 42.28 Q 115.01 41.05 114.22 40.80 Q 110.63 39.67 107.52 37.96 Q 105.69 36.63 104.50 37.96 Z M 193.4317 43.3587 A 0.79 0.48 -24.0 0 0 192.5148 43.2415 A 0.79 0.48 -24.0 0 0 191.9883 44.0013 A 0.79 0.48 -24.0 0 0 192.9052 44.1185 A 0.79 0.48 -24.0 0 0 193.4317 43.3587 Z M 117.21 44.69 L 113.22 46.78 Q 112.78 47.01 112.30 46.95 Q 110.91 46.77 110.59 48.15 Q 110.48 48.66 110.95 48.87 L 117.88 52.06 Q 117.41 52.31 117.84 52.63 A 0.43 0.43 0.0 0 0 118.53 52.29 L 118.62 44.68 Q 118.62 44.08 118.03 44.14 Q 117.03 44.26 117.21 44.69 Z M 188.7817 44.6710 A 1.96 1.14 -27.3 0 0 186.5171 44.5570 A 1.96 1.14 -27.3 0 0 185.2983 46.4690 A 1.96 1.14 -27.3 0 0 187.5629 46.5830 A 1.96 1.14 -27.3 0 0 188.7817 44.6710 Z M 94.67 47.04 Q 94.50 49.65 94.30 52.25 Q 94.28 52.51 94.42 52.64 Q 94.70 52.93 94.86 52.56 Q 95.17 51.83 95.77 51.27 Q 96.73 51.03 97.61 50.34 Q 98.03 50.03 98.54 50.09 Q 99.63 50.21 100.29 49.38 Q 100.57 49.02 101.03 49.02 Q 101.51 49.01 101.95 48.85 Q 102.78 48.54 102.05 48.04 Q 99.31 46.15 96.56 45.67 A 1.22 1.17 69.9 0 1 95.99 45.39 L 95.53 44.95 Q 94.74 44.21 94.71 45.28 L 94.67 47.04 Z M 183.22 45.21 Q 182.28 44.95 181.35 45.07 Q 180.66 45.16 181.23 45.54 Q 182.25 46.23 183.26 45.82 Q 184.17 45.46 183.22 45.21 Z M 174.17 47.77 L 172.65 49.80 Q 172.35 50.20 172.63 50.61 Q 172.81 50.86 173.12 51.08 Q 174.75 52.30 176.57 51.14 L 179.67 48.03 Q 180.07 48.37 180.30 48.26 Q 181.84 47.48 180.15 47.16 Q 176.80 46.54 174.17 47.77 Z M 182.88 47.60 L 182.46 48.08 Q 181.78 48.85 182.82 48.86 Q 183.23 48.87 183.60 48.70 Q 183.93 48.56 183.83 48.21 L 183.70 47.77 Q 183.45 46.95 182.88 47.60 Z M 169.51 49.01 Q 167.40 49.34 167.68 50.01 C 167.36 50.61 166.75 50.98 166.00 50.99 Q 163.72 50.99 162.27 51.84 Q 161.79 52.83 160.88 53.67 Q 160.79 53.49 160.19 53.68 A 0.41 0.41 0.0 0 0 160.10 54.42 Q 161.57 55.28 162.24 54.22 Q 162.66 54.37 162.85 54.77 Q 163.11 55.58 164.01 55.62 Q 164.88 55.67 164.77 54.97 L 166.17 53.37 Q 167.36 53.33 167.90 51.41 Q 168.04 50.93 168.55 50.93 Q 169.58 50.93 170.24 50.28 Q 170.55 49.97 170.82 50.31 Q 171.17 50.75 171.71 50.67 Q 172.09 50.61 171.85 50.31 Q 171.68 50.09 171.43 50.11 Q 170.73 50.17 170.92 49.47 Q 171.03 49.06 170.91 48.69 A 0.77 0.77 0.0 0 0 169.92 48.20 Q 169.20 48.45 169.51 49.01 Z M 116.31 54.68 A 0.34 0.34 0.0 0 0 116.28 54.07 L 106.45 49.79 A 0.34 0.34 0.0 0 0 106.19 49.79 L 96.04 54.03 A 0.34 0.34 0.0 0 0 96.01 54.65 L 106.14 60.03 A 0.34 0.34 0.0 0 0 106.46 60.03 L 116.31 54.68 Z M 157.47 52.84 Q 156.93 53.00 156.89 53.04 Q 155.98 53.78 157.15 53.89 Q 158.20 53.98 158.85 52.95 Q 159.40 53.00 159.62 52.85 A 0.31 0.31 0.0 0 0 159.59 52.32 Q 158.74 51.88 157.65 52.06 Q 157.22 52.12 157.24 52.55 Q 157.24 52.75 157.47 52.84 Z M 117.37 57.08 L 109.85 61.02 Q 108.95 61.49 109.84 61.97 L 118.24 66.52 L 118.63 56.62 Q 118.65 56.00 118.05 56.10 Q 117.20 56.25 117.37 57.08 Z M 143.93 57.30 Q 143.45 57.49 143.93 57.68 Q 145.69 58.41 146.94 57.04 Q 147.58 56.35 146.65 56.52 Q 145.29 56.76 143.93 57.30 Z M 100.88 60.28 Q 99.36 59.34 97.65 58.74 Q 97.31 58.62 97.08 58.35 Q 96.32 57.45 95.30 56.92 Q 94.50 56.51 94.60 57.40 Q 95.05 61.50 94.66 65.64 Q 94.58 66.49 95.33 66.07 L 102.99 61.78 Q 103.87 61.29 102.88 61.09 C 102.11 60.93 101.55 60.69 100.88 60.28 Z M 138.87 59.55 L 138.85 62.09 Q 138.84 64.57 140.35 62.61 L 141.04 61.71 Q 141.33 61.34 141.81 61.27 Q 142.74 61.13 143.28 60.21 Q 143.65 60.39 143.76 59.88 A 0.46 0.46 0.0 0 0 143.29 59.32 L 138.87 59.55 Z M 145.43 60.95 Q 144.90 61.05 144.87 61.07 Q 143.97 61.67 145.04 61.81 Q 146.40 61.98 146.53 61.25 L 147.96 60.76 Q 148.59 60.54 147.98 60.28 Q 146.51 59.65 145.43 60.95 Z M 94.55 72.32 Q 106.39 73.30 118.19 72.69 Q 118.71 72.66 118.78 72.14 Q 118.88 71.41 118.19 71.03 L 118.07 69.78 Q 118.02 69.33 117.61 69.12 Q 113.20 66.90 108.88 64.69 Q 107.81 64.15 106.89 63.31 Q 106.52 62.97 106.08 63.21 Q 101.03 65.94 95.74 68.46 Q 94.54 69.03 94.55 72.32 Z M 92.72 78.31 L 92.80 85.79 Q 92.81 86.30 93.31 86.36 Q 93.85 86.42 94.44 86.29 Q 94.76 86.67 95.06 86.74 A 0.43 0.43 0.0 0 0 95.59 86.31 L 95.39 77.68 A 0.47 0.47 0.0 0 0 94.93 77.22 L 93.00 77.18 Q 92.46 77.17 92.22 77.67 Q 91.96 78.23 92.72 78.31 Z M 116.68 77.98 L 116.71 86.09 Q 116.82 87.22 119.17 86.65 Q 119.65 86.53 119.61 86.04 L 119.31 81.54 L 119.50 77.65 Q 115.96 76.62 116.68 77.98 Z M 47.70 82.10 Q 47.64 82.35 47.83 82.58 Q 48.01 82.79 48.29 82.85 Q 49.81 83.15 50.73 84.32 Q 51.16 84.87 51.83 85.07 Q 53.23 85.48 54.19 86.68 Q 54.44 86.99 54.84 87.05 L 55.18 87.10 Q 55.03 87.97 56.34 87.86 A 0.60 0.59 79.1 0 0 56.86 87.09 Q 56.69 86.57 56.27 86.44 Q 54.48 85.81 53.17 84.55 A 2.48 2.36 75.4 0 0 52.33 84.03 Q 50.69 83.41 49.62 81.85 Q 48.32 81.17 46.66 81.12 A 0.38 0.37 70.0 0 0 46.37 81.75 Q 47.05 82.48 47.70 82.10 Z M 54.70 82.34 C 56.14 84.12 58.02 84.07 59.20 86.05 Q 59.74 87.35 61.42 86.84 Q 61.78 86.73 61.89 86.37 Q 62.00 86.00 61.86 85.64 A 0.63 0.62 -13.3 0 0 61.21 85.24 L 60.19 85.34 Q 58.19 83.33 56.14 82.38 Q 56.50 80.82 54.01 81.10 Q 52.07 81.33 53.74 82.34 Q 53.99 82.49 54.70 82.34 Z M 60.39 82.12 L 62.46 83.98 Q 62.21 84.53 62.88 84.82 A 0.61 0.61 0.0 0 0 63.73 84.22 L 63.60 82.06 Q 63.55 81.31 62.80 81.24 Q 61.40 81.12 60.02 81.09 Q 58.65 81.07 59.65 82.00 Q 59.77 82.11 60.39 82.12 Z M 92.67 103.78 Q 93.06 116.78 92.80 128.68 Q 92.78 129.55 92.30 130.09 Q 91.88 130.55 92.49 130.46 L 94.40 130.18 Q 94.91 130.11 95.35 130.39 Q 96.36 131.05 97.46 131.11 Q 104.23 132.55 110.85 131.21 Q 113.13 129.90 115.98 130.24 Q 115.25 131.43 117.00 130.64 Q 117.27 130.52 117.20 130.23 Q 117.16 130.06 117.05 129.93 Q 116.76 129.61 116.76 129.17 L 116.69 104.17 Q 116.69 103.70 116.22 103.70 L 92.67 103.78 Z" data-c-fill="0d0d0d"></path>
<path fill="#EB6F24" fill-opacity=".996" d="M101.61 1.13 110.39 1.15Q105.96 2.57 101.61 1.13ZM102.92 7.04Q103.14 7.16 102.97 7.38A.37.36 55.3 0 1 102.33 7.26Q102.1 6.52 102.27 5.8 102.41 5.2 103.02 5.17 103.29 5.16 103.5 5.3 104.16 5.77 103.39 6.01 102.93 6.15 102.77 6.68 102.69 6.92 102.92 7.04ZM111.64 12.23Q112.55 12.48 112.63 13.32A.23.23 0 0 1 112.22 13.48Q111.8 12.87 111.04 12.86 109.98 12.84 110.9 12.31 111.23 12.11 111.64 12.23ZM121.8 30.56 121.69 71.48 121.8 30.56ZM117.85 39.45 118.04 32.44Q118.05 32.17 117.83 32.01 117.67 31.88 117.56 32.07 117.28 30.95 118.18 31.15A.54.52 83.5 0 1 118.53 31.44Q118.93 32.31 118.53 33.2A1.69 1.63 56.5 0 0 118.39 33.96L118.75 40.23A.49.49 0 0 1 118.12 40.73Q117.19 40.45 117.85 39.45ZM104.37 34.06 107.82 34.08Q106.31 35.33 104.37 34.06ZM94.78 34.4Q94.16 39.22 95.65 39.31 96.16 39.54 95.09 40.2 93.77 41.02 94.01 39.49L94.78 34.4ZM102.16 36.19Q102.48 35.78 102.3 35.56 102.74 35.34 103.14 35.31 103.73 35.27 103.64 35.86 103.53 36.49 102.75 36.53 102.17 36.57 102.16 36.19ZM107.52 37.96 104.5 37.96Q105.69 36.63 107.52 37.96Z" data-c-fill="7c8468" data-o-fill=".996"></path><path fill="#EB6F24" fill-opacity=".996" d="M 197.60 40.24 Q 196.77 40.96 194.25 40.54 Q 195.31 39.54 197.60 40.24 Z" data-c-fill="50524f" data-o-fill=".996"></path><path fill="#EB6F24" fill-opacity=".996" d="M 193.47 41.10 Q 193.32 41.56 192.25 41.54 Q 190.91 41.52 189.70 41.73 Q 189.63 41.92 189.26 41.71 Q 190.91 40.67 193.47 41.10 Z" data-c-fill="7c8468" data-o-fill=".996"></path><path fill="#EB6F24" fill-opacity=".996" d="M189.26 41.71Q189.63 41.92 189.7 41.73 188.18 43.24 185.51 42.26L189.26 41.71ZM184.57 43.14Q183.92 44.38 181.53 43.33 182.95 42.88 184.57 43.14ZM180.68 44.05Q180.74 44.74 180.24 44.77 178.91 44.86 177.51 44.28 178.99 43.91 180.68 44.05Z" data-c-fill="50524f" data-o-fill=".996"></path><path fill="#EB6F24" fill-opacity=".996" d="M 117.88 52.06 L 117.89 45.57 Q 117.89 45.15 117.54 44.92 L 117.21 44.69 Q 117.03 44.26 118.03 44.14 Q 118.62 44.08 118.62 44.68 L 118.53 52.29 A 0.43 0.43 0.0 0 1 117.84 52.63 Q 117.41 52.31 117.88 52.06 Z" data-c-fill="7c8468" data-o-fill=".996"></path><ellipse fill="#EB6F24" fill-opacity=".996" cx="0" cy="0" transform="rotate(-27.3 187.344 -362.31)" rx="1.96" ry="1.14" data-c-fill="7c8468" data-o-fill=".996"></ellipse>
<path fill="#EB6F24" fill-opacity=".996" d="M183.22 45.21Q184.17 45.46 183.26 45.82 182.25 46.23 181.23 45.54 180.66 45.16 181.35 45.07 182.28 44.95 183.22 45.21ZM94.67 47.04 94.67 50.73Q94.67 51.27 95.22 51.27L95.77 51.27Q95.17 51.83 94.86 52.56 94.7 52.93 94.42 52.64 94.28 52.51 94.3 52.25 94.5 49.65 94.67 47.04ZM179.67 48.03 174.17 47.77Q176.8 46.54 180.15 47.16 181.84 47.48 180.3 48.26 180.07 48.37 179.67 48.03ZM182.88 47.6Q183.45 46.95 183.7 47.77L183.83 48.21Q183.93 48.56 183.6 48.7 183.23 48.87 182.82 48.86 181.78 48.85 182.46 48.08L182.88 47.6ZM166.17 53.37 166.52 52.65Q166.77 52.13 166.19 52.09L162.27 51.84Q163.72 50.99 166 50.99C166.75 50.98 167.36 50.61 167.68 50.01Q171.21 50.14 169.51 49.01 169.2 48.45 169.92 48.2A.77.77 0 0 1 170.91 48.69Q171.03 49.06 170.92 49.47 170.73 50.17 171.43 50.11 171.68 50.09 171.85 50.31 172.09 50.61 171.71 50.67 171.17 50.75 170.82 50.31 170.55 49.97 170.24 50.28 169.58 50.93 168.55 50.93 168.04 50.93 167.9 51.41 167.36 53.33 166.17 53.37ZM138.93 50.38 131.1 50.36Q135.07 49.44 138.93 50.38Z" data-c-fill="7c8468" data-o-fill=".996"></path><path fill="#EB6F24" fill-opacity=".996" d="M 173.12 51.08 L 176.57 51.14 Q 174.75 52.30 173.12 51.08 Z" data-c-fill="50524f" data-o-fill=".996"></path><path fill="#EB6F24" fill-opacity=".996" d="M131.2 51.14 131.68 77.23Q131.69 77.76 131.16 77.77 130.79 77.78 130.44 77.31 130.98 77.13 130.98 76.75 130.86 64.02 131.2 51.14ZM158.85 52.95Q158.23 52.58 157.47 52.84 157.24 52.75 157.24 52.55 157.22 52.12 157.65 52.06 158.74 51.88 159.59 52.32A.31.31 0 0 1 159.62 52.85Q159.4 53 158.85 52.95ZM171.79 52.17Q172.14 53.49 171.24 53.78 170.76 53.94 170.23 53.85L168.65 53.94Q168.04 53.98 168.32 53.44 169.36 51.35 171.79 52.17Z" data-c-fill="7c8468" data-o-fill=".996"></path><path fill="#EB6F24" fill-opacity=".996" d="M171.79 52.17 172.08 53.46Q172.31 54.43 173.24 54.08 176 53.06 176.59 53.74 175.97 54.01 175.02 54.02 174.53 54.02 174.15 54.34 173.05 55.27 171.69 54.92 171.17 54 170.23 53.85 170.76 53.94 171.24 53.78 172.14 53.49 171.79 52.17ZM150.8 53.06Q150.03 53.84 148.2 53.68 148.96 52.86 150.8 53.06Z" data-c-fill="50524f" data-o-fill=".996"></path><path fill="#EB6F24" fill-opacity=".996" d="M160.88 53.67Q161.34 54.1 162.24 54.22 161.57 55.28 160.1 54.42A.41.41 0 0 1 160.19 53.68Q160.79 53.49 160.88 53.67ZM147.86 54.06Q147.32 54.84 145.51 54.46 145.88 53.79 147.86 54.06Z" data-c-fill="7c8468" data-o-fill=".996"></path>
<path fill="#EB6F24" fill-opacity=".996" d="M 162.85 54.77 Q 163.83 55.16 164.77 54.97 Q 164.88 55.67 164.01 55.62 Q 163.11 55.58 162.85 54.77 Z" data-c-fill="50524f" data-o-fill=".996"></path><path fill="#EB6F24" fill-opacity=".996" d="M157.79 56.39Q158.16 57.14 159.3 57.17 160.21 58.91 162.09 57.84 163.37 57.1 164.38 57.79L162.76 58.03Q162.28 58.1 161.96 58.45 161.18 59.33 160.02 58.87 159.37 57.88 157.67 57.81 157.1 57.78 157.02 57.22 156.99 57 157.03 56.78 157.15 56.17 156.54 56.06 156.01 55.95 155.38 56.26 154.71 55.89 154.43 55.54 156.1 54.55 157.79 56.39ZM170.8 55.47Q170.47 56.23 168.3 55.91 169.33 54.72 170.8 55.47ZM118.24 66.52Q117.83 61.85 118.06 57.78 118.08 57.47 117.96 57.26 117.66 56.77 117.37 57.08 117.2 56.25 118.05 56.1 118.65 56 118.63 56.62L118.24 66.52ZM150.91 56.18Q150.1 56.72 149.86 57.18 149.59 57.7 150.16 57.86 152.82 58.58 154.84 57.21 155.4 57.9 154.25 58.45C152.99 59.06 150.46 58.82 148.98 58.92A.71.7-83.3 0 1 148.26 58Q148.84 56.17 150.91 56.18ZM143.28 60.21 138.87 59.55 143.29 59.32A.46.46 0 0 1 143.76 59.88Q143.65 60.39 143.28 60.21ZM158.74 59.63 155.81 60.18Q156.81 58.66 158.74 59.63ZM145.43 60.95Q145.83 61.37 146.53 61.25 146.4 61.98 145.04 61.81 143.97 61.67 144.87 61.07 144.9 61.05 145.43 60.95ZM152.62 61.7Q151.59 62.12 150.14 61.97 150.7 60.65 152.62 61.7ZM118.19 71.03Q118.88 71.41 118.78 72.14 118.71 72.66 118.19 72.69 106.39 73.3 94.55 72.32L117.68 71.92Q118.18 71.91 118.26 71.42 118.28 71.23 118.19 71.03ZM84.97 72.13Q88.08 71.72 90.66 72.26 88.87 73.67 84.97 72.13ZM121.77 71.98 127.65 72.29Q123.56 73.3 122 72.77 120.74 72.34 121.77 71.98ZM83.45 76.2Q83.91 76.63 83.84 77.17 83.76 77.72 83.21 77.7L72.28 77.27 82.65 76.99Q83.13 76.97 83.31 76.54L83.45 76.2ZM145.83 76.78Q146.73 77.38 148.27 76.94 150.03 76.43 149.97 78.27L149.74 84.85 149.52 78.68A1.15 1.14-3.8 0 0 148.26 77.58Q144.28 77.98 145.83 76.78ZM64.73 77.42 42.25 77.58Q41.78 77.59 41.57 78.01 41.37 78.4 41.31 79 40.96 78.28 41.28 77.46 41.46 76.99 41.96 76.99 53.01 76.99 64.07 77 64.27 77 64.43 77.11 64.6 77.23 64.73 77.42ZM94.44 86.29Q95.17 86.18 95.14 85.62 94.99 81.46 95.28 78.67 95.33 78.17 94.87 77.95 93.83 77.46 92.72 78.31 91.96 78.23 92.22 77.67 92.46 77.17 93 77.18L94.93 77.22A.47.47 0 0 1 95.39 77.68L95.59 86.31A.43.43 0 0 1 95.06 86.74Q94.76 86.67 94.44 86.29Z" data-c-fill="7c8468" data-o-fill=".996"></path>
<path fill="#EB6F24" fill-opacity=".996" d="M 119.50 77.65 L 116.68 77.98 Q 115.96 76.62 119.50 77.65 Z" data-c-fill="50524f" data-o-fill=".996"></path><path fill="#EB6F24" fill-opacity=".996" d="M71.23 79.72 71.72 86.23A.65.65 0 0 1 71.05 86.93L65.81 86.77Q65.19 86.75 65.25 86.13L65.9 80.27 65.96 85.78A.34.34 0 0 0 66.31 86.12L70.95 85.98Q71.25 85.97 71.25 85.67L71.23 79.72ZM49.62 81.85 47.7 82.1Q47.05 82.48 46.37 81.75A.38.37 70 0 1 46.66 81.12Q48.32 81.17 49.62 81.85ZM56.14 82.38Q55.34 81.76 54.7 82.34 53.99 82.49 53.74 82.34 52.07 81.33 54.01 81.1 56.5 80.82 56.14 82.38ZM62.46 83.98Q62.97 83.94 63.19 83.49A1.08 1.07-72.4 0 0 62.4 81.96Q61.65 81.84 60.39 82.12 59.77 82.11 59.65 82 58.65 81.07 60.02 81.09 61.4 81.12 62.8 81.24 63.55 81.31 63.6 82.06L63.73 84.22A.61.61 0 0 1 62.88 84.82Q62.21 84.53 62.46 83.98ZM119.31 81.54 119.61 86.04Q119.65 86.53 119.17 86.65 116.82 87.22 116.71 86.09 118.17 86.49 118.92 85.95 119.33 85.66 119.33 85.15L119.31 81.54ZM60.19 85.34 61.21 85.24A.63.62-13.3 0 1 61.86 85.64Q62 86 61.89 86.37 61.78 86.73 61.42 86.84 59.74 87.35 59.2 86.05 60.11 85.81 60.19 85.34ZM149.69 91.11Q149.49 91.74 149.15 90.79A.52.52 0 0 1 149.7 90.09L151.51 90.32A.59.58 10.7 0 0 152.15 89.89Q153.06 86.56 150.14 86.46 151.31 85.95 152.37 86.15 152.98 86.27 152.98 86.9L152.98 90.06Q152.98 90.77 152.27 90.85L149.69 91.11ZM56.27 86.44Q56.69 86.57 56.86 87.09A.6.59 79.1 0 1 56.34 87.86Q55.03 87.97 55.18 87.1 55.94 87.05 56.27 86.44Z" data-c-fill="7c8468" data-o-fill=".996"></path><path fill="#EB6F24" fill-opacity=".996" d="M 149.65 91.63 Q 150.30 95.18 149.71 98.84 L 149.65 91.63 Z" data-c-fill="50524f" data-o-fill=".996"></path><path fill="#EB6F24" fill-opacity=".996" d="M 59.34 92.03 L 59.53 101.22 Q 59.54 101.78 58.99 101.66 L 56.37 101.05 L 58.68 100.90 Q 59.20 100.86 59.21 100.34 L 59.34 92.03 Z" data-c-fill="7c8468" data-o-fill=".996"></path>
<path fill="#EB6F24" fill-opacity=".996" d="M 149.64 100.96 L 152.20 101.03 Q 152.98 101.06 152.98 101.84 L 152.97 103.26 Q 152.97 104.00 152.24 104.00 L 138.27 103.99 Q 137.74 103.99 137.74 104.52 L 137.64 126.68 L 137.30 103.72 Q 137.30 103.20 137.82 103.20 L 151.96 103.40 Q 152.33 103.41 152.37 103.04 L 152.42 102.35 Q 152.48 101.72 151.85 101.73 L 149.79 101.78 Q 149.24 101.79 149.33 101.25 Q 149.38 100.94 149.64 100.96 Z" data-c-fill="50524f" data-o-fill=".996"></path><path fill="#EB6F24" fill-opacity=".996" d="M71.64 104.21Q71.16 104.27 71.4 104.02L58.18 103.98Q58.47 103.51 59 103.52 65.11 103.6 71.22 103.33 71.79 103.3 71.69 103.85L71.64 104.21ZM115.98 130.24 116.01 104.54Q116.01 104.04 115.52 104.04L92.67 103.78 116.22 103.7Q116.69 103.7 116.69 104.17L116.76 129.17Q116.76 129.61 117.05 129.93 117.16 130.06 117.2 130.23 117.27 130.52 117 130.64 115.25 131.43 115.98 130.24Z" data-c-fill="7c8468" data-o-fill=".996"></path><path fill="#EB6F24" fill-opacity=".996" d="M71.4 104.02Q71.16 104.27 71.64 104.21L71.68 127.34Q71.68 127.68 71.35 127.59 70.91 127.47 70.93 127.03L71.4 104.02ZM63.73 128.06Q61.21 129.5 58.35 128.22L63.73 128.06ZM201.08 128.17Q198.74 129.12 195.37 128.23L201.08 128.17ZM192.6 129.16Q191.52 130.13 188.54 129.34L192.6 129.16ZM22.14 130.14Q23.53 129.85 24.85 130.24 23.26 130.79 22.14 130.14ZM49.87 130.14Q48.14 131.14 45.58 130.21 47.78 129.82 49.87 130.14ZM158.67 130.05 162.87 130.25Q160.4 131.21 158.67 130.05ZM187.55 130.1Q187.22 130.79 186.5 130.81 185.26 130.84 181.76 130.32L187.55 130.1ZM30.35 131.05 41.6 131.24Q38.64 131.81 34.5 131.84 32.31 131.86 30.35 131.05Z" data-c-fill="50524f" data-o-fill=".996"></path><path fill="#EB6F24" fill-opacity=".996" d="M 97.46 131.11 L 110.85 131.21 Q 104.23 132.55 97.46 131.11 Z" data-c-fill="7c8468" data-o-fill=".996"></path><path fill="#EB6F24" fill-opacity=".996" d="M167.25 131.09 178.65 131.16Q173.05 132.36 167.25 131.09ZM81.79 131.8 57.72 131.7Q69.61 130.82 81.79 131.8ZM133.47 131.81 127.5 131.78 133.47 131.81ZM198.5 131.78 195.77 131.93Q196.73 131.16 198.5 131.78ZM56.52 132.73 52.31 132.87Q54.16 132.29 56.52 132.73Z" data-c-fill="50524f" data-o-fill=".996"></path><path fill="#EB6F24" fill-opacity=".996" d="M 87.69 132.90 L 84.17 132.81 Q 86.47 132.13 87.69 132.90 Z" data-c-fill="7c8468" data-o-fill=".996"></path><path fill="#EB6F24" fill-opacity=".996" d="M188.15 133.69 183.47 133.9Q185.53 132.66 188.15 133.69ZM50.22 133.71Q48.43 134.15 46.42 133.81 47.98 133.1 50.22 133.71Z" data-c-fill="50524f" data-o-fill=".996"></path><path fill="#EB6F24" fill-opacity=".996" d="M93.86 133.86Q91.11 134.26 88.51 133.7 91.44 132.92 93.86 133.86ZM118.01 133.71Q116.78 134.19 115.41 133.8 116.26 133.03 118.01 133.71Z" data-c-fill="7c8468" data-o-fill=".996"></path><path fill="#EB6F24" fill-opacity=".996" d="M 162.24 133.96 L 158.74 133.75 Q 160.99 132.77 162.24 133.96 Z" data-c-fill="50524f" data-o-fill=".996"></path><path fill="#EB6F24" fill-opacity=".996" d="M 95.28 134.62 L 111.51 134.74 L 95.28 134.62 Z" data-c-fill="7c8468" data-o-fill=".996"></path></svg></svg> <!----></g><rect v-gra="id" width="100.80000305175781" height="69.45936584472656" transform="translate(-6, -6)" style="pointer-events:none;" fill="url(#uWyaI9OUgCozwCNxO2JtP)"></rect></g> <g transform="translate(95.80000305175781,15.299283027648926)"><g data-gra="path-name" fill-rule="" class="tp-name iconsvg-namesvg"><g transform="scale(0.96)"><g><path d="M10.33 0.43C15.67 0.43 20.3-2.65 20.3-7.5 20.3-16.1 6.28-15.89 6.28-19.91 6.28-21.59 8.39-22.63 10.33-22.63 12.62-22.63 14.56-21.27 14.56-19.62L19.83-19.62C19.83-24.93 14.96-27.19 10.33-27.19 4.91-27.19 1.04-24.21 1.04-20.05 1.04-11.23 15.06-12.27 15.06-7.5 15.06-5.67 13.41-4.48 10.69-4.48 7.53-4.48 6.03-6.67 6.03-8.68L0.72-8.68C0.72-3.34 4.91 0.43 10.33 0.43ZM24.07 0L28.98 0 28.98-26.9 24.07-26.9ZM28.98-13.41C37.37-2.98 46.3 0.72 53.55 0.72 58.82 0.72 62.8-0.54 64.84-2.22L62.48-6.2C60.04-4.77 58.03-3.8 53.55-3.8 48.09-3.8 42.25-5.67 34.86-13.41L45.3-26.9 39.49-26.9ZM64.63-26.9L59.28-26.9 55.59-19.15 51.54-26.9 46.19-26.9 53.33-14.17 53.33-7.96 57.85-7.96 57.85-14.17ZM84.28-21.99L84.28-26.9 67.89-26.9 67.89 0 84.28 0 84.28-4.91 72.81-4.91 72.81-10.11 80.73-10.11 81.45-14.99 72.81-14.99 72.81-21.99ZM118.61-12.88C116.85-12.88 116.63-14.35 116.6-14.99L111.68-14.99C111.68-11.44 114.19-8.11 118.61-8.11 122.37-8.11 125.42-10.76 125.42-14.02 125.42-18.08 121.73-19.22 119.32-19.98 116.92-20.73 116.81-21.2 116.81-21.7 116.81-22.16 117.39-22.49 118.39-22.49 119.68-22.49 120.36-21.95 120.33-20.91L124.81-20.91C124.92-24.24 122.69-27.26 118.39-27.26 114.77-27.26 111.97-24.75 111.97-21.59 111.97-17.65 115.52-16.57 117.89-15.89 120.43-15.17 120.65-14.7 120.65-14.24 120.65-13.38 119.86-12.88 118.61-12.88ZM124.42-6.24C122.37-4.66 120.04-3.91 116.35-3.91 110.79-3.91 106.84-5.81 103.18-9.72 106.7-11.01 108.96-13.92 108.96-17.79 108.96-23.1 105.05-26.97 99.67-26.97L87.87-26.97 87.87 0 92.78 0 92.78-9 96.94-9C102.32-2.37 109.07 0.61 116.35 0.61 120.69 0.61 124.2-0.29 126.64-2.33ZM92.78-22.06L98.23-22.06C100.71-22.06 103.83-21.2 103.83-17.93 103.83-14.67 100.71-13.92 98.23-13.92L92.78-13.92Z" transform="translate(-0.7199999690055847, 27.260000228881836)"></path></g> <!----> <!----> <!----> <!----> <!----> <!----> <!----></g></g> <!----></g></g><defs v-gra="od"></defs>
<defs v-gra="id">
<filter id="8f78a27b-33d8-43f9-a2bf-a48f777fcf2c" filterUnits="userSpaceOnUse"><feColorMatrix type="matrix" values="0 0 0 0 0.99609375  0 0 0 0 0.99609375  0 0 0 0 0.99609375  0 0 0 1 0"></feColorMatrix></filter><linearGradient x1="0" y1="1" x2="0" y2="0" id="uWyaI9OUgCozwCNxO2JtP"><stop offset="0%" stop-color="#ff5857"></stop><stop offset="100%" stop-color="#f09819"></stop></linearGradient><filter id="42443b3f1de60f6b6fd3b6a9844b4764" filterUnits="objectBoundingBox"><feColorMatrix type="matrix" values="0 0 0 0 0.99609375  0 0 0 0 0.99609375  0 0 0 0 0.99609375  0 0 0 1 0"></feColorMatrix></filter></defs><mask v-gra="im" id="f65b6189-c08b-4311-aeeb-81c2f811cb98"><g class="iconsvg-imagesvg" filter="url(#8f78a27b-33d8-43f9-a2bf-a48f777fcf2c)"><g><rect fill="#333" fill-opacity="0" stroke-width="2" x="0" y="0" width="88.80000000000003" height="57.45936432342894" class="image-rect"></rect> <svg x="0" y="0" width="88.80000000000003" height="57.45936432342894" filtersec="colorsb7160809336" class="image-svg-svg primary" style="overflow: visible;"><svg xmlns="http://www.w3.org/2000/svg" viewBox="-0.96028 -0.8700000000000001 210.75299 137.78246"><g stroke-width="2" fill="none" stroke-linecap="butt"><path stroke="#44483a" d="M101.61 1.13Q105.96 2.57 110.39 1.15M121.8 30.56 121.69 71.48M121.77 71.98Q120.74 72.34 122 72.77 123.56 73.3 127.65 72.29M130.44 77.31Q130.79 77.78 131.16 77.77 131.69 77.76 131.68 77.23L131.2 51.14M131.1 50.36 138.93 50.38M145.51 54.46Q147.32 54.84 147.86 54.06" data-c-stroke="44483a"></path><path stroke="#2e2f2e" d="M148.2 53.68Q150.03 53.84 150.8 53.06M177.51 44.28Q178.91 44.86 180.24 44.77 180.74 44.74 180.68 44.05M181.53 43.33Q183.92 44.38 184.57 43.14M185.51 42.26Q188.18 43.24 189.7 41.73" data-c-stroke="2e2f2e"></path><path stroke="#44483a" d="M 189.70 41.73 Q 190.91 41.52 192.25 41.54 Q 193.32 41.56 193.47 41.10" data-c-stroke="44483a"></path><path stroke="#2e2f2e" d="M194.25 40.54Q196.77 40.96 197.6 40.24M176.59 53.74Q176 53.06 173.24 54.08 172.31 54.43 172.08 53.46L171.79 52.17" data-c-stroke="2e2f2e"></path><path stroke="#44483a" d="M 171.79 52.17 Q 169.36 51.35 168.32 53.44 Q 168.04 53.98 168.65 53.94 L 170.23 53.85" data-c-stroke="44483a"></path><path stroke="#2e2f2e" d="M 170.23 53.85 Q 171.17 54.00 171.69 54.92" data-c-stroke="2e2f2e"></path><path stroke="#44483a" d="M170.8 55.47Q169.33 54.72 168.3 55.91M164.38 57.79Q163.37 57.1 162.09 57.84 160.21 58.91 159.3 57.17M157.79 56.39Q156.1 54.55 154.43 55.54M150.91 56.18Q148.84 56.17 148.26 58A.71.7-83.3 0 0 148.98 58.92C150.46 58.82 152.99 59.06 154.25 58.45Q155.4 57.9 154.84 57.21" data-c-stroke="44483a"></path><path stroke="#44483a" d="M155.38 56.26Q156.01 55.95 156.54 56.06 157.15 56.17 157.03 56.78 156.99 57 157.02 57.22 157.1 57.78 157.67 57.81 159.37 57.88 160.02 58.87M158.74 59.63Q156.81 58.66 155.81 60.18M152.62 61.7Q150.7 60.65 150.14 61.97M145.83 76.78Q144.28 77.98 148.26 77.58A1.15 1.14-3.8 0 1 149.52 78.68L149.74 84.85M150.14 86.46Q153.06 86.56 152.15 89.89A.59.58 10.7 0 1 151.51 90.32L149.7 90.09A.52.52 0 0 0 149.15 90.79Q149.49 91.74 149.69 91.11" data-c-stroke="44483a"></path><path stroke="#2e2f2e" d="M149.65 91.63 149.71 98.84M149.64 100.96Q149.38 100.94 149.33 101.25 149.24 101.79 149.79 101.78L151.85 101.73Q152.48 101.72 152.42 102.35L152.37 103.04Q152.33 103.41 151.96 103.4L137.82 103.2Q137.3 103.2 137.3 103.72L137.64 126.68M158.67 130.05Q160.4 131.21 162.87 130.25M167.25 131.09Q173.05 132.36 178.65 131.16M181.76 130.32Q185.26 130.84 186.5 130.81 187.22 130.79 187.55 130.1M188.54 129.34Q191.52 130.13 192.6 129.16M195.37 128.23Q198.74 129.12 201.08 128.17M198.5 131.78Q196.73 131.16 195.77 131.93M188.15 133.69Q185.53 132.66 183.47 133.9M162.24 133.96Q160.99 132.77 158.74 133.75M133.47 131.81 127.5 131.78" data-c-stroke="2e2f2e"></path>
<path stroke="#44483a" d="M118.01 133.71Q116.26 133.03 115.41 133.8M111.51 134.74 95.28 134.62M93.86 133.86Q91.44 132.92 88.51 133.7M87.69 132.9Q86.47 132.13 84.17 132.81" data-c-stroke="44483a"></path><path stroke="#2e2f2e" d="M81.79 131.8Q69.61 130.82 57.72 131.7M56.52 132.73Q54.16 132.29 52.31 132.87M50.22 133.71Q47.98 133.1 46.42 133.81M22.14 130.14Q23.26 130.79 24.85 130.24M30.35 131.05Q32.31 131.86 34.5 131.84 38.64 131.81 41.6 131.24M45.58 130.21Q48.14 131.14 49.87 130.14M58.35 128.22Q61.21 129.5 63.73 128.06M70.93 127.03Q70.91 127.47 71.35 127.59 71.68 127.68 71.68 127.34L71.64 104.21" data-c-stroke="2e2f2e"></path><path stroke="#44483a" d="M71.64 104.21 71.69 103.85Q71.79 103.3 71.22 103.33 65.11 103.6 59 103.52 58.47 103.51 58.18 103.98M56.37 101.05 58.99 101.66Q59.54 101.78 59.53 101.22L59.34 92.03M41.31 79Q41.37 78.4 41.57 78.01 41.78 77.59 42.25 77.58L64.73 77.42M65.9 80.27 65.25 86.13Q65.19 86.75 65.81 86.77L71.05 86.93A.65.65 0 0 0 71.72 86.23L71.23 79.72M72.28 77.27 83.21 77.7Q83.76 77.72 83.84 77.17 83.91 76.63 83.45 76.2M84.97 72.13Q88.87 73.67 90.66 72.26" data-c-stroke="44483a"></path><path stroke="#666b5c" stroke-opacity=".996" d="M71.64 104.21Q71.16 104.27 71.4 104.02M171.79 52.17Q172.14 53.49 171.24 53.78 170.76 53.94 170.23 53.85M189.7 41.73Q189.63 41.92 189.26 41.71" data-c-stroke="666b5c" data-o-stroke=".996"></path><path stroke="#44483a" d="M102.77 6.68Q102.93 6.15 103.39 6.01 104.16 5.77 103.5 5.3 103.29 5.16 103.02 5.17 102.41 5.2 102.27 5.8 102.1 6.52 102.33 7.26A.37.36 55.3 0 0 102.97 7.38Q103.14 7.16 102.92 7.04 102.69 6.92 102.77 6.68M111.64 12.23Q111.23 12.11 110.9 12.31 109.98 12.84 111.04 12.86 111.8 12.87 112.22 13.48A.23.23 0 0 0 112.63 13.32Q112.55 12.48 111.64 12.23M104.37 34.06Q106.31 35.33 107.82 34.08M117.85 39.45Q117.19 40.45 118.12 40.73A.49.49 0 0 0 118.75 40.23L118.39 33.96A1.69 1.63 56.5 0 1 118.53 33.2Q118.93 32.31 118.53 31.44A.54.52 83.5 0 0 118.18 31.15Q117.28 30.95 117.56 32.07M94.78 34.4 94.01 39.49Q93.77 41.02 95.09 40.2 96.16 39.54 95.65 39.31M102.16 36.19Q102.17 36.57 102.75 36.53 103.53 36.49 103.64 35.86 103.73 35.27 103.14 35.31 102.74 35.34 102.3 35.56M107.52 37.96Q105.69 36.63 104.5 37.96M117.88 52.06Q117.41 52.31 117.84 52.63A.43.43 0 0 0 118.53 52.29L118.62 44.68Q118.62 44.08 118.03 44.14 117.03 44.26 117.21 44.69M188.7817 44.671A1.96 1.14-27.3 0 0 186.5171 44.557 1.96 1.14-27.3 0 0 185.2983 46.469 1.96 1.14-27.3 0 0 187.5629 46.583 1.96 1.14-27.3 0 0 188.7817 44.671M94.67 47.04Q94.5 49.65 94.3 52.25 94.28 52.51 94.42 52.64 94.7 52.93 94.86 52.56 95.17 51.83 95.77 51.27M183.22 45.21Q182.28 44.95 181.35 45.07 180.66 45.16 181.23 45.54 182.25 46.23 183.26 45.82 184.17 45.46 183.22 45.21" data-c-stroke="44483a"></path><path stroke="#2e2f2e" d="M 173.12 51.08 Q 174.75 52.30 176.57 51.14" data-c-stroke="2e2f2e"></path><path stroke="#44483a" d="M179.67 48.03Q180.07 48.37 180.3 48.26 181.84 47.48 180.15 47.16 176.8 46.54 174.17 47.77M182.88 47.6 182.46 48.08Q181.78 48.85 182.82 48.86 183.23 48.87 183.6 48.7 183.93 48.56 183.83 48.21L183.7 47.77Q183.45 46.95 182.88 47.6M167.68 50.01C167.36 50.61 166.75 50.98 166 50.99Q163.72 50.99 162.27 51.84M160.88 53.67Q160.79 53.49 160.19 53.68A.41.41 0 0 0 160.1 54.42Q161.57 55.28 162.24 54.22" data-c-stroke="44483a"></path><path stroke="#2e2f2e" d="M 162.85 54.77 Q 163.11 55.58 164.01 55.62 Q 164.88 55.67 164.77 54.97" data-c-stroke="2e2f2e"></path><path stroke="#44483a" d="M166.17 53.37Q167.36 53.33 167.9 51.41 168.04 50.93 168.55 50.93 169.58 50.93 170.24 50.28 170.55 49.97 170.82 50.31 171.17 50.75 171.71 50.67 172.09 50.61 171.85 50.31 171.68 50.09 171.43 50.11 170.73 50.17 170.92 49.47 171.03 49.06 170.91 48.69A.77.77 0 0 0 169.92 48.2Q169.2 48.45 169.51 49.01M158.85 52.95Q159.4 53 159.62 52.85A.31.31 0 0 0 159.59 52.32Q158.74 51.88 157.65 52.06 157.22 52.12 157.24 52.55 157.24 52.75 157.47 52.84M118.24 66.52 118.63 56.62Q118.65 56 118.05 56.1 117.2 56.25 117.37 57.08M143.28 60.21Q143.65 60.39 143.76 59.88A.46.46 0 0 0 143.29 59.32L138.87 59.55M145.43 60.95Q144.9 61.05 144.87 61.07 143.97 61.67 145.04 61.81 146.4 61.98 146.53 61.25M94.55 72.32Q106.39 73.3 118.19 72.69 118.71 72.66 118.78 72.14 118.88 71.41 118.19 71.03M94.44 86.29Q94.76 86.67 95.06 86.74A.43.43 0 0 0 95.59 86.31L95.39 77.68A.47.47 0 0 0 94.93 77.22L93 77.18Q92.46 77.17 92.22 77.67 91.96 78.23 92.72 78.31M116.71 86.09Q116.82 87.22 119.17 86.65 119.65 86.53 119.61 86.04L119.31 81.54" data-c-stroke="44483a"></path>
<path stroke="#2e2f2e" d="M 119.50 77.65 Q 115.96 76.62 116.68 77.98" data-c-stroke="2e2f2e"></path><path stroke="#44483a" d="M55.18 87.1Q55.03 87.97 56.34 87.86A.6.59 79.1 0 0 56.86 87.09Q56.69 86.57 56.27 86.44M49.62 81.85Q48.32 81.17 46.66 81.12A.38.37 70 0 0 46.37 81.75Q47.05 82.48 47.7 82.1M59.2 86.05Q59.74 87.35 61.42 86.84 61.78 86.73 61.89 86.37 62 86 61.86 85.64A.63.62-13.3 0 0 61.21 85.24L60.19 85.34M56.14 82.38Q56.5 80.82 54.01 81.1 52.07 81.33 53.74 82.34 53.99 82.49 54.7 82.34M62.46 83.98Q62.21 84.53 62.88 84.82A.61.61 0 0 0 63.73 84.22L63.6 82.06Q63.55 81.31 62.8 81.24 61.4 81.12 60.02 81.09 58.65 81.07 59.65 82 59.77 82.11 60.39 82.12M97.46 131.11Q104.23 132.55 110.85 131.21M115.98 130.24Q115.25 131.43 117 130.64 117.27 130.52 117.2 130.23 117.16 130.06 117.05 129.93 116.76 129.61 116.76 129.17L116.69 104.17Q116.69 103.7 116.22 103.7L92.67 103.78" data-c-stroke="44483a"></path></g><path fill="#EB6F24" d="M 101.61 1.13 Q 105.96 2.57 110.39 1.15 Q 111.67 2.02 112.60 3.57 Q 112.86 4.00 112.81 4.51 Q 112.70 5.57 113.50 6.30 A 1.03 1.03 0.0 0 1 113.81 7.30 Q 113.56 8.30 114.32 9.01 A 1.42 1.40 24.7 0 1 114.75 10.15 Q 114.63 11.44 115.59 12.34 A 0.92 0.89 -63.2 0 1 115.85 13.18 Q 115.58 14.41 116.60 15.26 Q 116.98 15.57 116.89 16.05 Q 116.74 16.86 117.44 17.32 A 0.93 0.93 0.0 0 1 117.84 18.29 Q 117.59 19.44 118.48 20.27 Q 118.97 20.71 118.83 21.35 Q 118.61 22.32 119.33 23.03 Q 119.79 23.49 119.76 24.14 Q 119.70 25.35 120.43 26.26 Q 120.77 26.67 120.90 27.17 L 121.80 30.56 L 121.69 71.48 Q 121.65 71.55 121.77 71.98 Q 120.74 72.34 122.00 72.77 Q 123.56 73.30 127.65 72.29 L 128.48 73.06 Q 128.85 73.40 128.84 73.90 L 128.77 76.58 Q 128.75 77.19 129.37 77.24 L 130.44 77.31 Q 130.79 77.78 131.16 77.77 Q 131.69 77.76 131.68 77.23 L 131.20 51.14 Q 131.03 51.52 131.10 50.36 L 138.93 50.38 L 138.85 55.56 A 0.78 0.78 0.0 0 0 139.87 56.32 L 145.51 54.46 Q 147.32 54.84 147.86 54.06 Q 147.61 53.94 148.20 53.68 Q 150.03 53.84 150.80 53.06 Q 151.42 51.97 153.00 52.08 Q 153.73 52.13 154.26 51.53 Q 154.70 51.02 155.36 51.12 Q 156.57 51.30 157.46 50.45 A 1.34 1.33 -63.2 0 1 158.55 50.09 Q 160.20 50.31 161.43 49.41 Q 161.98 49.00 162.67 49.08 Q 163.57 49.18 164.15 48.50 Q 164.69 47.87 165.51 48.02 Q 166.59 48.23 167.26 47.40 A 1.11 1.09 25.3 0 1 168.38 47.01 Q 169.54 47.27 170.30 46.40 A 1.15 1.14 24.6 0 1 171.33 46.02 Q 172.52 46.19 173.49 45.46 A 1.43 1.38 -61.0 0 1 174.45 45.17 Q 176.32 45.28 177.51 44.28 Q 178.91 44.86 180.24 44.77 Q 180.74 44.74 180.68 44.05 Q 181.04 43.57 181.53 43.33 Q 183.92 44.38 184.57 43.14 L 185.51 42.26 Q 188.18 43.24 189.70 41.73 Q 190.91 41.52 192.25 41.54 Q 193.32 41.56 193.47 41.10 L 194.25 40.54 Q 196.77 40.96 197.60 40.24 Q 198.03 39.41 198.70 39.11 A 0.92 0.92 0.0 0 1 199.97 40.21 Q 199.55 41.62 200.75 42.52 A 0.52 0.51 29.2 0 1 200.93 43.13 Q 200.62 43.97 199.73 43.84 Q 198.63 43.68 197.84 44.48 Q 197.45 44.87 196.92 45.02 Q 194.79 45.62 193.38 46.72 Q 193.00 47.01 192.54 46.86 Q 191.78 46.62 191.23 47.16 Q 190.98 47.40 190.67 47.55 L 185.85 49.77 A 0.54 0.51 34.0 0 1 185.55 49.82 Q 184.73 49.74 184.12 50.25 Q 183.84 50.48 183.51 50.63 L 179.07 52.73 A 1.21 1.06 30.3 0 1 178.55 52.83 Q 177.23 52.75 176.59 53.74 Q 176.00 53.06 173.24 54.08 Q 172.31 54.43 172.08 53.46 L 171.79 52.17 Q 169.36 51.35 168.32 53.44 Q 168.04 53.98 168.65 53.94 L 170.23 53.85 Q 171.17 54.00 171.69 54.92 Q 171.21 55.03 170.80 55.47 Q 169.33 54.72 168.30 55.91 C 167.05 57.83 165.60 56.13 164.38 57.79 Q 163.37 57.10 162.09 57.84 Q 160.21 58.91 159.30 57.17 Q 161.46 55.70 157.79 56.39 Q 156.10 54.55 154.43 55.54 Q 152.28 54.07 150.91 56.18 Q 148.84 56.17 148.26 58.00 A 0.71 0.70 -83.3 0 0 148.98 58.92 C 150.46 58.82 152.99 59.06 154.25 58.45 Q 155.40 57.90 154.84 57.21 Q 155.18 56.81 155.38 56.26 Q 156.01 55.95 156.54 56.06 Q 157.15 56.17 157.03 56.78 Q 156.99 57.00 157.02 57.22 Q 157.10 57.78 157.67 57.81 Q 159.37 57.88 160.02 58.87 Q 159.15 58.93 158.74 59.63 Q 156.81 58.66 155.81 60.18 Q 155.63 60.66 155.36 60.87 Q 155.15 61.03 154.62 60.92 Q 153.33 60.67 152.62 61.70 Q 150.70 60.65 150.14 61.97 Q 149.42 62.97 147.98 62.95 Q 147.42 62.94 146.98 63.30 Q 146.27 63.89 145.35 63.96 Q 144.89 64.00 144.45 64.15 L 139.50 65.84 Q 138.92 66.04 138.89 66.66 L 138.81 68.26 Q 138.78 69.00 139.51 69.00 L 145.31 68.99 Q 145.93 68.99 145.93 69.61 L 145.83 76.78 Q 144.28 77.98 148.26 77.58 A 1.15 1.14 -3.8 0 1 149.52 78.68 L 149.74 84.85 Q 149.55 86.20 150.14 86.46 Q 153.06 86.56 152.15 89.89 A 0.59 0.58 10.7 0 1 151.51 90.32 L 149.70 90.09 A 0.52 0.52 0.0 0 0 149.15 90.79 Q 149.49 91.74 149.69 91.11 L 149.65 91.63 L 149.71 98.84 L 149.64 100.96 Q 149.38 100.94 149.33 101.25 Q 149.24 101.79 149.79 101.78 L 151.85 101.73 Q 152.48 101.72 152.42 102.35 L 152.37 103.04 Q 152.33 103.41 151.96 103.40 L 137.82 103.20 Q 137.30 103.20 137.30 103.72 L 137.64 126.68 Q 137.57 127.32 139.48 127.79 Q 140.33 128.01 141.54 128.00 Q 146.24 127.97 150.90 128.26 A 1.64 1.61 65.2 0 1 151.80 128.60 Q 152.43 129.10 153.24 129.07 Q 156.41 128.94 158.67 130.05 Q 160.40 131.21 162.87 130.25 L 167.25 131.09 Q 173.05 132.36 178.65 131.16 L 181.76 130.32 Q 185.26 130.84 186.50 130.81 Q 187.22 130.79 187.55 130.10 Q 187.89 129.63 188.54 129.34 Q 191.52 130.13 192.60 129.16 Q 193.75 128.11 195.37 128.23 Q 198.74 129.12 201.08 128.17 L 206.71 127.98 Q 207.91 127.95 207.78 129.13 Q 207.69 129.99 207.43 130.74 Q 207.05 131.85 205.89 131.84 L 198.50 131.78 Q 196.73 131.16 195.77 131.93 Q 194.51 131.79 193.80 132.44 Q 193.44 132.77 192.95 132.76 Q 190.18 132.69 188.15 133.69 Q 185.53 132.66 183.47 133.90 Q 182.53 133.93 181.77 134.41 A 1.97 1.94 -62.3 0 1 180.86 134.70 Q 174.05 135.06 167.25 134.81 Q 164.60 134.71 162.24 133.96 Q 160.99 132.77 158.74 133.75 Q 155.28 133.05 151.75 132.45 Q 148.39 131.89 144.69 131.85 Q 139.07 131.80 133.47 131.81 L 127.50 131.78 Q 124.39 132.98 120.82 133.02 A 1.30 1.28 -65.5 0 0 119.96 133.35 Q 119.09 134.12 118.01 133.71 Q 116.26 133.03 115.41 133.80 Q 113.34 134.72 111.51 134.74 L 95.28 134.62 Q 94.71 134.01 93.86 133.86 Q 91.44 132.92 88.51 133.70 Q 88.05 133.52 87.69 132.90 Q 86.47 132.13 84.17 132.81 L 81.79 131.80 Q 69.61 130.82 57.72 131.70 L 56.52 132.73 Q 54.16 132.29 52.31 132.87 Q 51.53 134.21 50.22 133.71 Q 47.98 133.10 46.42 133.81 Q 45.49 133.97 44.66 134.44 Q 44.25 134.68 43.77 134.71 Q 32.91 135.39 21.42 133.73 C 19.47 133.45 17.79 132.70 15.84 132.79 C 14.58 132.84 13.83 132.04 12.65 131.97 Q 7.70 131.68 1.95 131.88 A 0.81 0.81 0.0 0 1 1.11 131.10 L 1.04 128.71 A 0.74 0.74 0.0 0 1 1.80 127.95 L 13.80 128.17 A 1.03 0.97 61.5 0 1 14.32 128.34 Q 14.64 128.57 14.98 128.77 Q 15.17 128.88 15.38 128.90 Q 18.88 129.21 22.14 130.14 Q 23.26 130.79 24.85 130.24 L 30.35 131.05 Q 32.31 131.86 34.50 131.84 Q 38.64 131.81 41.60 131.24 L 45.58 130.21 Q 48.14 131.14 49.87 130.14 Q 52.13 128.99 54.98 128.98 Q 55.47 128.98 55.90 128.73 Q 57.11 128.02 58.35 128.22 Q 61.21 129.50 63.73 128.06 C 65.68 128.01 69.58 128.56 70.93 127.03 Q 70.91 127.47 71.35 127.59 Q 71.68 127.68 71.68 127.34 L 71.64 104.21 L 71.69 103.85 Q 71.79 103.30 71.22 103.33 Q 65.11 103.60 59.00 103.52 Q 58.47 103.51 58.18 103.98 L 56.81 103.98 Q 56.28 103.99 56.10 103.49 Q 55.65 102.25 56.37 101.05 L 58.99 101.66 Q 59.54 101.78 59.53 101.22 L 59.34 92.03 Q 59.45 91.68 59.30 91.37 Q 59.15 91.06 58.81 91.01 Q 58.27 90.93 58.03 91.43 Q 57.75 92.03 57.32 91.52 Q 56.80 90.91 56.03 90.79 Q 55.46 90.70 55.06 90.28 C 54.53 89.70 54.15 89.17 53.35 88.93 C 51.95 88.51 51.21 87.41 49.90 86.73 Q 46.17 84.80 42.57 81.96 Q 42.29 81.75 41.83 81.76 Q 41.29 81.77 41.20 81.23 Q 41.00 80.06 41.31 79.00 Q 41.37 78.40 41.57 78.01 Q 41.78 77.59 42.25 77.58 L 64.73 77.42 Q 66.48 78.39 65.90 80.27 L 65.25 86.13 Q 65.19 86.75 65.81 86.77 L 71.05 86.93 A 0.65 0.65 0.0 0 0 71.72 86.23 L 71.23 79.72 Q 70.73 78.75 72.28 77.27 L 83.21 77.70 Q 83.76 77.72 83.84 77.17 Q 83.91 76.63 83.45 76.20 Q 82.70 72.66 84.97 72.13 Q 88.87 73.67 90.66 72.26 Q 90.05 66.23 90.51 61.00 C 90.57 60.30 91.00 59.79 91.00 58.93 Q 91.00 43.31 91.00 28.44 Q 91.00 27.94 91.34 27.56 Q 92.22 26.58 92.21 25.17 Q 92.21 24.53 92.63 24.05 Q 93.25 23.34 93.06 22.36 A 0.96 0.94 64.3 0 1 93.37 21.45 Q 94.31 20.63 94.07 19.36 Q 93.97 18.82 94.37 18.45 Q 95.24 17.66 95.23 16.48 Q 95.23 16.00 95.47 15.57 Q 96.79 13.24 97.26 10.94 A 1.91 1.85 70.7 0 1 97.64 10.12 Q 98.29 9.27 98.05 8.25 A 0.85 0.85 0.0 0 1 98.33 7.42 Q 99.31 6.61 99.15 5.27 Q 99.08 4.72 99.52 4.40 Q 100.10 3.97 100.12 3.25 Q 100.14 2.75 100.42 2.33 Q 100.96 1.54 101.61 1.13 Z M 102.77 6.68 Q 102.93 6.15 103.39 6.01 Q 104.16 5.77 103.50 5.30 Q 103.29 5.16 103.02 5.17 Q 102.41 5.20 102.27 5.80 Q 102.10 6.52 102.33 7.26 A 0.37 0.36 55.3 0 0 102.97 7.38 Q 103.14 7.16 102.92 7.04 Q 102.69 6.92 102.77 6.68 Z M 108.73 5.99 A 0.60 0.60 0.0 0 0 108.76 6.89 Q 109.69 7.63 109.89 6.43 A 0.55 0.54 -66.7 0 0 109.70 5.94 Q 109.22 5.53 108.73 5.99 Z M 108.24 11.03 Q 108.77 11.14 109.27 11.03 Q 111.17 10.61 109.32 10.00 Q 107.80 9.50 106.88 8.19 A 0.97 0.97 0.0 0 0 105.43 8.03 L 102.87 10.37 Q 102.10 11.07 103.13 10.96 Q 105.13 10.76 106.24 11.77 A 0.47 0.47 0.0 0 0 106.90 11.73 L 107.23 11.37 A 1.08 1.07 -63.4 0 1 108.24 11.03 Z M 111.64 12.23 Q 111.23 12.11 110.90 12.31 Q 109.98 12.84 111.04 12.86 Q 111.80 12.87 112.22 13.48 A 0.23 0.23 0.0 0 0 112.63 13.32 Q 112.55 12.48 111.64 12.23 Z M 101.5842 13.3739 A 0.76 0.55 7.1 0 0 100.8980 12.7342 A 0.76 0.55 7.1 0 0 100.0758 13.1861 A 0.76 0.55 7.1 0 0 100.7620 13.8258 A 0.76 0.55 7.1 0 0 101.5842 13.3739 Z M 109.16 15.53 C 107.97 14.50 105.27 14.47 103.86 15.33 Q 102.79 15.98 101.25 15.91 Q 100.99 15.89 100.82 16.09 Q 100.36 16.64 101.05 16.86 L 102.25 17.23 A 1.72 1.68 79.4 0 1 103.09 17.82 C 104.22 19.29 106.64 19.93 108.18 18.60 Q 109.58 17.38 111.35 16.69 Q 112.08 16.40 111.38 16.04 Q 110.79 15.74 110.09 15.82 Q 109.56 15.88 109.16 15.53 Z M 97.63 21.51 L 97.30 21.91 Q 96.96 22.32 96.91 22.85 Q 96.76 24.37 95.86 25.64 Q 95.25 26.48 96.21 26.08 Q 97.12 25.69 97.77 24.89 Q 98.18 24.39 98.80 24.20 Q 100.17 23.78 101.12 22.61 Q 101.43 22.24 101.92 22.18 Q 102.48 22.11 103.01 21.87 Q 103.86 21.48 103.06 21.00 L 99.04 18.56 Q 98.41 18.18 98.13 18.87 Q 97.78 19.75 97.89 20.63 Q 97.95 21.13 97.63 21.51 Z M 113.82 18.63 A 0.35 0.35 0.0 0 0 113.31 18.45 L 108.97 21.04 A 0.35 0.35 0.0 0 0 108.98 21.65 L 115.69 25.41 A 0.35 0.35 0.0 0 0 116.19 24.98 L 113.82 18.63 Z M 104.37 34.06 Q 106.31 35.33 107.82 34.08 L 116.44 29.74 Q 117.05 29.43 116.47 29.08 L 106.58 23.02 Q 106.19 22.78 105.81 23.02 L 95.87 29.18 Q 95.38 29.49 95.90 29.75 L 104.37 34.06 Z M 117.56 32.07 L 111.07 35.17 A 0.90 0.89 -47.1 0 0 111.13 36.81 L 117.85 39.45 Q 117.19 40.45 118.12 40.73 A 0.49 0.49 0.0 0 0 118.75 40.23 L 118.39 33.96 A 1.69 1.63 56.5 0 1 118.53 33.20 Q 118.93 32.31 118.53 31.44 A 0.54 0.52 83.5 0 0 118.18 31.15 Q 117.28 30.95 117.56 32.07 Z M 94.78 34.40 L 94.01 39.49 Q 93.77 41.02 95.09 40.20 Q 96.16 39.54 95.65 39.31 L 102.16 36.19 Q 102.17 36.57 102.75 36.53 Q 103.53 36.49 103.64 35.86 Q 103.73 35.27 103.14 35.31 Q 102.74 35.34 102.30 35.56 L 95.03 32.13 Q 94.39 31.83 94.50 32.53 L 94.78 34.40 Z M 104.50 37.96 L 96.99 41.62 Q 95.84 42.18 96.98 42.74 Q 100.20 44.32 103.62 45.66 C 105.20 46.28 107.05 46.59 108.66 45.80 Q 111.02 44.64 113.40 43.42 Q 113.96 43.14 114.59 43.08 L 115.71 42.97 Q 116.50 42.90 116.01 42.28 Q 115.01 41.05 114.22 40.80 Q 110.63 39.67 107.52 37.96 Q 105.69 36.63 104.50 37.96 Z M 193.4317 43.3587 A 0.79 0.48 -24.0 0 0 192.5148 43.2415 A 0.79 0.48 -24.0 0 0 191.9883 44.0013 A 0.79 0.48 -24.0 0 0 192.9052 44.1185 A 0.79 0.48 -24.0 0 0 193.4317 43.3587 Z M 117.21 44.69 L 113.22 46.78 Q 112.78 47.01 112.30 46.95 Q 110.91 46.77 110.59 48.15 Q 110.48 48.66 110.95 48.87 L 117.88 52.06 Q 117.41 52.31 117.84 52.63 A 0.43 0.43 0.0 0 0 118.53 52.29 L 118.62 44.68 Q 118.62 44.08 118.03 44.14 Q 117.03 44.26 117.21 44.69 Z M 188.7817 44.6710 A 1.96 1.14 -27.3 0 0 186.5171 44.5570 A 1.96 1.14 -27.3 0 0 185.2983 46.4690 A 1.96 1.14 -27.3 0 0 187.5629 46.5830 A 1.96 1.14 -27.3 0 0 188.7817 44.6710 Z M 94.67 47.04 Q 94.50 49.65 94.30 52.25 Q 94.28 52.51 94.42 52.64 Q 94.70 52.93 94.86 52.56 Q 95.17 51.83 95.77 51.27 Q 96.73 51.03 97.61 50.34 Q 98.03 50.03 98.54 50.09 Q 99.63 50.21 100.29 49.38 Q 100.57 49.02 101.03 49.02 Q 101.51 49.01 101.95 48.85 Q 102.78 48.54 102.05 48.04 Q 99.31 46.15 96.56 45.67 A 1.22 1.17 69.9 0 1 95.99 45.39 L 95.53 44.95 Q 94.74 44.21 94.71 45.28 L 94.67 47.04 Z M 183.22 45.21 Q 182.28 44.95 181.35 45.07 Q 180.66 45.16 181.23 45.54 Q 182.25 46.23 183.26 45.82 Q 184.17 45.46 183.22 45.21 Z M 174.17 47.77 L 172.65 49.80 Q 172.35 50.20 172.63 50.61 Q 172.81 50.86 173.12 51.08 Q 174.75 52.30 176.57 51.14 L 179.67 48.03 Q 180.07 48.37 180.30 48.26 Q 181.84 47.48 180.15 47.16 Q 176.80 46.54 174.17 47.77 Z M 182.88 47.60 L 182.46 48.08 Q 181.78 48.85 182.82 48.86 Q 183.23 48.87 183.60 48.70 Q 183.93 48.56 183.83 48.21 L 183.70 47.77 Q 183.45 46.95 182.88 47.60 Z M 169.51 49.01 Q 167.40 49.34 167.68 50.01 C 167.36 50.61 166.75 50.98 166.00 50.99 Q 163.72 50.99 162.27 51.84 Q 161.79 52.83 160.88 53.67 Q 160.79 53.49 160.19 53.68 A 0.41 0.41 0.0 0 0 160.10 54.42 Q 161.57 55.28 162.24 54.22 Q 162.66 54.37 162.85 54.77 Q 163.11 55.58 164.01 55.62 Q 164.88 55.67 164.77 54.97 L 166.17 53.37 Q 167.36 53.33 167.90 51.41 Q 168.04 50.93 168.55 50.93 Q 169.58 50.93 170.24 50.28 Q 170.55 49.97 170.82 50.31 Q 171.17 50.75 171.71 50.67 Q 172.09 50.61 171.85 50.31 Q 171.68 50.09 171.43 50.11 Q 170.73 50.17 170.92 49.47 Q 171.03 49.06 170.91 48.69 A 0.77 0.77 0.0 0 0 169.92 48.20 Q 169.20 48.45 169.51 49.01 Z M 116.31 54.68 A 0.34 0.34 0.0 0 0 116.28 54.07 L 106.45 49.79 A 0.34 0.34 0.0 0 0 106.19 49.79 L 96.04 54.03 A 0.34 0.34 0.0 0 0 96.01 54.65 L 106.14 60.03 A 0.34 0.34 0.0 0 0 106.46 60.03 L 116.31 54.68 Z M 157.47 52.84 Q 156.93 53.00 156.89 53.04 Q 155.98 53.78 157.15 53.89 Q 158.20 53.98 158.85 52.95 Q 159.40 53.00 159.62 52.85 A 0.31 0.31 0.0 0 0 159.59 52.32 Q 158.74 51.88 157.65 52.06 Q 157.22 52.12 157.24 52.55 Q 157.24 52.75 157.47 52.84 Z M 117.37 57.08 L 109.85 61.02 Q 108.95 61.49 109.84 61.97 L 118.24 66.52 L 118.63 56.62 Q 118.65 56.00 118.05 56.10 Q 117.20 56.25 117.37 57.08 Z M 143.93 57.30 Q 143.45 57.49 143.93 57.68 Q 145.69 58.41 146.94 57.04 Q 147.58 56.35 146.65 56.52 Q 145.29 56.76 143.93 57.30 Z M 100.88 60.28 Q 99.36 59.34 97.65 58.74 Q 97.31 58.62 97.08 58.35 Q 96.32 57.45 95.30 56.92 Q 94.50 56.51 94.60 57.40 Q 95.05 61.50 94.66 65.64 Q 94.58 66.49 95.33 66.07 L 102.99 61.78 Q 103.87 61.29 102.88 61.09 C 102.11 60.93 101.55 60.69 100.88 60.28 Z M 138.87 59.55 L 138.85 62.09 Q 138.84 64.57 140.35 62.61 L 141.04 61.71 Q 141.33 61.34 141.81 61.27 Q 142.74 61.13 143.28 60.21 Q 143.65 60.39 143.76 59.88 A 0.46 0.46 0.0 0 0 143.29 59.32 L 138.87 59.55 Z M 145.43 60.95 Q 144.90 61.05 144.87 61.07 Q 143.97 61.67 145.04 61.81 Q 146.40 61.98 146.53 61.25 L 147.96 60.76 Q 148.59 60.54 147.98 60.28 Q 146.51 59.65 145.43 60.95 Z M 94.55 72.32 Q 106.39 73.30 118.19 72.69 Q 118.71 72.66 118.78 72.14 Q 118.88 71.41 118.19 71.03 L 118.07 69.78 Q 118.02 69.33 117.61 69.12 Q 113.20 66.90 108.88 64.69 Q 107.81 64.15 106.89 63.31 Q 106.52 62.97 106.08 63.21 Q 101.03 65.94 95.74 68.46 Q 94.54 69.03 94.55 72.32 Z M 92.72 78.31 L 92.80 85.79 Q 92.81 86.30 93.31 86.36 Q 93.85 86.42 94.44 86.29 Q 94.76 86.67 95.06 86.74 A 0.43 0.43 0.0 0 0 95.59 86.31 L 95.39 77.68 A 0.47 0.47 0.0 0 0 94.93 77.22 L 93.00 77.18 Q 92.46 77.17 92.22 77.67 Q 91.96 78.23 92.72 78.31 Z M 116.68 77.98 L 116.71 86.09 Q 116.82 87.22 119.17 86.65 Q 119.65 86.53 119.61 86.04 L 119.31 81.54 L 119.50 77.65 Q 115.96 76.62 116.68 77.98 Z M 47.70 82.10 Q 47.64 82.35 47.83 82.58 Q 48.01 82.79 48.29 82.85 Q 49.81 83.15 50.73 84.32 Q 51.16 84.87 51.83 85.07 Q 53.23 85.48 54.19 86.68 Q 54.44 86.99 54.84 87.05 L 55.18 87.10 Q 55.03 87.97 56.34 87.86 A 0.60 0.59 79.1 0 0 56.86 87.09 Q 56.69 86.57 56.27 86.44 Q 54.48 85.81 53.17 84.55 A 2.48 2.36 75.4 0 0 52.33 84.03 Q 50.69 83.41 49.62 81.85 Q 48.32 81.17 46.66 81.12 A 0.38 0.37 70.0 0 0 46.37 81.75 Q 47.05 82.48 47.70 82.10 Z M 54.70 82.34 C 56.14 84.12 58.02 84.07 59.20 86.05 Q 59.74 87.35 61.42 86.84 Q 61.78 86.73 61.89 86.37 Q 62.00 86.00 61.86 85.64 A 0.63 0.62 -13.3 0 0 61.21 85.24 L 60.19 85.34 Q 58.19 83.33 56.14 82.38 Q 56.50 80.82 54.01 81.10 Q 52.07 81.33 53.74 82.34 Q 53.99 82.49 54.70 82.34 Z M 60.39 82.12 L 62.46 83.98 Q 62.21 84.53 62.88 84.82 A 0.61 0.61 0.0 0 0 63.73 84.22 L 63.60 82.06 Q 63.55 81.31 62.80 81.24 Q 61.40 81.12 60.02 81.09 Q 58.65 81.07 59.65 82.00 Q 59.77 82.11 60.39 82.12 Z M 92.67 103.78 Q 93.06 116.78 92.80 128.68 Q 92.78 129.55 92.30 130.09 Q 91.88 130.55 92.49 130.46 L 94.40 130.18 Q 94.91 130.11 95.35 130.39 Q 96.36 131.05 97.46 131.11 Q 104.23 132.55 110.85 131.21 Q 113.13 129.90 115.98 130.24 Q 115.25 131.43 117.00 130.64 Q 117.27 130.52 117.20 130.23 Q 117.16 130.06 117.05 129.93 Q 116.76 129.61 116.76 129.17 L 116.69 104.17 Q 116.69 103.70 116.22 103.70 L 92.67 103.78 Z" data-c-fill="0d0d0d"></path>
<path fill="#EB6F24" fill-opacity=".996" d="M101.61 1.13 110.39 1.15Q105.96 2.57 101.61 1.13ZM102.92 7.04Q103.14 7.16 102.97 7.38A.37.36 55.3 0 1 102.33 7.26Q102.1 6.52 102.27 5.8 102.41 5.2 103.02 5.17 103.29 5.16 103.5 5.3 104.16 5.77 103.39 6.01 102.93 6.15 102.77 6.68 102.69 6.92 102.92 7.04ZM111.64 12.23Q112.55 12.48 112.63 13.32A.23.23 0 0 1 112.22 13.48Q111.8 12.87 111.04 12.86 109.98 12.84 110.9 12.31 111.23 12.11 111.64 12.23ZM121.8 30.56 121.69 71.48 121.8 30.56ZM117.85 39.45 118.04 32.44Q118.05 32.17 117.83 32.01 117.67 31.88 117.56 32.07 117.28 30.95 118.18 31.15A.54.52 83.5 0 1 118.53 31.44Q118.93 32.31 118.53 33.2A1.69 1.63 56.5 0 0 118.39 33.96L118.75 40.23A.49.49 0 0 1 118.12 40.73Q117.19 40.45 117.85 39.45ZM104.37 34.06 107.82 34.08Q106.31 35.33 104.37 34.06ZM94.78 34.4Q94.16 39.22 95.65 39.31 96.16 39.54 95.09 40.2 93.77 41.02 94.01 39.49L94.78 34.4ZM102.16 36.19Q102.48 35.78 102.3 35.56 102.74 35.34 103.14 35.31 103.73 35.27 103.64 35.86 103.53 36.49 102.75 36.53 102.17 36.57 102.16 36.19ZM107.52 37.96 104.5 37.96Q105.69 36.63 107.52 37.96Z" data-c-fill="7c8468" data-o-fill=".996"></path>
<path fill="#EB6F24" fill-opacity=".996" d="M 197.60 40.24 Q 196.77 40.96 194.25 40.54 Q 195.31 39.54 197.60 40.24 Z" data-c-fill="50524f" data-o-fill=".996"></path><path fill="#EB6F24" fill-opacity=".996" d="M 193.47 41.10 Q 193.32 41.56 192.25 41.54 Q 190.91 41.52 189.70 41.73 Q 189.63 41.92 189.26 41.71 Q 190.91 40.67 193.47 41.10 Z" data-c-fill="7c8468" data-o-fill=".996"></path><path fill="#EB6F24" fill-opacity=".996" d="M189.26 41.71Q189.63 41.92 189.7 41.73 188.18 43.24 185.51 42.26L189.26 41.71ZM184.57 43.14Q183.92 44.38 181.53 43.33 182.95 42.88 184.57 43.14ZM180.68 44.05Q180.74 44.74 180.24 44.77 178.91 44.86 177.51 44.28 178.99 43.91 180.68 44.05Z" data-c-fill="50524f" data-o-fill=".996"></path><path fill="#EB6F24" fill-opacity=".996" d="M 117.88 52.06 L 117.89 45.57 Q 117.89 45.15 117.54 44.92 L 117.21 44.69 Q 117.03 44.26 118.03 44.14 Q 118.62 44.08 118.62 44.68 L 118.53 52.29 A 0.43 0.43 0.0 0 1 117.84 52.63 Q 117.41 52.31 117.88 52.06 Z" data-c-fill="7c8468" data-o-fill=".996"></path><ellipse fill="#EB6F24" fill-opacity=".996" cx="0" cy="0" transform="rotate(-27.3 187.344 -362.31)" rx="1.96" ry="1.14" data-c-fill="7c8468" data-o-fill=".996"></ellipse>
<path fill="#EB6F24" fill-opacity=".996" d="M183.22 45.21Q184.17 45.46 183.26 45.82 182.25 46.23 181.23 45.54 180.66 45.16 181.35 45.07 182.28 44.95 183.22 45.21ZM94.67 47.04 94.67 50.73Q94.67 51.27 95.22 51.27L95.77 51.27Q95.17 51.83 94.86 52.56 94.7 52.93 94.42 52.64 94.28 52.51 94.3 52.25 94.5 49.65 94.67 47.04ZM179.67 48.03 174.17 47.77Q176.8 46.54 180.15 47.16 181.84 47.48 180.3 48.26 180.07 48.37 179.67 48.03ZM182.88 47.6Q183.45 46.95 183.7 47.77L183.83 48.21Q183.93 48.56 183.6 48.7 183.23 48.87 182.82 48.86 181.78 48.85 182.46 48.08L182.88 47.6ZM166.17 53.37 166.52 52.65Q166.77 52.13 166.19 52.09L162.27 51.84Q163.72 50.99 166 50.99C166.75 50.98 167.36 50.61 167.68 50.01Q171.21 50.14 169.51 49.01 169.2 48.45 169.92 48.2A.77.77 0 0 1 170.91 48.69Q171.03 49.06 170.92 49.47 170.73 50.17 171.43 50.11 171.68 50.09 171.85 50.31 172.09 50.61 171.71 50.67 171.17 50.75 170.82 50.31 170.55 49.97 170.24 50.28 169.58 50.93 168.55 50.93 168.04 50.93 167.9 51.41 167.36 53.33 166.17 53.37ZM138.93 50.38 131.1 50.36Q135.07 49.44 138.93 50.38Z" data-c-fill="7c8468" data-o-fill=".996"></path>
<path fill="#EB6F24" fill-opacity=".996" d="M 173.12 51.08 L 176.57 51.14 Q 174.75 52.30 173.12 51.08 Z" data-c-fill="50524f" data-o-fill=".996"></path><path fill="#EB6F24" fill-opacity=".996" d="M131.2 51.14 131.68 77.23Q131.69 77.76 131.16 77.77 130.79 77.78 130.44 77.31 130.98 77.13 130.98 76.75 130.86 64.02 131.2 51.14ZM158.85 52.95Q158.23 52.58 157.47 52.84 157.24 52.75 157.24 52.55 157.22 52.12 157.65 52.06 158.74 51.88 159.59 52.32A.31.31 0 0 1 159.62 52.85Q159.4 53 158.85 52.95ZM171.79 52.17Q172.14 53.49 171.24 53.78 170.76 53.94 170.23 53.85L168.65 53.94Q168.04 53.98 168.32 53.44 169.36 51.35 171.79 52.17Z" data-c-fill="7c8468" data-o-fill=".996"></path><path fill="#EB6F24" fill-opacity=".996" d="M171.79 52.17 172.08 53.46Q172.31 54.43 173.24 54.08 176 53.06 176.59 53.74 175.97 54.01 175.02 54.02 174.53 54.02 174.15 54.34 173.05 55.27 171.69 54.92 171.17 54 170.23 53.85 170.76 53.94 171.24 53.78 172.14 53.49 171.79 52.17ZM150.8 53.06Q150.03 53.84 148.2 53.68 148.96 52.86 150.8 53.06Z" data-c-fill="50524f" data-o-fill=".996"></path><path fill="#EB6F24" fill-opacity=".996" d="M160.88 53.67Q161.34 54.1 162.24 54.22 161.57 55.28 160.1 54.42A.41.41 0 0 1 160.19 53.68Q160.79 53.49 160.88 53.67ZM147.86 54.06Q147.32 54.84 145.51 54.46 145.88 53.79 147.86 54.06Z" data-c-fill="7c8468" data-o-fill=".996"></path><path fill="#EB6F24" fill-opacity=".996" d="M 162.85 54.77 Q 163.83 55.16 164.77 54.97 Q 164.88 55.67 164.01 55.62 Q 163.11 55.58 162.85 54.77 Z" data-c-fill="50524f" data-o-fill=".996"></path><path fill="#EB6F24" fill-opacity=".996" d="M157.79 56.39Q158.16 57.14 159.3 57.17 160.21 58.91 162.09 57.84 163.37 57.1 164.38 57.79L162.76 58.03Q162.28 58.1 161.96 58.45 161.18 59.33 160.02 58.87 159.37 57.88 157.67 57.81 157.1 57.78 157.02 57.22 156.99 57 157.03 56.78 157.15 56.17 156.54 56.06 156.01 55.95 155.38 56.26 154.71 55.89 154.43 55.54 156.1 54.55 157.79 56.39ZM170.8 55.47Q170.47 56.23 168.3 55.91 169.33 54.72 170.8 55.47ZM118.24 66.52Q117.83 61.85 118.06 57.78 118.08 57.47 117.96 57.26 117.66 56.77 117.37 57.08 117.2 56.25 118.05 56.1 118.65 56 118.63 56.62L118.24 66.52ZM150.91 56.18Q150.1 56.72 149.86 57.18 149.59 57.7 150.16 57.86 152.82 58.58 154.84 57.21 155.4 57.9 154.25 58.45C152.99 59.06 150.46 58.82 148.98 58.92A.71.7-83.3 0 1 148.26 58Q148.84 56.17 150.91 56.18ZM143.28 60.21 138.87 59.55 143.29 59.32A.46.46 0 0 1 143.76 59.88Q143.65 60.39 143.28 60.21ZM158.74 59.63 155.81 60.18Q156.81 58.66 158.74 59.63ZM145.43 60.95Q145.83 61.37 146.53 61.25 146.4 61.98 145.04 61.81 143.97 61.67 144.87 61.07 144.9 61.05 145.43 60.95ZM152.62 61.7Q151.59 62.12 150.14 61.97 150.7 60.65 152.62 61.7ZM118.19 71.03Q118.88 71.41 118.78 72.14 118.71 72.66 118.19 72.69 106.39 73.3 94.55 72.32L117.68 71.92Q118.18 71.91 118.26 71.42 118.28 71.23 118.19 71.03ZM84.97 72.13Q88.08 71.72 90.66 72.26 88.87 73.67 84.97 72.13ZM121.77 71.98 127.65 72.29Q123.56 73.3 122 72.77 120.74 72.34 121.77 71.98ZM83.45 76.2Q83.91 76.63 83.84 77.17 83.76 77.72 83.21 77.7L72.28 77.27 82.65 76.99Q83.13 76.97 83.31 76.54L83.45 76.2ZM145.83 76.78Q146.73 77.38 148.27 76.94 150.03 76.43 149.97 78.27L149.74 84.85 149.52 78.68A1.15 1.14-3.8 0 0 148.26 77.58Q144.28 77.98 145.83 76.78ZM64.73 77.42 42.25 77.58Q41.78 77.59 41.57 78.01 41.37 78.4 41.31 79 40.96 78.28 41.28 77.46 41.46 76.99 41.96 76.99 53.01 76.99 64.07 77 64.27 77 64.43 77.11 64.6 77.23 64.73 77.42ZM94.44 86.29Q95.17 86.18 95.14 85.62 94.99 81.46 95.28 78.67 95.33 78.17 94.87 77.95 93.83 77.46 92.72 78.31 91.96 78.23 92.22 77.67 92.46 77.17 93 77.18L94.93 77.22A.47.47 0 0 1 95.39 77.68L95.59 86.31A.43.43 0 0 1 95.06 86.74Q94.76 86.67 94.44 86.29Z" data-c-fill="7c8468" data-o-fill=".996"></path><path fill="#EB6F24" fill-opacity=".996" d="M 119.50 77.65 L 116.68 77.98 Q 115.96 76.62 119.50 77.65 Z" data-c-fill="50524f" data-o-fill=".996"></path><path fill="#EB6F24" fill-opacity=".996" d="M71.23 79.72 71.72 86.23A.65.65 0 0 1 71.05 86.93L65.81 86.77Q65.19 86.75 65.25 86.13L65.9 80.27 65.96 85.78A.34.34 0 0 0 66.31 86.12L70.95 85.98Q71.25 85.97 71.25 85.67L71.23 79.72ZM49.62 81.85 47.7 82.1Q47.05 82.48 46.37 81.75A.38.37 70 0 1 46.66 81.12Q48.32 81.17 49.62 81.85ZM56.14 82.38Q55.34 81.76 54.7 82.34 53.99 82.49 53.74 82.34 52.07 81.33 54.01 81.1 56.5 80.82 56.14 82.38ZM62.46 83.98Q62.97 83.94 63.19 83.49A1.08 1.07-72.4 0 0 62.4 81.96Q61.65 81.84 60.39 82.12 59.77 82.11 59.65 82 58.65 81.07 60.02 81.09 61.4 81.12 62.8 81.24 63.55 81.31 63.6 82.06L63.73 84.22A.61.61 0 0 1 62.88 84.82Q62.21 84.53 62.46 83.98ZM119.31 81.54 119.61 86.04Q119.65 86.53 119.17 86.65 116.82 87.22 116.71 86.09 118.17 86.49 118.92 85.95 119.33 85.66 119.33 85.15L119.31 81.54ZM60.19 85.34 61.21 85.24A.63.62-13.3 0 1 61.86 85.64Q62 86 61.89 86.37 61.78 86.73 61.42 86.84 59.74 87.35 59.2 86.05 60.11 85.81 60.19 85.34ZM149.69 91.11Q149.49 91.74 149.15 90.79A.52.52 0 0 1 149.7 90.09L151.51 90.32A.59.58 10.7 0 0 152.15 89.89Q153.06 86.56 150.14 86.46 151.31 85.95 152.37 86.15 152.98 86.27 152.98 86.9L152.98 90.06Q152.98 90.77 152.27 90.85L149.69 91.11ZM56.27 86.44Q56.69 86.57 56.86 87.09A.6.59 79.1 0 1 56.34 87.86Q55.03 87.97 55.18 87.1 55.94 87.05 56.27 86.44Z" data-c-fill="7c8468" data-o-fill=".996"></path><path fill="#EB6F24" fill-opacity=".996" d="M 149.65 91.63 Q 150.30 95.18 149.71 98.84 L 149.65 91.63 Z" data-c-fill="50524f" data-o-fill=".996"></path><path fill="#EB6F24" fill-opacity=".996" d="M 59.34 92.03 L 59.53 101.22 Q 59.54 101.78 58.99 101.66 L 56.37 101.05 L 58.68 100.90 Q 59.20 100.86 59.21 100.34 L 59.34 92.03 Z" data-c-fill="7c8468" data-o-fill=".996"></path><path fill="#EB6F24" fill-opacity=".996" d="M 149.64 100.96 L 152.20 101.03 Q 152.98 101.06 152.98 101.84 L 152.97 103.26 Q 152.97 104.00 152.24 104.00 L 138.27 103.99 Q 137.74 103.99 137.74 104.52 L 137.64 126.68 L 137.30 103.72 Q 137.30 103.20 137.82 103.20 L 151.96 103.40 Q 152.33 103.41 152.37 103.04 L 152.42 102.35 Q 152.48 101.72 151.85 101.73 L 149.79 101.78 Q 149.24 101.79 149.33 101.25 Q 149.38 100.94 149.64 100.96 Z" data-c-fill="50524f" data-o-fill=".996"></path><path fill="#EB6F24" fill-opacity=".996" d="M71.64 104.21Q71.16 104.27 71.4 104.02L58.18 103.98Q58.47 103.51 59 103.52 65.11 103.6 71.22 103.33 71.79 103.3 71.69 103.85L71.64 104.21ZM115.98 130.24 116.01 104.54Q116.01 104.04 115.52 104.04L92.67 103.78 116.22 103.7Q116.69 103.7 116.69 104.17L116.76 129.17Q116.76 129.61 117.05 129.93 117.16 130.06 117.2 130.23 117.27 130.52 117 130.64 115.25 131.43 115.98 130.24Z" data-c-fill="7c8468" data-o-fill=".996"></path><path fill="#EB6F24" fill-opacity=".996" d="M71.4 104.02Q71.16 104.27 71.64 104.21L71.68 127.34Q71.68 127.68 71.35 127.59 70.91 127.47 70.93 127.03L71.4 104.02ZM63.73 128.06Q61.21 129.5 58.35 128.22L63.73 128.06ZM201.08 128.17Q198.74 129.12 195.37 128.23L201.08 128.17ZM192.6 129.16Q191.52 130.13 188.54 129.34L192.6 129.16ZM22.14 130.14Q23.53 129.85 24.85 130.24 23.26 130.79 22.14 130.14ZM49.87 130.14Q48.14 131.14 45.58 130.21 47.78 129.82 49.87 130.14ZM158.67 130.05 162.87 130.25Q160.4 131.21 158.67 130.05ZM187.55 130.1Q187.22 130.79 186.5 130.81 185.26 130.84 181.76 130.32L187.55 130.1ZM30.35 131.05 41.6 131.24Q38.64 131.81 34.5 131.84 32.31 131.86 30.35 131.05Z" data-c-fill="50524f" data-o-fill=".996"></path><path fill="#EB6F24" fill-opacity=".996" d="M 97.46 131.11 L 110.85 131.21 Q 104.23 132.55 97.46 131.11 Z" data-c-fill="7c8468" data-o-fill=".996"></path><path fill="#EB6F24" fill-opacity=".996" d="M167.25 131.09 178.65 131.16Q173.05 132.36 167.25 131.09ZM81.79 131.8 57.72 131.7Q69.61 130.82 81.79 131.8ZM133.47 131.81 127.5 131.78 133.47 131.81ZM198.5 131.78 195.77 131.93Q196.73 131.16 198.5 131.78ZM56.52 132.73 52.31 132.87Q54.16 132.29 56.52 132.73Z" data-c-fill="50524f" data-o-fill=".996"></path><path fill="#EB6F24" fill-opacity=".996" d="M 87.69 132.90 L 84.17 132.81 Q 86.47 132.13 87.69 132.90 Z" data-c-fill="7c8468" data-o-fill=".996"></path><path fill="#EB6F24" fill-opacity=".996" d="M188.15 133.69 183.47 133.9Q185.53 132.66 188.15 133.69ZM50.22 133.71Q48.43 134.15 46.42 133.81 47.98 133.1 50.22 133.71Z" data-c-fill="50524f" data-o-fill=".996"></path><path fill="#EB6F24" fill-opacity=".996" d="M93.86 133.86Q91.11 134.26 88.51 133.7 91.44 132.92 93.86 133.86ZM118.01 133.71Q116.78 134.19 115.41 133.8 116.26 133.03 118.01 133.71Z" data-c-fill="7c8468" data-o-fill=".996"></path><path fill="#EB6F24" fill-opacity=".996" d="M 162.24 133.96 L 158.74 133.75 Q 160.99 132.77 162.24 133.96 Z" data-c-fill="50524f" data-o-fill=".996"></path><path fill="#EB6F24" fill-opacity=".996" d="M 95.28 134.62 L 111.51 134.74 L 95.28 134.62 Z" data-c-fill="7c8468" data-o-fill=".996"></path></svg></svg> <!----></g></g></mask></svg>