<svg viewBox="0 0 1000 1000" xmlns="http://www.w3.org/2000/svg"><defs><clipPath id="a"><path fill="currentColor" d="M782.5 590q-35.5 90-95 197.5t-185 100Q377 880 283 803T121.5 613Q54 500 93 366t157-202.5q118-68.5 225 8t248.5 70q141.5-6.5 118 126t-59 222.5Z"/></clipPath><pattern id="b" patternUnits="userSpaceOnUse" width="25" height="25" viewBox="0 0 100 100" fill="#f47425"><circle cx="25" cy="25" r="8.333"/><circle cx="75" cy="75" r="8.333"/></pattern></defs><g clip-path="url(#a)"><path fill="url(#b)" d="M782.5 590q-35.5 90-95 197.5t-185 100Q377 880 283 803T121.5 613Q54 500 93 366t157-202.5q118-68.5 225 8t248.5 70q141.5-6.5 118 126t-59 222.5Z"/></g></svg>