<?xml version="1.0" encoding="UTF-8"?>
<svg xmlns="http://www.w3.org/2000/svg" xmlns:xlink="http://www.w3.org/1999/xlink" width="2001" height="2001" viewBox="0 0 2001 2001">
<path fill-rule="evenodd" fill="rgb(70.117188%, 70.117188%, 70.117188%)" fill-opacity="1" d="M 1047.710938 1123.976562 L 1139.398438 1123.976562 L 1139.398438 1698.257812 L 1094.449219 1817.394531 L 1047.710938 1698.257812 L 1047.710938 1123.976562 "/>
<path fill-rule="nonzero" fill="rgb(0%, 0%, 0%)" fill-opacity="1" d="M 1047.710938 1104.59375 L 1158.78125 1104.59375 L 1158.78125 1701.65625 L 1157.488281 1705.070312 L 1112.550781 1824.210938 L 1094.800781 1871.242188 L 1076.441406 1824.4375 L 1029.691406 1705.296875 L 1028.328125 1701.824219 L 1028.328125 1104.59375 Z M 1120.019531 1143.355469 L 1067.089844 1143.355469 L 1067.089844 1694.6875 L 1094.101562 1763.550781 L 1120.019531 1694.855469 L 1120.019531 1143.355469 "/>
<path fill-rule="evenodd" fill="rgb(65.818787%, 76.171875%, 88.28125%)" fill-opacity="1" d="M 995.828125 730.230469 L 1191.28125 730.230469 L 1191.28125 1093.59375 C 1191.28125 1115.714844 1173.179688 1133.8125 1151.058594 1133.8125 L 1036.039062 1133.8125 C 1013.921875 1133.8125 995.828125 1115.714844 995.828125 1093.59375 L 995.828125 730.230469 "/>
<path fill-rule="nonzero" fill="rgb(0%, 0%, 0%)" fill-opacity="1" d="M 995.828125 710.851562 L 1210.660156 710.851562 L 1210.660156 1093.59375 C 1210.660156 1110.003906 1203.960938 1124.90625 1193.160156 1135.699219 C 1182.371094 1146.492188 1167.46875 1153.191406 1151.058594 1153.191406 L 1036.039062 1153.191406 C 1019.628906 1153.191406 1004.730469 1146.492188 993.9375 1135.699219 C 983.144531 1124.90625 976.445312 1110.003906 976.445312 1093.59375 L 976.445312 710.851562 Z M 1171.898438 749.609375 L 1015.210938 749.609375 L 1015.210938 1093.59375 C 1015.210938 1099.304688 1017.558594 1104.511719 1021.339844 1108.296875 C 1025.128906 1112.082031 1030.328125 1114.429688 1036.039062 1114.429688 L 1151.058594 1114.429688 C 1156.769531 1114.429688 1161.980469 1112.082031 1165.761719 1108.296875 C 1169.550781 1104.511719 1171.898438 1099.304688 1171.898438 1093.59375 L 1171.898438 749.609375 "/>
<path fill-rule="evenodd" fill="rgb(70.117188%, 70.117188%, 70.117188%)" fill-opacity="1" d="M 520.585938 326.761719 L 1666.519531 326.761719 C 1687.148438 326.761719 1704.03125 343.640625 1704.03125 364.269531 L 1704.03125 406.28125 C 1704.03125 426.910156 1687.148438 443.789062 1666.519531 443.789062 L 520.585938 443.789062 C 499.953125 443.789062 483.074219 426.910156 483.074219 406.28125 L 483.074219 364.269531 C 483.074219 343.640625 499.953125 326.761719 520.585938 326.761719 "/>
<path fill-rule="nonzero" fill="rgb(0%, 0%, 0%)" fill-opacity="1" d="M 520.585938 307.378906 L 1666.519531 307.378906 C 1682.179688 307.378906 1696.410156 313.769531 1706.710938 324.078125 C 1717.011719 334.378906 1723.410156 348.601562 1723.410156 364.269531 L 1723.410156 406.28125 C 1723.410156 421.941406 1717.011719 436.171875 1706.710938 446.46875 C 1696.410156 456.769531 1682.179688 463.171875 1666.519531 463.171875 L 520.585938 463.171875 C 504.921875 463.171875 490.691406 456.769531 480.390625 446.46875 C 470.089844 436.171875 463.695312 421.941406 463.695312 406.28125 L 463.695312 364.269531 C 463.695312 348.601562 470.089844 334.378906 480.390625 324.078125 C 490.691406 313.769531 504.921875 307.378906 520.585938 307.378906 Z M 1666.519531 346.140625 L 520.585938 346.140625 C 515.617188 346.140625 511.089844 348.191406 507.796875 351.480469 C 504.5 354.78125 502.453125 359.300781 502.453125 364.269531 L 502.453125 406.28125 C 502.453125 411.238281 504.5 415.769531 507.796875 419.070312 C 511.089844 422.359375 515.617188 424.410156 520.585938 424.410156 L 1666.519531 424.410156 C 1671.480469 424.410156 1676.011719 422.359375 1679.308594 419.070312 C 1682.601562 415.769531 1684.648438 411.238281 1684.648438 406.28125 L 1684.648438 364.269531 C 1684.648438 359.300781 1682.601562 354.78125 1679.308594 351.480469 C 1676.011719 348.191406 1671.480469 346.140625 1666.519531 346.140625 "/>
<path fill-rule="evenodd" fill="rgb(22.75238%, 30.200195%, 36.083984%)" fill-opacity="1" d="M 956.011719 639.128906 L 1231.089844 639.128906 L 1231.089844 710.121094 C 1231.089844 721.179688 1222.039062 730.230469 1210.980469 730.230469 L 976.121094 730.230469 C 965.0625 730.230469 956.011719 721.179688 956.011719 710.121094 L 956.011719 639.128906 "/>
<path fill-rule="nonzero" fill="rgb(0%, 0%, 0%)" fill-opacity="1" d="M 956.011719 619.75 L 1250.46875 619.75 L 1250.46875 710.128906 C 1250.46875 721 1246.03125 730.878906 1238.878906 738.03125 C 1231.738281 745.179688 1221.859375 749.609375 1210.980469 749.609375 L 976.121094 749.609375 C 965.242188 749.609375 955.363281 745.179688 948.21875 738.03125 C 941.070312 730.878906 936.632812 721 936.632812 710.128906 L 936.632812 619.75 Z M 1211.710938 658.511719 L 975.394531 658.511719 L 975.394531 710.128906 C 975.394531 710.308594 975.480469 710.480469 975.621094 710.621094 C 975.761719 710.769531 975.941406 710.851562 976.121094 710.851562 L 1210.980469 710.851562 C 1211.160156 710.851562 1211.339844 710.769531 1211.480469 710.621094 C 1211.621094 710.480469 1211.710938 710.308594 1211.710938 710.128906 L 1211.710938 658.511719 "/>
<path fill-rule="evenodd" fill="rgb(22.75238%, 30.200195%, 36.083984%)" fill-opacity="1" d="M 857.296875 485.410156 L 857.296875 285.140625 L 786.300781 285.140625 C 775.242188 285.140625 766.191406 294.191406 766.191406 305.238281 L 766.191406 465.300781 C 766.191406 476.359375 775.242188 485.410156 786.300781 485.410156 L 857.296875 485.410156 "/>
<path fill-rule="nonzero" fill="rgb(0%, 0%, 0%)" fill-opacity="1" d="M 837.917969 466.03125 L 837.917969 304.519531 L 786.300781 304.519531 C 786.121094 304.519531 785.941406 304.601562 785.800781 304.75 C 785.660156 304.890625 785.574219 305.058594 785.574219 305.238281 L 785.574219 465.300781 C 785.574219 465.480469 785.660156 465.660156 785.800781 465.800781 C 785.941406 465.941406 786.121094 466.03125 786.300781 466.03125 Z M 876.675781 285.140625 L 876.675781 504.789062 L 786.300781 504.789062 C 775.421875 504.789062 765.546875 500.351562 758.398438 493.210938 C 751.25 486.058594 746.8125 476.179688 746.8125 465.300781 L 746.8125 305.238281 C 746.8125 294.371094 751.25 284.488281 758.398438 277.339844 C 765.546875 270.191406 775.421875 265.761719 786.300781 265.761719 L 876.675781 265.761719 L 876.675781 285.140625 "/>
<path fill-rule="evenodd" fill="rgb(22.75238%, 30.200195%, 36.083984%)" fill-opacity="1" d="M 1329.800781 485.410156 L 1329.800781 285.140625 L 1400.800781 285.140625 C 1411.859375 285.140625 1420.910156 294.191406 1420.910156 305.238281 L 1420.910156 465.300781 C 1420.910156 476.359375 1411.859375 485.410156 1400.800781 485.410156 L 1329.800781 485.410156 "/>
<path fill-rule="nonzero" fill="rgb(0%, 0%, 0%)" fill-opacity="1" d="M 1310.429688 485.410156 L 1310.429688 265.761719 L 1400.800781 265.761719 C 1411.679688 265.761719 1421.558594 270.191406 1428.710938 277.339844 C 1435.851562 284.488281 1440.289062 294.371094 1440.289062 305.238281 L 1440.289062 465.300781 C 1440.289062 476.179688 1435.851562 486.058594 1428.710938 493.210938 C 1421.558594 500.351562 1411.679688 504.789062 1400.800781 504.789062 L 1310.429688 504.789062 Z M 1349.179688 304.519531 L 1349.179688 466.03125 L 1400.800781 466.03125 C 1400.980469 466.03125 1401.160156 465.941406 1401.300781 465.800781 C 1401.441406 465.660156 1401.53125 465.480469 1401.53125 465.300781 L 1401.53125 305.238281 C 1401.53125 305.058594 1401.441406 304.890625 1401.300781 304.75 C 1401.160156 304.601562 1400.980469 304.519531 1400.800781 304.519531 L 1349.179688 304.519531 "/>
<path fill-rule="evenodd" fill="rgb(98.826599%, 63.867188%, 6.665039%)" fill-opacity="1" d="M 1028.308594 150.480469 L 1158.789062 150.480469 C 1258.660156 150.480469 1340.910156 229.78125 1345.679688 328.519531 C 1177.601562 288.699219 1009.53125 289.671875 841.457031 327.839844 C 846.570312 229.410156 928.671875 150.480469 1028.308594 150.480469 Z M 1345.679688 328.519531 C 1345.820312 331.53125 1345.898438 334.550781 1345.898438 337.589844 L 1345.898438 567.691406 C 1345.898438 606.980469 1313.75 639.128906 1274.460938 639.128906 L 912.640625 639.128906 C 873.351562 639.128906 841.203125 606.980469 841.203125 567.691406 L 841.203125 337.589844 C 841.203125 334.320312 841.289062 331.070312 841.457031 327.839844 C 1009.53125 289.671875 1177.601562 288.699219 1345.679688 328.519531 "/>
<path fill-rule="nonzero" fill="rgb(0%, 0%, 0%)" fill-opacity="1" d="M 1028.308594 130.761719 L 1158.789062 130.761719 C 1213.828125 130.761719 1264.03125 152.570312 1301.199219 187.980469 C 1335.089844 220.261719 1358.109375 263.890625 1364.050781 312.621094 L 1364.601562 312.75 L 1365.320312 327.601562 L 1365.320312 327.671875 L 1366.578125 353.738281 L 1365.621094 353.511719 L 1365.621094 567.691406 C 1365.621094 592.78125 1355.371094 615.570312 1338.859375 632.089844 C 1322.351562 648.601562 1299.550781 658.851562 1274.460938 658.851562 L 912.640625 658.851562 C 887.550781 658.851562 864.757812 648.601562 848.242188 632.089844 C 831.730469 615.570312 821.480469 592.78125 821.480469 567.691406 L 821.480469 352.539062 L 820.464844 352.769531 L 821.8125 326.839844 L 822.585938 311.96875 L 823.144531 311.839844 C 829.238281 263.300781 852.300781 219.871094 886.148438 187.738281 C 923.308594 152.46875 973.414062 130.761719 1028.308594 130.761719 Z M 1158.789062 170.199219 L 1028.308594 170.199219 C 983.835938 170.199219 943.292969 187.738281 913.265625 216.238281 C 889.113281 239.171875 871.734375 269.148438 864.542969 302.761719 C 940.808594 287.25 1017.148438 279.320312 1093.570312 279.289062 C 1170.078125 279.25 1246.449219 287.109375 1322.648438 303.171875 C 1315.539062 269.5 1298.210938 239.460938 1274.078125 216.480469 C 1244.019531 187.839844 1203.378906 170.199219 1158.789062 170.199219 Z M 1326.179688 344.269531 C 1248.460938 326.988281 1170.929688 318.539062 1093.570312 318.578125 C 1016.101562 318.609375 938.554688 327.101562 860.925781 343.691406 L 860.925781 567.691406 C 860.925781 581.890625 866.746094 594.820312 876.132812 604.199219 C 885.515625 613.578125 898.441406 619.410156 912.640625 619.410156 L 1274.460938 619.410156 C 1288.660156 619.410156 1301.589844 613.578125 1310.96875 604.199219 C 1320.351562 594.820312 1326.179688 581.890625 1326.179688 567.691406 L 1326.179688 344.269531 "/>
<path fill-rule="evenodd" fill="rgb(22.75238%, 30.200195%, 36.083984%)" fill-opacity="1" d="M 1165.941406 301.019531 L 1165.941406 485.121094 C 1165.941406 507.238281 1147.839844 525.339844 1125.71875 525.339844 L 1061.378906 525.339844 C 1039.261719 525.339844 1021.160156 507.238281 1021.160156 485.121094 L 1021.160156 300.21875 C 1068.820312 295.949219 1115.96875 295.128906 1165.941406 301.019531 "/>
<path fill-rule="nonzero" fill="rgb(0%, 0%, 0%)" fill-opacity="1" d="M 1185.320312 301.019531 L 1185.320312 485.121094 C 1185.320312 501.53125 1178.621094 516.441406 1167.828125 527.230469 C 1157.039062 538.019531 1142.128906 544.71875 1125.71875 544.71875 L 1061.378906 544.71875 C 1044.96875 544.71875 1030.070312 538.019531 1019.269531 527.230469 C 1008.480469 516.441406 1001.78125 501.53125 1001.78125 485.121094 L 1001.78125 282.570312 L 1019.5 280.988281 C 1043.859375 278.808594 1068.109375 277.511719 1092.679688 277.511719 C 1117.671875 277.511719 1142.699219 278.800781 1168.140625 281.789062 L 1185.320312 283.820312 Z M 1146.558594 485.121094 L 1146.558594 318.46875 C 1128.148438 316.839844 1110.261719 316.109375 1092.679688 316.109375 C 1075.21875 316.121094 1057.890625 316.808594 1040.539062 318.03125 L 1040.539062 485.121094 C 1040.539062 490.828125 1042.890625 496.039062 1046.679688 499.820312 C 1050.460938 503.609375 1055.671875 505.960938 1061.378906 505.960938 L 1125.71875 505.960938 C 1131.429688 505.960938 1136.640625 503.609375 1140.421875 499.820312 C 1144.210938 496.039062 1146.558594 490.828125 1146.558594 485.121094 "/>
<path fill-rule="evenodd" fill="rgb(0%, 0%, 0%)" fill-opacity="1" d="M 1060.679688 787.550781 C 1071.289062 787.550781 1079.980469 796.238281 1079.980469 806.859375 L 1079.980469 1060.21875 C 1079.980469 1070.835938 1071.289062 1079.519531 1060.679688 1079.519531 C 1050.058594 1079.519531 1041.371094 1070.835938 1041.371094 1060.21875 L 1041.371094 806.859375 C 1041.371094 796.238281 1050.058594 787.550781 1060.679688 787.550781 "/>
<path fill="none" stroke-width="5.6693" stroke-linecap="butt" stroke-linejoin="miter" stroke="rgb(0%, 0%, 0%)" stroke-opacity="1" stroke-miterlimit="22.9256" d="M 10606.796875 12134.492188 C 10712.890625 12134.492188 10799.804688 12047.617188 10799.804688 11941.40625 L 10799.804688 9407.8125 C 10799.804688 9301.640625 10712.890625 9214.804688 10606.796875 9214.804688 C 10500.585938 9214.804688 10413.710938 9301.640625 10413.710938 9407.8125 L 10413.710938 11941.40625 C 10413.710938 12047.617188 10500.585938 12134.492188 10606.796875 12134.492188 Z M 10606.796875 12134.492188 " transform="matrix(0.1, 0, 0, -0.1, 0, 2001)"/>
<path fill-rule="evenodd" fill="rgb(0%, 0%, 0%)" fill-opacity="1" d="M 1126.429688 787.550781 C 1137.039062 787.550781 1145.730469 796.238281 1145.730469 806.859375 L 1145.730469 1060.21875 C 1145.730469 1070.835938 1137.039062 1079.519531 1126.429688 1079.519531 C 1115.808594 1079.519531 1107.121094 1070.835938 1107.121094 1060.21875 L 1107.121094 806.859375 C 1107.121094 796.238281 1115.808594 787.550781 1126.429688 787.550781 "/>
<path fill="none" stroke-width="5.6693" stroke-linecap="butt" stroke-linejoin="miter" stroke="rgb(0%, 0%, 0%)" stroke-opacity="1" stroke-miterlimit="22.9256" d="M 11264.296875 12134.492188 C 11370.390625 12134.492188 11457.304688 12047.617188 11457.304688 11941.40625 L 11457.304688 9407.8125 C 11457.304688 9301.640625 11370.390625 9214.804688 11264.296875 9214.804688 C 11158.085938 9214.804688 11071.210938 9301.640625 11071.210938 9407.8125 L 11071.210938 11941.40625 C 11071.210938 12047.617188 11158.085938 12134.492188 11264.296875 12134.492188 Z M 11264.296875 12134.492188 " transform="matrix(0.1, 0, 0, -0.1, 0, 2001)"/>
<path fill-rule="nonzero" fill="rgb(0%, 0%, 0%)" fill-opacity="1" d="M 835.164062 560.980469 C 778.636719 555.621094 737.148438 562.359375 708.171875 577.550781 C 681.285156 591.640625 665.167969 613.539062 657.757812 639.890625 C 649.898438 667.828125 651.449219 701.058594 660.167969 735.851562 C 676.945312 802.839844 719.804688 874.199219 773.660156 925.761719 L 774.113281 926.210938 C 909.902344 1066.09375 946.171875 1178.9375 927.960938 1259.449219 C 918.945312 1299.300781 896.894531 1331.132812 866.867188 1354.527344 C 837.492188 1377.410156 800.640625 1392.058594 761.1875 1398.058594 C 668.964844 1412.082031 560.957031 1379.035156 500.730469 1293.453125 C 445.808594 1215.40625 447.980469 1096.878906 449.96875 988.578125 C 451.453125 907.648438 452.824219 832.800781 429.769531 792.460938 C 382.242188 709.289062 307.9375 760.140625 307.722656 760.28125 C 278.394531 772.289062 266.679688 742.320312 286.222656 728.191406 C 286.539062 727.980469 395.085938 653.710938 463.382812 773.230469 C 491.628906 822.660156 490.160156 902.679688 488.574219 989.179688 C 486.699219 1091.449219 484.648438 1203.375 532.371094 1271.195312 C 583.523438 1343.878906 676.097656 1371.816406 755.433594 1359.753906 C 788.621094 1354.707031 819.210938 1342.699219 843.09375 1324.09375 C 866.324219 1305.996094 883.351562 1281.503906 890.261719 1250.972656 C 905.84375 1182.078125 871.566406 1082.167969 746.621094 953.378906 C 687.875 897.058594 641.0625 818.871094 622.621094 745.238281 C 612.339844 704.199219 610.738281 664.191406 620.511719 629.441406 C 630.730469 593.109375 653.039062 562.871094 690.308594 543.328125 C 725.640625 524.808594 774.320312 516.410156 838.796875 522.519531 L 835.164062 560.980469 "/>
</svg>
