<?xml version="1.0" encoding="utf-8"?>
<!-- Generator: Adobe Illustrator 27.5.0, SVG Export Plug-In . SVG Version: 6.00 Build 0)  -->
<svg version="1.1" id="Слой_1" xmlns="http://www.w3.org/2000/svg" xmlns:xlink="http://www.w3.org/1999/xlink" x="0px" y="0px"
	 viewBox="0 0 1586.286 1300" style="enable-background:new 0 0 1586.286 1300;" xml:space="preserve">
<rect x="0" style="fill:transparent;" width="1586.286" height="1300"/>
<g>
	<g>
		<g>
			<ellipse transform="matrix(0.7071 -0.7071 0.7071 0.7071 -466.23 816.4935)" cx="752.48" cy="971.036" rx="96.422" ry="96.422"/>
			
				<ellipse transform="matrix(0.7071 -0.7071 0.7071 0.7071 -350.0977 1144.7513)" cx="1206.788" cy="994.981" rx="72.477" ry="72.477"/>
			
				<rect x="689.636" y="727.721" transform="matrix(-0.9247 -0.3806 0.3806 -0.9247 1093.6658 1682.1549)" style="fill:#ADA2A4;" width="47.059" height="10.429"/>
			<polygon style="opacity:0.8;fill:#ABA2A3;" points="734.217,743.609 732.939,746.713 689.422,728.801 690.707,725.68 			"/>
			
				<rect x="720.736" y="737.979" transform="matrix(-0.9247 -0.3806 0.3806 -0.9247 1148.6545 1718.6313)" style="fill:#201C1D;" width="47.059" height="15.515"/>
			<path style="fill:#ABA2A3;" d="M690.766,739.002h-4.255v-30.373h4.255c2.618,0,4.741,2.123,4.741,4.741v20.891
				C695.507,736.879,693.384,739.002,690.766,739.002z"/>
			<path style="opacity:0.8;fill:#ABA2A3;" d="M695.507,726.611v7.635c0,2.627-2.129,4.756-4.756,4.756h-4.241v-7.635h4.241
				C693.378,731.367,695.507,729.238,695.507,726.611z"/>
			<path style="fill:#737373;" d="M801.633,889.227c-4.916-64.162,21.911-245.112,93.188-379.516
				c14.734-27.779,43.202-45.036,74.3-45.036h159.082c29.676,0,53.825,24.144,53.825,53.82v370.732H801.633z M969.12,482.966
				c-24.309,0-46.589,13.53-58.134,35.315c-57.586,108.577-79.881,241.836-85.34,280.092c-2.616,18.272,2.82,36.742,14.899,50.671
				c12.065,13.914,29.545,21.887,47.967,21.887h239.37c19.766,0,35.849-16.083,35.849-35.849V518.495
				c0-19.591-15.937-35.529-35.529-35.529H969.12z"/>
			<path style="opacity:0.8;fill:#737373;" d="M801.173,889.72h366.374V518.496c0-29.999-24.319-54.318-54.318-54.318H969.121
				c-31.404,0-60.023,17.555-74.737,45.299C823.022,644.045,796.128,826.436,801.173,889.72z M811.158,798.441
				c11.646-81.555,39.595-193.766,85.288-279.929c11.465-21.619,33.574-35.05,57.7-35.05h14.975h144.108h14.975
				c19.348,0,35.033,15.685,35.033,35.034v316.585c0,19.526-15.828,35.355-35.354,35.355h-14.975H888.51h-14.975
				C835.148,870.436,805.732,836.442,811.158,798.441z"/>
			<path style="fill:#0D0D0D;" d="M836.331,694.107c3.791-5.033,9.514-7.629,15.342-7.771l-0.014-0.092l99.302,0.006l-54.047,150.09
				l19.001,30.24v15.106h-72.798l-38.569-26.516l-39.212-13.66C770.513,808.436,774.027,776.807,836.331,694.107z"/>
			<polygon style="fill:#F7B200;" points="783.254,851.15 783.254,907.159 853.759,877.807 868.512,848.612 849.41,845.972 			"/>
			<polygon style="fill:#F7B000;" points="783.254,851.15 744.266,952.246 853.759,877.807 868.512,848.612 849.41,845.972 			"/>
			<path style="fill:#0D0D0D;" d="M980.679,866.579h201.843V761.802H990.688c-5.528,0-10.01,4.482-10.01,10.01V866.579z"/>
			<path style="fill:#F7D800;" d="M742.835,760.71l43.335,17.819c9.287-6.5,13.588-15.29,11.181-27.163l-43.336-17.819
				c-2.344-0.965-5.026,0.153-5.991,2.497l-7.687,18.674C739.373,757.063,740.491,759.745,742.835,760.71z"/>
			<polygon style="fill:#F7B200;" points="829.407,837.651 783.254,837.651 783.254,851.15 830.593,851.15 			"/>
			<path style="opacity:0.7;fill:#F7B000;" d="M740.338,754.719l3.466-8.42c0.027,1.779,1.089,3.457,2.839,4.178l47.798,19.691
				c-2.065,3.179-4.811,5.975-8.28,8.362l-43.325-17.819C740.491,759.745,739.373,757.063,740.338,754.719z"/>
			<g>
				
					<rect x="647.64" y="407.648" transform="matrix(-1 -1.224647e-16 1.224647e-16 -1 1396.1069 879.02)" style="fill:#F7D800;" width="100.828" height="63.723"/>
				<path style="fill:#F7B200;" d="M358.751,955.203h252.658c4.277,0,7.745-3.467,7.745-7.744V716.939
					c0-6.278,4.701-11.905,10.97-12.233c6.686-0.35,12.217,4.968,12.217,11.577v241.446c0,11.411-9.251,20.662-20.662,20.662h-2.526
					H428.991c-15.535,0-30.926-2.987-45.333-8.797l-25.689-10.361C355.837,958.373,356.452,955.203,358.751,955.203z"/>
				<path style="fill:#1A1A1A;" d="M763.644,1001.731c12.292,0,22.257-9.965,22.257-22.256V407.648h-43.786
					c-0.401,0-0.727,0.325-0.727,0.727v571.099C741.388,991.766,751.352,1001.731,763.644,1001.731z"/>
				<path style="fill:#1A1A1A;" d="M796.484,471.372h-14.732v-63.723h45.293c0.901,0,1.632,0.731,1.632,1.632v29.898
					C828.677,456.958,814.264,471.372,796.484,471.372z"/>
				<path style="fill:#1A1A1A;" d="M664.254,1001.731c12.292,0,22.256-9.965,22.256-22.256V410.793c0-1.737-1.408-3.144-3.144-3.144
					h-37.497c-2.138,0-3.871,1.733-3.871,3.871v567.954C641.998,991.766,651.962,1001.731,664.254,1001.731z"/>
				<path style="fill:#F7D800;" d="M458.14,955.203h252.658c4.277,0,7.744-3.467,7.744-7.744V716.939
					c0-6.278,4.701-11.905,10.97-12.233c6.686-0.35,12.217,4.968,12.217,11.577v241.446c0,11.411-9.251,20.662-20.662,20.662
					c0,0-2.526,0-2.526,0H528.381c-15.535,0-30.926-2.987-45.333-8.797l-25.689-10.361
					C455.227,958.373,455.842,955.203,458.14,955.203z"/>
				
					<rect x="665.383" y="692.729" transform="matrix(6.123234e-17 -1 1 6.123234e-17 -57.3179 1411.272)" style="fill:#F7B200;" width="23.188" height="83.131"/>
				
					<rect x="665.901" y="798.786" transform="matrix(6.123234e-17 -1 1 6.123234e-17 -162.3389 1517.3284)" style="fill:#F7B200;" width="23.187" height="82.096"/>
				<path style="fill:#F7B200;" d="M718.12,471.372H642.42c-0.233,0-0.423-0.189-0.423-0.423v-59.317c0-2.2,1.784-3.984,3.984-3.984
					h68.577c2.2,0,3.984,1.784,3.984,3.984v59.317C718.543,471.183,718.353,471.372,718.12,471.372z"/>
			</g>
			
				<rect x="789.026" y="727.721" transform="matrix(-0.9247 -0.3806 0.3806 -0.9247 1284.9637 1719.9863)" style="fill:#ADA2A4;" width="47.059" height="10.429"/>
			<polygon style="opacity:0.8;fill:#ABA2A3;" points="833.607,743.609 832.329,746.713 788.812,728.801 790.097,725.68 			"/>
			
				<rect x="820.126" y="737.979" transform="matrix(-0.9247 -0.3806 0.3806 -0.9247 1339.9536 1756.4622)" style="fill:#201C1D;" width="47.059" height="15.515"/>
			<path style="fill:#FA0000;" d="M1414.331,813.348h16.404c4.048,0,7.329,3.281,7.329,7.329v40.945
				c0,4.048-3.281,7.329-7.329,7.329h-16.404V813.348z"/>
			<path style="fill:#1A1A1A;" d="M864.726,841.509c5.177-33.073,8.691-64.702,70.995-147.402
				c6.773-8.99,19.698-10.509,28.401-3.371l9.571,7.85c24.286,19.918,31.4,54.073,17.086,82.031l-3.796,7.415
				c-5.855,11.436-5.254,25.111,1.581,35.99l26.741,42.557v15.106h-72.799l-38.569-26.516L864.726,841.509z"/>
			<path style="fill:#F7D800;" d="M838.748,759.279l68.35,28.134l11.181-27.163l-68.35-28.134c-0.424-0.174-0.908,0.028-1.083,0.452
				l-10.549,25.629C838.122,758.62,838.324,759.105,838.748,759.279z"/>
			<path style="opacity:0.7;fill:#F7B000;" d="M839.728,754.719l3.466-8.42c0.027,1.779,1.089,3.457,2.839,4.178l65.219,26.846
				l-4.154,10.091l-64.873-26.703C839.881,759.745,838.763,757.063,839.728,754.719z"/>
			<path style="fill:#F7D800;" d="M880.585,847.739c6.749-35.194,23.977-91.65,39.004-86.64
				c20.852,6.952,47.829,27.181,68.976,62.922l26.741,42.557v15.106h-72.799l-38.569-26.516L880.585,847.739z"/>
			<path style="fill:#1A1A1A;" d="M1080.068,866.579h201.843V761.802h-97.066C1126.979,761.802,1080.068,808.712,1080.068,866.579
				L1080.068,866.579z"/>
			<path style="fill:#737373;" d="M901.023,889.227c-4.916-64.162,21.911-245.112,93.188-379.516
				c14.734-27.779,43.202-45.036,74.3-45.036h159.082c29.676,0,53.825,24.144,53.825,53.82v370.732H901.023z M1068.51,482.966
				c-24.309,0-46.589,13.53-58.134,35.315c-57.586,108.577-79.881,241.836-85.341,280.092c-2.616,18.272,2.82,36.742,14.899,50.671
				c12.064,13.914,29.545,21.887,47.967,21.887h239.371c19.766,0,35.849-16.083,35.849-35.849V518.495
				c0-19.591-15.937-35.529-35.529-35.529H1068.51z"/>
			<path style="opacity:0.8;fill:#737373;" d="M900.563,889.72h366.373V518.496c0-29.999-24.319-54.318-54.318-54.318h-144.108
				c-31.404,0-60.023,17.555-74.736,45.299C922.412,644.045,895.518,826.436,900.563,889.72z M910.548,798.441
				c11.646-81.555,39.595-193.766,85.287-279.929c11.465-21.619,33.574-35.05,57.7-35.05h14.975h144.108h14.975
				c19.348,0,35.033,15.685,35.033,35.034v316.585c0,19.526-15.828,35.355-35.354,35.355h-14.975H987.9h-14.975
				C934.538,870.436,905.122,836.442,910.548,798.441z"/>
			<path style="fill:#F7B200;" d="M1282.394,900.97h47.569c39.673,0,71.834,32.161,71.834,71.834v54.478l-14.593-8.196h-162.051
				l-14.593,8.196v-54.478C1210.559,933.131,1242.721,900.97,1282.394,900.97z"/>
			<polygon style="fill:#F7B200;" points="971.755,1027.282 959.019,1017.881 851.87,1017.881 851.87,874.614 864.726,841.51 
				931.579,871.561 965.326,917.683 977.54,976.982 			"/>
			<path style="fill:#F7B000;" d="M1282.394,900.97h47.569c39.673,0,71.834,32.161,71.834,71.834v54.478l-14.593-8.196h-162.051
				l-14.593,8.196v-54.478C1210.559,933.131,1242.721,900.97,1282.394,900.97z"/>
			<path style="fill:#F7D800;" d="M829.407,837.651h22.463c62.525,0,115.114,43.255,129.482,101.405h67.299
				c17.351,0,31.417-14.066,31.417-31.418v-41.06h193.764c4.462,0,8.08-3.617,8.08-8.08v-96.698h100.28
				c28.401,0,51.425,23.023,51.425,51.425c0,1.242-1.007,2.249-2.249,2.249h-0.564c-8.565,0-15.508,6.943-15.508,15.508v20.731
				c0,8.565,6.943,15.508,15.508,15.508h0.564c1.242,0,2.249,1.007,2.249,2.249v125.992c0,17.573-14.246,31.819-31.819,31.819
				v-54.478c0-39.673-32.161-71.834-71.834-71.834h-47.569c-39.673,0-71.834,32.161-71.834,71.834v54.478H985.254h-6.75h-6.749
				v-56.245c0-66.212-53.675-119.887-119.887-119.887h-22.821c-4.098,0-7.344-3.651-6.658-7.881
				C822.928,839.95,826.044,837.651,829.407,837.651z"/>
			<path style="fill:#F7B200;" d="M1387.204,1019.086v-24.715c0-63.878-28.342-81.349-81.349-81.349
				c-50.687,0-80.702,16.379-80.702,80.702v25.362H1387.204z"/>
			<g>
				<path style="fill:#F7B200;" d="M934.669,866.579h145.4v41.06c0,17.351-14.066,31.418-31.417,31.418h-67.299
					C974.169,909.985,957.429,884.658,934.669,866.579z"/>
			</g>
			<g>
				
					<ellipse transform="matrix(0.7071 -0.7071 0.7071 0.7071 -320.987 1215.0306)" cx="1306.178" cy="994.981" rx="72.477" ry="72.477"/>
				
					<ellipse transform="matrix(0.9526 -0.3043 0.3043 0.9526 -240.8105 444.6036)" style="fill:#F7B200;" cx="1306.178" cy="994.982" rx="40.587" ry="40.587"/>
				
					<ellipse transform="matrix(0.9526 -0.3043 0.3043 0.9526 -240.8105 444.6036)" style="opacity:0.6;fill:#F38901;" cx="1306.178" cy="994.982" rx="40.587" ry="40.587"/>
				
					<ellipse transform="matrix(0.9801 -0.1987 0.1987 0.9801 -172.1575 279.3947)" style="fill:#F7D800;" cx="1306.178" cy="997.579" rx="37.991" ry="37.991"/>
				<path d="M1306.178,1012.377c9.592,0,17.394-7.803,17.394-17.395c0-9.592-7.802-17.395-17.394-17.395
					c-9.592,0-17.395,7.803-17.395,17.395C1288.784,1004.574,1296.586,1012.377,1306.178,1012.377z"/>
				
					<ellipse transform="matrix(0.9056 -0.4242 0.4242 0.9056 -287.0451 645.4432)" cx="1306.178" cy="967.441" rx="3.927" ry="3.927"/>
				<path style="fill:#262626;" d="M1306.178,1012.377c9.592,0,17.394-7.803,17.394-17.395c0-9.592-7.802-17.395-17.394-17.395
					c-9.592,0-17.395,7.803-17.395,17.395C1288.784,1004.574,1296.586,1012.377,1306.178,1012.377z"/>
				
					<ellipse transform="matrix(0.9239 -0.3827 0.3827 0.9239 -292.4302 577.7969)" cx="1306.178" cy="1023.973" rx="3.927" ry="3.927"/>
				<path d="M1277.188,998.909c2.165,0,3.927-1.761,3.927-3.927c0-2.165-1.761-3.927-3.927-3.927c-2.166,0-3.927,1.761-3.927,3.927
					C1273.26,997.147,1275.022,998.909,1277.188,998.909z"/>
				
					<ellipse transform="matrix(0.9239 -0.3827 0.3827 0.9239 -282.1672 575.7534)" cx="1306.178" cy="997.156" rx="15.221" ry="15.221"/>
				<path d="M1335.24,998.909c2.165,0,3.927-1.761,3.927-3.927c0-2.165-1.762-3.927-3.927-3.927c-2.165,0-3.927,1.761-3.927,3.927
					C1331.313,997.147,1333.074,998.909,1335.24,998.909z"/>
			</g>
			<path style="fill:#F7B000;" d="M857.672,859.674l3.166-8.153c61.929,4.606,110.917,56.431,110.917,119.516v55.793l-12.736-8.949
				l0.565-55.24C955.549,902.529,916.062,864.166,857.672,859.674z"/>
			<path style="fill:#F7B200;" d="M859.026,485.391h388.098c5.858,0,10.606-4.749,10.606-10.606c0-5.858-4.749-10.607-10.606-10.607
				H859.026c-5.858,0-10.606,4.749-10.606,10.607C848.42,480.642,853.168,485.391,859.026,485.391z"/>
			<g>
				<path style="fill:#FA0000;" d="M1258.488,464.178h26.641l-4.633-30.903c-4.549-3.632-11.135-3.545-16.347,0L1258.488,464.178z"
					/>
				<path style="fill:#DC2C08;" d="M1264.149,433.275c3.37-2.292,7.28-2.974,10.877-2.305c-2.066,0.37-4.117,1.034-5.986,2.305
					l-5.661,30.903h-4.889L1264.149,433.275z"/>
			</g>
			<g>
				
					<ellipse transform="matrix(0.7071 -0.7071 0.7071 0.7071 -437.1194 886.7729)" cx="851.87" cy="971.036" rx="96.422" ry="96.422"/>
				<circle style="fill:#F7B200;" cx="851.87" cy="971.037" r="53.996"/>
				<circle style="opacity:0.6;fill:#F38901;" cx="851.87" cy="971.037" r="53.996"/>
				
					<ellipse transform="matrix(0.9732 -0.2298 0.2298 0.9732 -201.1043 221.7887)" style="fill:#F7D800;" cx="851.87" cy="974.492" rx="50.542" ry="50.542"/>
				
					<ellipse transform="matrix(0.4999 -0.8661 0.8661 0.4999 -414.9769 1223.4166)" cx="851.87" cy="971.037" rx="23.141" ry="23.141"/>
				<circle cx="851.87" cy="934.397" r="5.224"/>
				
					<ellipse transform="matrix(0.4999 -0.8661 0.8661 0.4999 -414.9769 1223.4166)" style="fill:#262626;" cx="851.87" cy="971.037" rx="23.141" ry="23.141"/>
				<circle cx="851.87" cy="1009.606" r="5.224"/>
				<path d="M813.301,976.262c2.881,0,5.224-2.343,5.224-5.224c0-2.881-2.343-5.224-5.224-5.224c-2.881,0-5.224,2.343-5.224,5.224
					C808.077,973.918,810.42,976.262,813.301,976.262z"/>
				
					<ellipse transform="matrix(0.9732 -0.2298 0.2298 0.9732 -200.9751 221.7737)" cx="851.87" cy="973.93" rx="20.249" ry="20.249"/>
				<path d="M890.533,976.262c2.881,0,5.224-2.343,5.224-5.224c0-2.881-2.343-5.224-5.224-5.224c-2.881,0-5.224,2.343-5.224,5.224
					C885.308,973.918,887.652,976.262,890.533,976.262z"/>
			</g>
			<path style="fill:#ABA2A3;" d="M790.193,739.002h-4.293v-30.373h4.293c2.598,0,4.703,2.106,4.703,4.703v20.966
				C794.897,736.896,792.791,739.002,790.193,739.002z"/>
			<circle cx="1345.325" cy="866.418" r="17.395"/>
			<path style="fill:#262626;" d="M1331.787,866.417c0-7.465,6.073-13.537,13.539-13.537c7.463,0,13.537,6.071,13.537,13.537
				c0,6.722-4.937,12.273-11.366,13.321v-15.491h-4.343v15.491C1336.723,878.689,1331.787,873.138,1331.787,866.417z"/>
			<path d="M1343.154,864.247c0-1.199,0.972-2.171,2.171-2.171c1.199,0,2.171,0.972,2.171,2.171v15.491
				c-0.711,0.116-1.427,0.219-2.171,0.219c-0.744,0-1.461-0.104-2.173-0.22v-15.491H1343.154z"/>
			<g>
				<path d="M971.505,963.644h239.703c-0.149,1.17-0.272,2.344-0.364,3.53c-0.165,1.858-0.284,3.729-0.284,5.63v54.478H985.254
					h-6.75h-6.749v-56.245C971.755,968.553,971.654,966.091,971.505,963.644z"/>
				<g>
					<path style="fill:#F7D800;" d="M1210.73,969.43c-0.07,1.121-0.17,2.234-0.17,3.374v10.92l-8.252-14.293H1210.73z"/>
					<polygon style="fill:#F7D800;" points="1174.473,969.43 1204.534,1021.498 1176.7,1021.498 1146.639,969.43 					"/>
					<polygon style="fill:#F7D800;" points="971.755,1004.935 981.318,1021.498 971.755,1021.498 					"/>
					<polygon style="fill:#F7D800;" points="1007.02,969.43 1037.082,1021.498 1009.247,1021.498 979.186,969.43 					"/>
					<polygon style="fill:#F7D800;" points="1118.548,969.43 1148.61,1021.498 1120.775,1021.498 1090.714,969.43 					"/>
					<polygon style="fill:#F7D800;" points="1062.784,969.43 1092.845,1021.498 1065.011,1021.498 1034.95,969.43 					"/>
				</g>
				<g>
					<path d="M1401.149,963.644h32.467v31.819c0,17.573-14.246,31.819-31.819,31.819v-54.478
						C1401.797,969.693,1401.533,966.65,1401.149,963.644z"/>
					<g>
						<polygon style="fill:#F7D800;" points="1433.616,969.43 1433.616,983.337 1425.587,969.43 						"/>
						<path style="fill:#F7D800;" d="M1401.797,976.435l23.402,40.534c-1.549,1.685-3.266,3.209-5.144,4.529h-18.258V976.435z"/>
					</g>
				</g>
			</g>
			<path style="fill:#F7B000;" d="M1281.912,818.368h139.925c-1.415,1.008-2.65,2.242-3.656,3.658h-136.268V818.368z"/>
			<path style="fill:#F7B000;" d="M1278.254,901.179v-35.928c2.2-1.444,3.658-3.924,3.658-6.752v42.494
				C1280.679,901.002,1279.471,901.109,1278.254,901.179z"/>
			<g>
				<path style="fill:#201C1D;" d="M1369.72,795.43h5.233c0.153,0,0.276-0.124,0.276-0.276v-33.352h-5.785v33.352
					C1369.444,795.306,1369.568,795.43,1369.72,795.43z"/>
				<path style="fill:#201C1D;" d="M1358.15,795.43h5.233c0.153,0,0.276-0.124,0.276-0.276v-33.352h-5.785v33.352
					C1357.873,795.306,1357.997,795.43,1358.15,795.43z"/>
				<path style="fill:#201C1D;" d="M1346.579,795.43h5.233c0.153,0,0.276-0.124,0.276-0.276v-33.352h-5.785v33.352
					C1346.303,795.306,1346.426,795.43,1346.579,795.43z"/>
				<path style="fill:#201C1D;" d="M1335.008,795.43h5.233c0.153,0,0.276-0.124,0.276-0.276v-33.352h-5.785v33.352
					C1334.732,795.306,1334.856,795.43,1335.008,795.43z"/>
			</g>
			<path d="M1122.709,452.087h21.427c4.6,0,8.33,3.729,8.33,8.33v3.761h-38.087v-3.761
				C1114.379,455.817,1118.108,452.087,1122.709,452.087z"/>
			<polygon points="1136.036,400.578 1130.807,400.578 1126.432,458.249 1140.412,458.249 			"/>
			<path d="M1140.167,397.926c0-3.725-3.02-6.745-6.746-6.745c-3.725,0-6.745,3.02-6.745,6.745c0,3.725,3.02,6.745,6.745,6.745
				C1137.147,404.672,1140.167,401.651,1140.167,397.926z"/>
			<g>
				<g>
					<g>
						<g>
							<path style="fill:#F7D800;" d="M1324.321,385.511c0.936,1.622,2.682,2.723,4.695,2.736c3.016,0.026,5.486-2.402,5.51-5.421
								c0.188-23.284-6.045-46.552-18.024-67.3c-11.975-20.742-29.006-37.767-49.242-49.235c-2.627-1.488-5.965-0.564-7.45,2.061
								c-1.499,2.629-0.573,5.971,2.06,7.455c18.544,10.504,34.16,26.131,45.162,45.187c11.004,19.058,16.73,40.411,16.557,61.742
								C1323.582,383.746,1323.849,384.694,1324.321,385.511z"/>
						</g>
						<g>
							<path style="fill:#F7D800;" d="M1298.803,385.297c0.936,1.622,2.682,2.723,4.695,2.736c3.016,0.026,5.486-2.403,5.51-5.422
								c0.309-38.296-21.015-75.245-54.325-94.122c-2.627-1.488-5.965-0.564-7.45,2.061c-1.499,2.629-0.577,5.964,2.06,7.455
								c29.918,16.947,49.058,50.127,48.779,84.516C1298.064,383.533,1298.331,384.48,1298.803,385.297z"/>
						</g>
						<g>
							<path style="fill:#F7D800;" d="M1273.289,385.078c0.936,1.622,2.682,2.723,4.695,2.736c3.016,0.026,5.486-2.403,5.51-5.422
								c0.241-29.029-16.149-57.403-41.386-71.697c-2.627-1.488-5.965-0.564-7.456,2.065c-1.491,2.628-0.564,5.957,2.066,7.452
								c21.843,12.373,36.047,36.962,35.84,62.09C1272.55,383.313,1272.818,384.261,1273.289,385.078z"/>
						</g>
					</g>
					<g>
						<g>
							<path style="fill:#F7D800;" d="M942.523,385.511c-0.936,1.622-2.682,2.723-4.695,2.736c-3.016,0.026-5.486-2.402-5.51-5.421
								c-0.188-23.284,6.045-46.552,18.023-67.3c11.975-20.742,29.007-37.767,49.242-49.235c2.627-1.488,5.965-0.564,7.451,2.061
								c1.499,2.629,0.573,5.971-2.06,7.455c-18.544,10.504-34.16,26.131-45.161,45.187c-11.003,19.059-16.73,40.411-16.557,61.742
								C943.262,383.746,942.994,384.694,942.523,385.511z"/>
						</g>
						<g>
							<path style="fill:#F7D800;" d="M968.041,385.297c-0.936,1.622-2.682,2.723-4.695,2.736c-3.016,0.026-5.486-2.403-5.51-5.422
								c-0.309-38.296,21.015-75.245,54.325-94.122c2.627-1.488,5.965-0.564,7.45,2.061c1.499,2.629,0.577,5.964-2.06,7.455
								c-29.918,16.947-49.058,50.127-48.779,84.516C968.78,383.533,968.513,384.48,968.041,385.297z"/>
						</g>
						<g>
							<path style="fill:#F7D800;" d="M993.554,385.078c-0.936,1.622-2.682,2.723-4.695,2.736c-3.016,0.026-5.486-2.403-5.51-5.422
								c-0.242-29.029,16.149-57.403,41.386-71.697c2.627-1.488,5.965-0.564,7.457,2.065c1.491,2.628,0.564,5.957-2.066,7.452
								c-21.843,12.373-36.048,36.962-35.84,62.09C994.294,383.313,994.026,384.261,993.554,385.078z"/>
						</g>
					</g>
				</g>
				<g>
					<g>
						<path style="fill:#F7D800;" d="M1197.923,226.077c1.873,0,3.699-0.961,4.717-2.698c1.531-2.599,0.662-5.952-1.94-7.483
							c-20.07-11.804-43.338-18.041-67.295-18.041c-23.951,0-47.211,6.237-67.26,18.027c-2.602,1.531-3.471,4.884-1.94,7.483
							c1.527,2.613,4.884,3.482,7.486,1.944c18.369-10.808,39.71-16.518,61.714-16.518c22.007,0,43.363,5.717,61.749,16.532
							C1196.025,225.835,1196.979,226.077,1197.923,226.077z"/>
					</g>
					<g>
						<path style="fill:#F7D800;" d="M1184.979,248.07c1.872,0,3.699-0.961,4.717-2.698c1.531-2.599,0.662-5.952-1.94-7.483
							c-33.011-19.415-75.672-19.423-108.675-0.014c-2.602,1.531-3.471,4.884-1.94,7.483c1.527,2.613,4.877,3.482,7.486,1.944
							c29.636-17.436,67.94-17.422,97.583,0.014C1183.082,247.828,1184.036,248.07,1184.979,248.07z"/>
					</g>
					<g>
						<path style="fill:#F7D800;" d="M1172.032,270.056c1.873,0,3.699-0.961,4.717-2.698c1.531-2.599,0.662-5.952-1.94-7.483
							c-25.019-14.723-57.787-14.716-82.784-0.007c-2.602,1.531-3.471,4.884-1.94,7.49c1.531,2.606,4.877,3.467,7.486,1.936
							c21.637-12.73,50.034-12.737,71.692,0.007C1170.135,269.814,1171.089,270.056,1172.032,270.056z"/>
					</g>
				</g>
			</g>
			<path style="fill:#F7B000;" d="M1048.651,927.596c17.351,0,31.417-14.066,31.417-31.418v11.46
				c0,17.352-14.066,31.418-31.417,31.418h-67.299c-0.962-3.895-2.124-7.709-3.421-11.46H1048.651z"/>
			<path style="opacity:0.8;fill:#ABA2A3;" d="M794.897,726.611v7.635c0,2.627-2.129,4.756-4.756,4.756h-4.24v-7.635h4.24
				C792.768,731.367,794.897,729.238,794.897,726.611z"/>
			<path style="fill:#F7D800;" d="M958.416,485.391h388.098c5.858,0,10.606-4.749,10.606-10.606c0-5.858-4.749-10.607-10.606-10.607
				H958.416c-5.858,0-10.606,4.749-10.606,10.607C947.81,480.642,952.558,485.391,958.416,485.391z"/>
		</g>
		<g>
			<rect x="219.736" y="968.245" style="opacity:0.8;fill:#513912;" width="426.707" height="27.883"/>
			<g>
				<rect x="182.159" y="951.135" style="fill:#BE8223;" width="37.577" height="44.994"/>
				<rect x="298.329" y="951.135" style="fill:#BE8223;" width="37.577" height="44.994"/>
				<rect x="163.371" y="951.135" style="fill:#FCBC5B;" width="37.577" height="44.994"/>
				<rect x="279.541" y="951.135" style="fill:#FCBC5B;" width="37.577" height="44.994"/>
				<rect x="395.711" y="951.135" style="fill:#FCBC5B;" width="37.577" height="44.994"/>
				<rect x="432.891" y="951.135" style="fill:#CE902F;" width="37.577" height="44.994"/>
				<rect x="530.273" y="951.135" style="fill:#A3701D;" width="37.577" height="44.994"/>
				<rect x="646.443" y="951.135" style="fill:#A3701D;" width="37.577" height="44.994"/>
				<rect x="163.371" y="951.135" style="fill:#FCBC5B;" width="269.52" height="17.11"/>
				<rect x="433.089" y="951.135" style="fill:#CE902F;" width="269.52" height="17.11"/>
				<rect x="549.061" y="951.135" style="fill:#CE902F;" width="37.577" height="44.994"/>
				<rect x="665.231" y="951.135" style="fill:#CE902F;" width="37.577" height="44.994"/>
			</g>
			<g>
				<g>
					<rect x="195.539" y="805.57" style="fill:#FCBC5B;" width="146.073" height="141.997"/>
					<rect x="341.611" y="805.57" style="fill:#CE902F;" width="146.072" height="141.997"/>
					<rect x="195.539" y="823.321" style="fill:#FCEFDB;" width="93.405" height="17.8"/>
					<rect x="242.241" y="823.321" style="fill:#93651B;" width="20.368" height="17.8"/>
					<rect x="267.731" y="823.321" style="fill:#93651B;" width="21.212" height="17.8"/>
				</g>
				<g>
					<g>
						<rect x="195.539" y="947.568" style="fill:#93651B;" width="146.073" height="3.802"/>
					</g>
					<g>
						<rect x="341.611" y="947.568" style="fill:#785215;" width="146.072" height="3.802"/>
					</g>
				</g>
			</g>
			<g>
				<g>
					<rect x="195.539" y="660.352" style="fill:#FCBC5B;" width="146.073" height="141.997"/>
					<rect x="341.611" y="660.352" style="fill:#CE902F;" width="146.072" height="141.997"/>
					<rect x="195.539" y="678.102" style="fill:#FCEFDB;" width="93.405" height="17.799"/>
					<rect x="242.241" y="678.102" style="fill:#93651B;" width="20.368" height="17.799"/>
					<rect x="267.731" y="678.102" style="fill:#93651B;" width="21.212" height="17.799"/>
				</g>
				<g>
					<g>
						<rect x="195.539" y="802.349" style="fill:#93651B;" width="146.073" height="3.802"/>
					</g>
					<g>
						<rect x="341.611" y="802.349" style="fill:#785215;" width="146.072" height="3.802"/>
					</g>
				</g>
			</g>
			<g>
				<g>
					<rect x="378.511" y="805.57" style="fill:#FCBC5B;" width="146.073" height="141.997"/>
					<rect x="524.583" y="805.57" style="fill:#CE902F;" width="146.073" height="141.997"/>
					<rect x="378.511" y="823.321" style="fill:#FCEFDB;" width="93.404" height="17.8"/>
					<rect x="425.213" y="823.321" style="fill:#93651B;" width="20.368" height="17.8"/>
					<rect x="450.703" y="823.321" style="fill:#93651B;" width="21.212" height="17.8"/>
				</g>
				<g>
					<g>
						<rect x="378.511" y="947.568" style="fill:#93651B;" width="146.073" height="3.802"/>
					</g>
					<g>
						<rect x="524.583" y="947.568" style="fill:#785215;" width="146.073" height="3.802"/>
					</g>
				</g>
			</g>
			<g>
				<g>
					<rect x="378.511" y="660.352" style="fill:#FCBC5B;" width="146.073" height="141.997"/>
					<rect x="524.583" y="660.352" style="fill:#CE902F;" width="146.073" height="141.997"/>
					<rect x="378.511" y="678.102" style="fill:#FCEFDB;" width="93.404" height="17.799"/>
					<rect x="425.213" y="678.102" style="fill:#93651B;" width="20.368" height="17.799"/>
					<rect x="450.703" y="678.102" style="fill:#93651B;" width="21.212" height="17.799"/>
				</g>
				<g>
					<g>
						<rect x="378.511" y="802.349" style="fill:#93651B;" width="146.073" height="3.802"/>
					</g>
					<g>
						<rect x="524.583" y="802.349" style="fill:#785215;" width="146.073" height="3.802"/>
					</g>
				</g>
			</g>
		</g>
	</g>
	<path style="opacity:0.5;fill:#6B8185;" d="M1445.701,1067.681l-652.558-0.142l-652.558,0.142
		c0.156,19.027,15.673,34.464,34.735,34.464h1235.645C1430.028,1102.145,1445.545,1086.708,1445.701,1067.681z"/>
</g>
</svg>
