<?xml version="1.0" encoding="utf-8"?>
<!-- Generator: Adobe Illustrator 27.5.0, SVG Export Plug-In . SVG Version: 6.00 Build 0)  -->
<svg version="1.1" id="Layer_1" xmlns="http://www.w3.org/2000/svg" xmlns:xlink="http://www.w3.org/1999/xlink" x="0px" y="0px"
	 viewBox="0 0 270.02 144.563" style="enable-background:new 0 0 270.02 144.563;" xml:space="preserve">
<g>
	<g>
		<g>
			<path style="fill:#EE6E5C;" d="M252.309,54.207c-0.049,0.533-4.134,16.026-2.721,27.636c1.41,11.611,9.495,50.961-3.495,56.296
				c-12.991,5.333-38.709,2.414-34.738-10.465c3.975-12.883,9.761-29.367,6.087-46.346c-3.669-16.978-30.566-26.795-13.985-30.949
				C220.034,46.226,252.831,48.872,252.309,54.207z"/>
			<path style="fill:#69291E;" d="M231.456,142.395c-9.626,0-17.293-2.602-20.508-6.957c-1.749-2.37-2.179-5.23-1.241-8.271
				l0.816-2.626c3.816-12.228,8.565-27.444,5.233-42.849c-1.533-7.093-7.572-13.006-12.427-17.758
				c-4.467-4.374-7.693-7.534-6.811-10.791c0.731-2.695,4.069-3.823,6.518-4.437c5.383-1.35,12.851-2.092,21.031-2.092
				c9.028,0,25.302,1.101,29.044,5.223c0.865,0.955,0.976,1.908,0.913,2.539c-0.006,0.074-0.072,0.419-0.201,0.987
				c-3.088,13.487-3.077,21.73-2.525,26.271c0.191,1.561,0.502,3.626,0.866,6.043c2.643,17.553,7.064,46.93-5.417,52.057
				C242.573,141.448,237.14,142.395,231.456,142.395z M224.069,50.064c-7.905,0-15.076,0.704-20.193,1.987
				c-3.561,0.892-3.98,1.816-4.027,1.993c-0.355,1.303,3.11,4.698,5.895,7.424c5.184,5.074,11.632,11.391,13.385,19.493
				c3.523,16.293-1.376,31.991-5.313,44.604l-0.813,2.615c-0.62,2.01-0.385,3.713,0.718,5.208c2.491,3.374,9.452,5.555,17.734,5.555
				c5.171,0,10.267-0.875,13.984-2.402c9.979-4.098,5.308-35.107,3.315-48.351c-0.372-2.455-0.686-4.555-0.88-6.14
				c-0.585-4.814-0.613-13.485,2.585-27.46c0.043-0.182,0.077-0.331,0.104-0.445C249.439,52.633,239.942,50.064,224.069,50.064z"/>
		</g>
		<g>
			<path style="fill:#444647;" d="M249.589,81.843c-1.413-11.609,2.672-27.103,2.721-27.636c0.521-5.335-32.275-7.981-48.852-3.828
				c-9.056,2.268-5.134,6.232,0.881,12.125c8.374,4.179,18.599,4.285,26.08,10.27c6.355,5.085,6.199,14.867,6.183,22.242
				c-0.029,10.66,2.212,21.616,0.506,32.197c-0.604,3.789-1.698,9.503-4.297,13.433c4.806-0.133,9.567-0.981,13.284-2.507
				C259.084,132.804,250.999,93.454,249.589,81.843z"/>
			<path style="fill:#272829;" d="M232.809,142.369c-0.626,0-1.203-0.337-1.509-0.887c-0.313-0.563-0.286-1.252,0.068-1.788
				c2.362-3.567,3.434-8.987,4.033-12.754c1.054-6.528,0.544-13.409,0.05-20.063c-0.29-3.893-0.587-7.917-0.578-11.865l0.002-0.436
				c0.021-7.123,0.046-15.99-5.536-20.455c-4.145-3.317-9.215-4.714-14.58-6.191c-3.745-1.032-7.619-2.1-11.19-3.884
				c-0.163-0.08-0.31-0.184-0.438-0.311c-4.186-4.1-7.491-7.338-6.61-10.595c0.733-2.695,4.069-3.823,6.517-4.435
				c5.383-1.35,12.851-2.092,21.031-2.092c9.028,0,25.302,1.101,29.044,5.223c0.865,0.957,0.976,1.908,0.913,2.539
				c-0.006,0.074-0.072,0.419-0.201,0.987c-3.088,13.487-3.077,21.73-2.525,26.271c0.191,1.561,0.502,3.626,0.866,6.043
				c2.643,17.553,7.064,46.93-5.417,52.057c-3.793,1.556-8.726,2.491-13.895,2.635C232.854,142.369,232.824,142.369,232.809,142.369
				z M205.348,61.079c3.206,1.563,6.669,2.516,10.327,3.525c5.468,1.504,11.119,3.062,15.821,6.822
				c6.879,5.506,6.849,15.71,6.83,23.159l-0.002,0.436c-0.012,3.815,0.284,7.773,0.566,11.602c0.51,6.853,1.034,13.938-0.081,20.865
				c-0.554,3.459-1.38,7.641-3.005,11.249c3.612-0.339,6.956-1.097,9.636-2.195c9.979-4.098,5.308-35.107,3.315-48.351
				c-0.372-2.455-0.686-4.555-0.88-6.14c-0.585-4.814-0.613-13.485,2.585-27.46c0.043-0.182,0.077-0.331,0.104-0.445
				c-1.127-1.514-10.622-4.082-26.495-4.082c-7.905,0-15.076,0.704-20.193,1.987c-3.558,0.89-3.977,1.814-4.024,1.991
				C199.507,55.315,202.816,58.599,205.348,61.079z"/>
		</g>
		<path style="fill:#EE6E5C;" d="M218.267,121.088c4.702-5.164,5.985-12.847,6.292-19.623c0.438-9.742-1.83-19.768-9.243-25.758
			c0.951,1.78,1.701,3.65,2.127,5.621c3.401,15.692-1.288,30.954-5.156,43.347C214.536,124.036,216.618,122.89,218.267,121.088z"/>
		<path style="opacity:0.7;fill:#444647;" d="M249.589,81.843c-1.413-11.609,2.672-27.103,2.721-27.636
			c0.521-5.335-32.275-7.981-48.852-3.828c-11.392,2.853-2.258,8.381,5.764,17.069c2.314,0.699,4.711,1.108,7.137,1.141
			c4.071,0.055,7.659-1.163,11.619-1.786c4.605-0.725,9.298,1.23,11.412,5.49c2.7,5.448,2.717,11.819,3.172,17.753
			c0.653,8.509,1.401,16.951,2.646,25.396c0.726,4.926,1.052,11.101-2.396,15.19c-4.148,4.922-11.482,7.143-17.769,6.464
			c-3.662-0.394-9.033-1.8-13.576-4.234c3.457,8.386,23.611,9.799,34.628,5.276C259.084,132.804,250.999,93.454,249.589,81.843z"/>
	</g>
	<g>
		<path style="fill:#444647;" d="M219.468,70.974c-1.809-9.332-9.715-18.269-19.554-18.924c-2.957-0.195-8.362,0.218-9.348,3.854
			c-0.257,0.943-0.287,1.869-0.17,2.773c-0.296,0.131-0.591,0.564-0.435,0.813c2.84,4.645,4.892,9.37,6.439,14.582
			c1.383,4.649,3.929,7.544,8.732,8.662c3.583,0.834,8.442,0.288,11.436-1.976C219.993,78.17,220.254,75.019,219.468,70.974z"/>
		<path style="fill:#272829;" d="M208.518,84.827L208.518,84.827c-1.326,0-2.596-0.139-3.775-0.413
			c-5.178-1.205-8.354-4.335-9.994-9.852c-1.556-5.229-3.545-9.732-6.26-14.173c-0.307-0.497-0.381-1.106-0.196-1.705
			c0.071-0.233,0.182-0.457,0.321-0.661c-0.032-0.887,0.066-1.751,0.29-2.575c0.889-3.279,4.456-5.162,9.785-5.162
			c0.478,0,0.931,0.017,1.34,0.043c11.313,0.754,19.332,11.03,21.134,20.317c0.736,3.795,0.89,8.127-3.557,11.486
			C215.346,83.846,212.032,84.827,208.518,84.827z M191.942,59.44c2.59,4.394,4.592,9.025,6.111,14.139
			c1.285,4.319,3.519,6.555,7.469,7.474c0.911,0.212,1.947,0.324,2.995,0.324c2.737,0,5.357-0.744,7.008-1.995
			c2.459-1.858,3.047-3.971,2.251-8.08c-1.556-8.021-8.386-16.892-17.978-17.532c-0.337-0.021-0.714-0.034-1.11-0.034
			c-1.349,0-5.799,0.188-6.458,2.618c-0.181,0.665-0.222,1.352-0.123,2.104C192.15,58.804,192.088,59.143,191.942,59.44z"/>
	</g>
	<g>
		<path style="fill:#EE6E5C;" d="M122.453,25.932c0,0-0.092-10.352,18.257-14.876c18.353-4.526,96.959-12.229,111.69-2.383
			c14.729,9.846,13.953,41.91,7.203,50.351c-6.748,8.438-107.079,8.072-130.014,3.535C129.59,62.559,118.353,56.111,122.453,25.932z
			"/>
		<path style="fill:#69291E;" d="M189.82,67.456c-26.536,0-50.876-1.29-60.564-3.206c-0.184-0.036-0.361-0.102-0.524-0.196
			c-0.498-0.286-12.169-7.366-7.999-38.259c0.053-1.449,1.099-11.859,19.564-16.412c11.641-2.872,48.62-7.215,77.834-7.215
			c18.343,0,30.194,1.705,35.227,5.07c6.055,4.047,10.279,12.047,11.901,22.527c1.844,11.919-0.01,24.959-4.309,30.336
			C255.641,66.738,209.438,67.456,189.82,67.456z M130.27,60.933c9.717,1.842,33.527,3.073,59.551,3.073
			c43.689,0,66.101-3.141,68.434-6.059c3.173-3.965,5.448-15.666,3.594-27.654c-1.47-9.515-5.166-16.686-10.406-20.187
			c-3.063-2.048-11.33-4.488-33.312-4.488c-28.962,0-65.528,4.282-77.008,7.112c-16.618,4.098-16.94,12.835-16.946,13.207
			c-0.002,0.068-0.006,0.159-0.016,0.228C120.613,52.29,128.925,59.895,130.27,60.933z"/>
	</g>
	<path style="fill:#EE6E5C;" d="M174.368,14.256c2.251,4.426,3.325,8.518,8.094,10.971c8.679,4.468,19.025,4.816,28.6,4.712
		c5.813-0.064,11.705-0.353,17.417-1.499c4.901-0.98,9.556-2.51,12.216-7.093c2.58-4.441,4.229-9.92,4.539-15.336
		c-16.277-3.672-50.148-1.985-75.721,0.742C171.443,9.018,173.012,11.596,174.368,14.256z"/>
	<path style="fill:#EE6E5C;" d="M252.4,8.673c-0.828-0.552-1.864-1.048-3.071-1.493c3.581,7.526,4.716,16.646,2.666,24.174
		c-3.823,14.003-18.07,16.519-30.807,16.811c-9.436,0.214-18.834,1.021-28.268,1.286c-5.403,0.153-14.357,1.12-18.675-3.173
		c-2.552-2.545-3.074-5.921-3.576-9.378c-0.669-4.595-0.929-9.182-2.488-13.596c-2.298-6.488-6.051-11.659-11.846-14.957
		c-6.749,0.925-12.224,1.872-15.625,2.709c-18.349,4.524-18.257,14.876-18.257,14.876c-4.101,30.18,7.137,36.627,7.137,36.627
		c22.935,4.537,123.266,4.903,130.014-3.535C266.353,50.583,267.129,18.518,252.4,8.673z"/>
	<g>
		<path style="fill:#444647;" d="M173.563,10.817c2.348,3.892,4.587,8.502,8.463,11.118c9.171,6.19,21.806,4.108,32.175,3.345
			c8.908-0.66,20.637,1.472,25.429-8.09c1.82-3.626,2.883-7.675,4.38-11.451c-16.448-3.27-48.526-1.697-73.316,0.889
			C171.731,7.945,172.679,9.349,173.563,10.817z"/>
		<path style="fill:#272829;" d="M199.305,27.963L199.305,27.963c-7.8,0-13.596-1.461-18.243-4.597
			c-3.592-2.425-5.869-6.341-7.879-9.797c-0.367-0.631-0.732-1.256-1.097-1.864c-0.908-1.504-1.806-2.816-2.747-4.009
			c-0.389-0.494-0.48-1.161-0.233-1.739c0.242-0.579,0.784-0.978,1.409-1.045c9.82-1.023,29.066-2.742,47.623-2.742
			c11.123,0,19.94,0.633,26.209,1.878c0.502,0.101,0.933,0.417,1.177,0.867c0.246,0.449,0.278,0.983,0.089,1.461
			c-0.542,1.368-1.026,2.773-1.512,4.182c-0.85,2.467-1.729,5.017-2.931,7.407c-4.333,8.646-13.471,8.765-21.531,8.866
			c-1.872,0.024-3.64,0.046-5.311,0.169c-1.273,0.095-2.578,0.208-3.908,0.324C206.805,27.637,203.069,27.963,199.305,27.963z
			 M173.846,8.041c0.399,0.6,0.796,1.227,1.193,1.886c0.375,0.621,0.749,1.262,1.126,1.909c1.911,3.289,3.889,6.689,6.827,8.672
			c4.051,2.731,9.232,4.005,16.313,4.005c3.612,0,7.275-0.318,10.817-0.625c1.344-0.118,2.666-0.233,3.952-0.326
			c1.775-0.133,3.679-0.157,5.52-0.18c7.423-0.093,15.098-0.191,18.492-6.965c1.098-2.186,1.94-4.624,2.753-6.983
			c0.273-0.792,0.546-1.58,0.826-2.364c-5.885-0.962-13.784-1.449-23.528-1.449C201.457,5.62,184.193,7.022,173.846,8.041z"/>
	</g>
	<path style="fill:#6D6E6F;" d="M203.342,8.726c8.163-0.27,16.652-1.326,24.087-4.655c-15.646-0.606-35.484,0.493-52.626,2.15
		C183.163,10.292,194.647,9.006,203.342,8.726z"/>
	<path style="fill:#444647;" d="M237.86,12.281c-6.186,7.344-15.011,8.143-24.046,8.237c-8.747,0.093-18.379,1.449-26.846-1.387
		c-3.705-1.244-6.855-3.07-9.404-6.07c-2.03-2.379-4.001-5.142-6.801-6.441c-0.023,0.004-0.046,0.006-0.07,0.008
		c1.038,1.317,1.985,2.721,2.87,4.189c2.348,3.892,4.587,8.502,8.463,11.118c9.171,6.19,21.806,4.108,32.175,3.345
		c8.908-0.66,20.637,1.472,25.429-8.09c1.82-3.626,2.883-7.675,4.38-11.451c-0.481-0.097-0.983-0.186-1.497-0.274
		C241.126,7.837,239.606,10.205,237.86,12.281z"/>
	<g>
		<path style="fill:#444647;" d="M165.847,58.72c1.076-6.913,1.942-14.205,1.596-21.213c-0.514-10.37-3.56-21.565-10.477-29.249
			c-7.037,0.954-12.749,1.934-16.256,2.798c-18.349,4.524-18.257,14.876-18.257,14.876c-4.101,30.18,7.137,36.627,7.137,36.627
			c6.595,1.304,19.595,2.262,34.927,2.768C165.097,63.111,165.516,60.872,165.847,58.72z"/>
		<path style="fill:#272829;" d="M164.517,67.053c-0.019,0-0.035,0-0.057-0.002c-16.285-0.538-28.789-1.533-35.204-2.801
			c-0.184-0.036-0.361-0.102-0.524-0.196c-0.498-0.286-12.169-7.366-7.999-38.259c0.053-1.449,1.097-11.859,19.564-16.412
			c3.567-0.879,9.25-1.858,16.436-2.832c0.568-0.078,1.135,0.131,1.516,0.553c8.669,9.63,10.561,23.129,10.918,30.318
			c0.37,7.489-0.608,15.103-1.614,21.565c-0.392,2.546-0.841,4.763-1.365,6.776C165.987,66.523,165.3,67.053,164.517,67.053z
			 M130.27,60.933c6.078,1.15,17.979,2.098,32.908,2.624c0.358-1.542,0.676-3.223,0.966-5.098
			c0.978-6.292,1.931-13.688,1.576-20.866c-0.325-6.562-1.993-18.707-9.442-27.499c-6.547,0.905-11.905,1.837-15.154,2.637
			c-16.829,4.151-16.948,13.097-16.946,13.186c0,0.084-0.004,0.165-0.016,0.249C120.613,52.29,128.923,59.895,130.27,60.933z"/>
	</g>
	<path style="fill:#6D6E6F;" d="M132.496,63.051c3.51-2.112,6.361-5.151,8.304-8.84c2.149-4.09,2.959-8.372,4.368-12.706
		c1.933-5.934,8.435-7.703,14.321-6.972c7.076,0.883,7.53,6.958,7.752,12.761c0.256-3.279,0.364-6.563,0.201-9.787
		c-0.334-6.736-1.747-13.818-4.585-20.063c0.836,4.482,1.063,9.376-4.344,10.65c-2.821,0.661-5.814,0.874-8.702,0.898
		c-1.82,0.015-3.386-0.193-4.571-1.684c-1.838-2.313-2.391-5.646-3.896-8.195c-1.585-2.707-3.487-4.958-6.087-6.349
		c-12.865,4.994-12.805,13.167-12.805,13.167c-4.101,30.18,7.137,36.627,7.137,36.627C130.451,62.728,131.425,62.892,132.496,63.051
		z"/>
	<path style="fill:#444647;" d="M167.3,45.24c-1.625,3.882-5.839,5.649-9.73,6.429c-3.673,0.735-9.445,1.399-12.303-1.785
		c-2.607-2.908-2.358-6.89-2.097-10.549c0.405-5.714,0.581-12.64-2.219-17.81c-0.951-1.752-2.067-3.199-3.535-4.543
		c-0.57-0.524-1.36-1.142-1.721-1.856c-0.377-0.744-0.611-1.525-0.566-2.314c-12.736,5.004-12.676,13.12-12.676,13.12
		c-4.101,30.18,7.137,36.627,7.137,36.627c6.595,1.304,19.595,2.262,34.927,2.768c0.58-2.215,0.999-4.454,1.33-6.607
		c0.699-4.48,1.302-9.124,1.55-13.738C167.36,45.066,167.332,45.153,167.3,45.24z"/>
	<g>
		<g>
			<g>
				<path style="fill:#656668;" d="M139.35,38.083c-0.352-11.853-4.604-21.342-9.487-21.192c-0.365,0.01-1.07,0.191-1.07,0.191
					l-32.52,4.619l0.932,4.896l-0.568,28.776l33.442,4.296c0.358,0.095,0.713,0.15,1.072,0.139
					C136.033,59.662,139.704,49.934,139.35,38.083z"/>
				<path style="fill:#565759;" d="M131.059,61.533c-0.421,0-0.849-0.055-1.304-0.166l-33.34-4.284
					c-0.873-0.111-1.523-0.863-1.506-1.744l0.566-28.597l-0.9-4.717c-0.087-0.465,0.018-0.943,0.292-1.326
					c0.275-0.385,0.693-0.639,1.161-0.705l32.429-4.605c0.312-0.078,0.902-0.209,1.352-0.222h0.004
					c6.102,0,10.874,9.829,11.261,22.865c0.178,5.95-0.62,11.602-2.247,15.912c-1.812,4.799-4.521,7.494-7.625,7.587
					C131.183,61.531,131.075,61.533,131.059,61.533z M98.391,53.86l31.907,4.099c0.076,0.009,0.147,0.024,0.222,0.043
					c0.209,0.055,0.387,0.082,0.54,0.082v1.726l0.038-1.726c1.57-0.048,3.253-2.05,4.503-5.358c1.471-3.899,2.192-9.08,2.025-14.592
					c-0.333-11.174-4.313-19.521-7.652-19.521c-0.305,0.017-0.73,0.134-0.75,0.14c-0.063,0.016-0.127,0.028-0.189,0.038
					l-30.729,4.363l0.594,3.12c0.022,0.117,0.032,0.237,0.03,0.356L98.391,53.86z"/>
			</g>
			<path style="fill:#6D6E6F;" d="M139.35,38.083c-0.22-7.338-1.934-13.76-4.362-17.561c0.259,1.145,0.468,2.263,0.621,3.307
				c0.79,5.336-0.646,9.516-6.423,10.37c-5.39,0.798-13.903,1.58-18.595-1.849c-2.929-2.138-4.12-5.107-6.195-7.95
				c-1.061-1.453-2.286-2.56-3.768-3.318l-4.355,0.619l0.932,4.896l-0.568,28.776l2.961,0.382c3.772-1.957,5.214-8.349,6.787-11.986
				c2.81-6.512,9.57-4.075,15.169-3.821c2.861,0.133,5.625,0.311,8.02,2.035c2.255,1.625,3.398,4.984,3.797,7.612
				c0.48,3.146,0.419,6.394-0.167,9.533C137.016,56.742,139.651,48.198,139.35,38.083z"/>
			<g>
				<path style="fill:#656668;" d="M103.724,38.355c0.28,9.313-2.604,16.958-6.443,17.07c-3.839,0.117-7.171-7.34-7.453-16.655
					c-0.28-9.312,2.603-16.956,6.445-17.069C100.108,21.586,103.447,29.039,103.724,38.355z"/>
				<path style="fill:#565759;" d="M97.191,57.151c-5.603,0-8.812-9.219-9.09-18.327c-0.141-4.726,0.494-9.217,1.788-12.646
					c1.481-3.922,3.73-6.123,6.331-6.201h0.002c5.689,0,8.962,9.442,9.225,18.328c0.143,4.723-0.492,9.215-1.788,12.645
					c-1.478,3.921-3.727,6.125-6.328,6.2C97.314,57.151,97.208,57.151,97.191,57.151z M96.361,23.425
					c-1.104,0.032-2.332,1.554-3.243,3.972c-1.139,3.017-1.698,7.038-1.567,11.323c0.277,9.146,3.526,14.983,5.641,14.983v1.725
					l0.037-1.727c1.065-0.03,2.291-1.551,3.204-3.969c1.139-3.02,1.695-7.04,1.566-11.323
					C101.729,29.262,98.479,23.425,96.361,23.425z"/>
			</g>
			<path style="fill:#444647;" d="M103.724,38.355c0.28,9.313-2.604,16.958-6.443,17.07c-3.839,0.117-7.171-7.34-7.453-16.655
				c-0.28-9.312,2.603-16.956,6.445-17.069C100.108,21.586,103.447,29.039,103.724,38.355z"/>
			<g>
				<path style="fill:#B1B3B6;" d="M96.329,32.238l-22.267,1.006c-2.203,0.512-4.435,1.582-6.714,1.535
					c-1.798-0.036-3.545-0.457-5.26-0.991l-6.824,0.31c-1.246,0.815-2.586,1.463-4.444,1.666c-3.078,0.337-5.996-0.145-8.86-1.063
					l-3.932,0.18c-1.927,1.137-3.938,1.566-6.367,1.35c-1.879-0.169-3.791-0.213-5.521-0.813l-4.331,0.195
					c-3.789,2.713-8.501,2.533-12.804,0.595l-3.23,5.222l2.603,4.988l13.394-0.161c3.442-3.101,8.388-1.993,12.464-0.151
					l2.112-0.026c2.086-1.131,4.095-2.041,6.616-1.709c2.021,0.266,3.892,0.932,5.767,1.56l3.178-0.036
					c4.94-5.074,12.996-2.99,18.76-0.229l0.941-0.014c3.477-2.258,7.326-1.466,11.085-0.132l14.028-0.171
					c1.485-0.046,2.613-3.016,2.503-6.633C99.118,35.092,97.824,32.193,96.329,32.238z"/>
				<path style="fill:#565759;" d="M8.379,48.142c-0.642,0-1.231-0.357-1.528-0.927l-2.605-4.988
					c-0.28-0.54-0.258-1.188,0.063-1.705l3.23-5.222c0.455-0.735,1.385-1.022,2.177-0.665c4.098,1.844,8.098,1.719,11.091-0.424
					c0.271-0.195,0.593-0.306,0.926-0.32l4.333-0.197c0.213-0.01,0.436,0.023,0.643,0.095c1.207,0.419,2.594,0.526,4.063,0.641
					l1.042,0.083c2.031,0.182,3.714-0.157,5.337-1.115c0.242-0.145,0.518-0.226,0.8-0.239l3.931-0.178
					c0.205-0.004,0.411,0.017,0.607,0.079c2.963,0.951,5.506,1.285,8.146,0.991c1.641-0.179,2.741-0.777,3.688-1.395
					c0.258-0.169,0.556-0.266,0.866-0.28l6.824-0.309c0.197-0.01,0.399,0.017,0.591,0.075c1.935,0.604,3.408,0.885,4.782,0.913
					h0.004c1.331,0,2.621-0.405,3.987-0.833c0.77-0.243,1.535-0.479,2.296-0.657c0.103-0.023,0.207-0.038,0.313-0.042l22.266-1.006
					h0.002c3.094,0,4.579,4.223,4.699,8.144c0.119,3.986-1.136,8.316-4.176,8.409l-14.06,0.171c-0.169,0.002-0.405-0.03-0.597-0.099
					c-2.326-0.824-4.043-1.191-5.572-1.191c-1.504,0-2.812,0.373-3.997,1.145c-0.272,0.176-0.589,0.272-0.915,0.278l-0.941,0.013
					c-0.26-0.002-0.528-0.055-0.77-0.168c-2.567-1.229-6.397-2.694-10.075-2.694c-2.788,0-5.043,0.866-6.702,2.571
					c-0.32,0.327-0.758,0.515-1.217,0.521l-3.179,0.036c-0.211-0.006-0.385-0.028-0.564-0.089l-0.501-0.167
					c-1.682-0.564-3.27-1.099-4.944-1.316c-1.923-0.252-3.424,0.35-5.568,1.514c-0.248,0.135-0.523,0.206-0.801,0.21l-2.114,0.024
					c-0.332,0-0.504-0.049-0.733-0.153c-4.7-2.122-8.294-2.215-10.6-0.138c-0.311,0.282-0.713,0.439-1.133,0.443L8.398,48.142
					C8.392,48.142,8.385,48.142,8.379,48.142z M7.76,41.501l1.657,3.179l11.72-0.14c3.251-2.529,7.868-2.605,13.455-0.163
					l1.315-0.017c1.985-1.053,4.366-2.078,7.282-1.701c2.01,0.264,3.833,0.875,5.595,1.469l0.22,0.073l2.203-0.026
					c2.264-2.058,5.168-3.098,8.643-3.098c4.143,0,8.312,1.512,11.195,2.855h0.068c1.629-0.949,3.455-1.431,5.435-1.431
					c2.355,0,4.646,0.667,6.433,1.288l13.52-0.164c0.349-0.379,1.091-1.995,1.002-4.86c-0.085-2.874-0.925-4.442-1.29-4.795
					l-21.908,0.989c-0.63,0.155-1.261,0.354-1.895,0.553c-1.556,0.487-3.166,0.993-4.915,0.993c-0.011,0-0.169-0.002-0.182-0.002
					c-2.054-0.042-3.962-0.526-5.445-0.978L55.801,35.8c-1.137,0.701-2.673,1.448-4.791,1.679c-2.953,0.324-5.956-0.011-9.277-1.04
					l-3.215,0.146c-2.126,1.157-4.373,1.597-7.008,1.361l-1.004-0.081c-1.514-0.115-3.077-0.237-4.603-0.711l-3.523,0.159
					c-3.56,2.338-8.098,2.696-12.675,1.039L7.76,41.501z"/>
			</g>
		</g>
		<path style="fill:#565759;" d="M21.592,45.77c-1.885-2.007-3.687-4.017-5.845-5.776c-1.938-1.576-4.376-3.778-6.968-4.077
			c-0.235-0.026-0.51,0.254-0.47,0.49c0.013,0.068,0.024,0.133,0.037,0.203c0.036,0.204,0.193,0.133,0.326,0.008
			c2.429,0.621,4.416,2.864,6.339,4.281c2.213,1.633,3.886,3.888,5.919,5.686C21.258,46.876,21.889,46.086,21.592,45.77z"/>
		<path style="fill:#565759;" d="M35.688,45.669c-4.438-3.855-7.966-8.016-13.522-10.407c-0.306-0.13-0.834,0.603-0.525,0.77
			c2.584,1.368,4.865,3.033,7.108,4.901c2.154,1.792,3.942,4.015,6.112,5.756C35.291,47.029,36.107,46.025,35.688,45.669z"/>
		<path style="fill:#565759;" d="M51.963,45.447c-2.098-1.548-3.681-3.892-5.5-5.746c-2.106-2.143-4.291-3.783-6.985-5.129
			c-0.282-0.144-0.76,0.433-0.486,0.601c2.516,1.556,4.634,3.384,6.665,5.524c1.739,1.83,3.336,4.416,5.494,5.754
			C51.606,46.735,52.396,45.766,51.963,45.447z"/>
		<path style="fill:#565759;" d="M71.031,45.294c-1.368-2.302-3.009-4.178-4.819-6.15c-1.925-2.091-3.996-4.277-6.629-5.458
			c-0.328-0.146-0.842,0.603-0.453,0.794c2.249,1.092,4.062,3.24,5.697,5.072c1.896,2.119,3.666,4.235,5.234,6.602
			C70.402,46.663,71.297,45.737,71.031,45.294z"/>
		<path style="fill:#565759;" d="M88.042,44.907c-0.011-0.026-0.019-0.053-0.032-0.081c-0.039-0.09-0.097-0.131-0.157-0.152
			c-1.722-1.957-3.07-4.126-5.021-5.905c-2.313-2.101-4.674-4.073-7.47-5.503c-0.341-0.171-0.913,0.523-0.585,0.726
			c2.455,1.528,4.518,3.521,6.607,5.507c2.098,1.987,3.592,4.504,5.655,6.459C87.487,46.385,88.229,45.337,88.042,44.907z"/>
	</g>
	<path style="fill:#444647;" d="M251.256,25.926c0,1.479-1.197,2.677-2.673,2.677l0,0c-1.479,0-2.673-1.197-2.673-2.677l0,0
		c0-1.476,1.193-2.671,2.673-2.671l0,0C250.059,23.255,251.256,24.45,251.256,25.926L251.256,25.926z"/>
	<path style="fill:#444647;" d="M251.955,36.596c0,0.983-0.797,1.783-1.782,1.783l0,0c-0.985,0-1.785-0.8-1.785-1.783l0,0
		c0-0.985,0.8-1.782,1.785-1.782l0,0C251.158,34.813,251.955,35.61,251.955,36.596L251.955,36.596z"/>
	<g>
		<path style="fill:#984338;" d="M173.416,58.784c-0.279,0-0.56-0.085-0.8-0.261c-0.604-0.443-0.735-1.294-0.296-1.896
			c8.406-11.478,8.056-22.791,8.052-22.905c-0.03-0.748,0.548-1.381,1.296-1.409c0.752-0.03,1.38,0.546,1.414,1.296
			c0.02,0.498,0.428,12.341-8.569,24.621C174.245,58.592,173.836,58.784,173.416,58.784z"/>
	</g>
	<g>
		<path style="fill:#984338;" d="M178.993,58.784c-0.278,0-0.559-0.085-0.802-0.261c-0.604-0.443-0.73-1.294-0.291-1.896
			c8.403-11.478,8.05-22.791,8.05-22.905c-0.034-0.748,0.549-1.381,1.296-1.409c0.76-0.03,1.379,0.546,1.413,1.296
			c0.019,0.498,0.426,12.341-8.571,24.621C179.825,58.592,179.412,58.784,178.993,58.784z"/>
	</g>
	<g>
		<path style="fill:#984338;" d="M184.582,58.784c-0.276,0-0.559-0.085-0.798-0.261c-0.606-0.443-0.736-1.294-0.295-1.896
			c8.407-11.478,8.054-22.791,8.052-22.905c-0.034-0.748,0.549-1.381,1.294-1.409c0.76-0.03,1.383,0.546,1.415,1.296
			c0.018,0.498,0.426,12.341-8.571,24.621C185.416,58.592,185.001,58.784,184.582,58.784z"/>
	</g>
	<path style="fill:#656668;" d="M97.405,32.731c-1.05,2.214-2.997,3.902-5.766,4.662c-2.487,0.686-5.261,1.026-7.814,0.498
		c-1.449-0.301-2.954-0.691-4.234-1.468c-0.938-0.566-1.832-1.283-2.787-1.864c2.351,2.51,4.865,5.867,0.082,6.909
		c-6.862,1.5-12.139-4.528-17.74-7.441c0.57,1.129,0.947,2.354,0.282,3.493c-0.849,1.441-2.749,1.974-4.295,2.104
		c-3.359,0.282-6.233-0.422-9.341-1.731c-1.985-0.834-3.711-2.199-5.64-3.11l-0.105,0.003c1.735,2.357,3.742,5.754-0.395,5.913
		c-2.857,0.11-5.86-0.538-8.552-1.427c-2.958-0.968-5.583-2.409-8.346-3.662c1.451,1.854,2.92,4.297,0.714,5.01
		c-4.152,1.345-8.272-1.419-12.269-3.088c1.733,1.483,3.454,3.332,2.512,4.563c-1.403,1.84-4.831,1.226-7.367,0.43l2.034,3.892
		l13.394-0.161c3.442-3.101,8.388-1.993,12.464-0.151l2.112-0.026c2.086-1.131,4.095-2.041,6.616-1.709
		c2.021,0.266,3.892,0.932,5.767,1.56l3.178-0.036c4.94-5.074,12.996-2.99,18.76-0.229l0.941-0.014
		c3.477-2.258,7.326-1.466,11.085-0.132l14.028-0.171c1.485-0.046,2.613-3.016,2.503-6.633
		C99.146,36.005,98.397,33.703,97.405,32.731z"/>
</g>
</svg>
